<?xml version="1.0" encoding="UTF-8" standalone="no"?>
<svg
   version="1.1"
   id="Layer_1"
   x="0px"
   y="0px"
   viewBox="0 0 676.3 673.40518"
   xml:space="preserve"
   sodipodi:docname="comp_sizes.svg"
   inkscape:version="1.1.2 (0a00cf5339, 2022-02-04)"
   width="676.29999"
   height="673.40515"
   xmlns:inkscape="http://www.inkscape.org/namespaces/inkscape"
   xmlns:sodipodi="http://sodipodi.sourceforge.net/DTD/sodipodi-0.dtd"
   xmlns="http://www.w3.org/2000/svg"
   xmlns:svg="http://www.w3.org/2000/svg"><defs
   id="defs441" /><sodipodi:namedview
   id="namedview439"
   pagecolor="#ffffff"
   bordercolor="#666666"
   borderopacity="1.0"
   inkscape:pageshadow="2"
   inkscape:pageopacity="0.0"
   inkscape:pagecheckerboard="0"
   showgrid="false"
   inkscape:zoom="0.62761185"
   inkscape:cx="516.24264"
   inkscape:cy="340.97508"
   inkscape:window-width="1920"
   inkscape:window-height="997"
   inkscape:window-x="0"
   inkscape:window-y="0"
   inkscape:window-maximized="1"
   inkscape:current-layer="g212"
   fit-margin-top="0"
   fit-margin-left="0"
   fit-margin-right="0"
   fit-margin-bottom="0" /> <style
   type="text/css"
   id="style2"> .st0{fill:#EBBD8C;} .st1{fill:#FFFFFF;} .st2{fill:#B4B4B4;} .st3{fill:#343434;} .st4{fill:#A6714E;} .st5{fill:#676767;} .st6{fill:#D8AD82;} .st7{fill:#8C633A;} .st8{fill:#F7DEC7;} .st9{fill:#C5A28C;} .st10{fill:none;stroke:#F8AE33;stroke-width:3;stroke-linecap:round;stroke-linejoin:round;} .st11{fill:none;stroke:#F8AE33;stroke-width:3;stroke-linecap:round;stroke-linejoin:round;stroke-dasharray:9.7351,9.7351;} .st12{fill:none;stroke:#F8AE33;stroke-width:3;stroke-linecap:round;stroke-linejoin:round;stroke-dasharray:9.735,9.735;} .st13{fill:none;stroke:#F8AE33;stroke-width:3;stroke-linecap:round;stroke-linejoin:round;stroke-dasharray:9.3137,9.3137;} .st14{fill:none;stroke:#F8AE33;stroke-width:3;stroke-linecap:round;stroke-linejoin:round;stroke-dasharray:8,8;} .st15{font-family:'OpenSans-Bold';} .st16{font-size:40px;} </style> <g
   id="g290"
   transform="translate(-113.7,-61.5)"> <g
   id="g214"> <polygon
   class="st0"
   points="695,500 441.8,646.1 441.8,353.8 695,207.7 "
   id="polygon4"
   style="fill:#a6714e;fill-opacity:1" /> <g
   id="g212"> <polygon
   class="st1"
   points="643.1,349.2 493.7,435.5 493.7,364.5 643.1,278.2 "
   id="polygon6"
   style="fill:#bdbdbd;fill-opacity:1" /> <polygon
   class="st2"
   points="637.3,300.2 500.1,379.4 500.1,367.9 637.3,288.7 "
   id="polygon8" /> <g
   id="g110"> <g
   id="g12"> <polygon
   class="st3"
   points="500.9,403.6 500.1,404.1 500.1,385.6 500.9,385.2 "
   id="polygon10" /> </g> <g
   id="g16"> <polygon
   class="st3"
   points="504.1,401.8 502.6,402.7 502.6,384.2 504.1,383.3 "
   id="polygon14" /> </g> <g
   id="g20"> <polygon
   class="st3"
   points="506.5,400.4 505.7,400.9 505.7,382.4 506.5,382 "
   id="polygon18" /> </g> <g
   id="g24"> <polygon
   class="st3"
   points="510,398.4 507.8,399.7 507.8,381.2 510,379.9 "
   id="polygon22" /> </g> <g
   id="g28"> <polygon
   class="st3"
   points="512.4,397 510.9,397.8 510.9,379.4 512.4,378.5 "
   id="polygon26" /> </g> <g
   id="g32"> <polygon
   class="st3"
   points="515.2,395.4 513.7,396.2 513.7,377.8 515.2,376.9 "
   id="polygon30" /> </g> <g
   id="g36"> <polygon
   class="st3"
   points="517.6,394 516.9,394.4 516.9,376 517.6,375.5 "
   id="polygon34" /> </g> <g
   id="g40"> <polygon
   class="st3"
   points="518.8,393.3 518.5,393.5 518.5,375 518.8,374.8 "
   id="polygon38" /> </g> <g
   id="g44"> <polygon
   class="st3"
   points="527.2,388.5 526.9,388.6 526.9,370.2 527.2,370 "
   id="polygon42" /> </g> <g
   id="g48"> <polygon
   class="st3"
   points="502.1,403 501.8,403.1 501.8,384.7 502.1,384.5 "
   id="polygon46" /> </g> <g
   id="g52"> <polygon
   class="st3"
   points="520.4,392.4 519.7,392.8 519.7,374.3 520.4,373.9 "
   id="polygon50" /> </g> <g
   id="g56"> <polygon
   class="st3"
   points="523.6,390.5 522.1,391.4 522.1,372.9 523.6,372.1 "
   id="polygon54" /> </g> <g
   id="g60"> <polygon
   class="st3"
   points="526,389.1 525.3,389.6 525.3,371.1 526,370.7 "
   id="polygon58" /> </g> <g
   id="g64"> <polygon
   class="st3"
   points="528.8,387.5 528,388 528,369.5 528.8,369.1 "
   id="polygon62" /> </g> <g
   id="g68"> <polygon
   class="st3"
   points="532,385.7 530.5,386.6 530.5,368.1 532,367.2 "
   id="polygon66" /> </g> <g
   id="g72"> <polygon
   class="st3"
   points="534.4,384.3 533.6,384.7 533.6,366.3 534.4,365.8 "
   id="polygon70" /> </g> <g
   id="g76"> <polygon
   class="st3"
   points="537.9,382.3 535.7,383.6 535.7,365.1 537.9,363.8 "
   id="polygon74" /> </g> <g
   id="g80"> <polygon
   class="st3"
   points="540,381.1 539.2,381.5 539.2,363.1 540,362.6 "
   id="polygon78" /> </g> <g
   id="g84"> <polygon
   class="st3"
   points="542.8,379.5 542,379.9 542,361.5 542.8,361 "
   id="polygon82" /> </g> <g
   id="g88"> <polygon
   class="st3"
   points="545.9,377.6 544.4,378.5 544.4,360.1 545.9,359.2 "
   id="polygon86" /> </g> <g
   id="g92"> <polygon
   class="st3"
   points="548.7,376 547.2,376.9 547.2,358.4 548.7,357.6 "
   id="polygon90" /> </g> <g
   id="g96"> <polygon
   class="st3"
   points="551.1,374.6 550.4,375.1 550.4,356.6 551.1,356.2 "
   id="polygon94" /> </g> <g
   id="g100"> <polygon
   class="st3"
   points="554.3,372.8 552.8,373.7 552.8,355.2 554.3,354.3 "
   id="polygon98" /> </g> <g
   id="g104"> <polygon
   class="st3"
   points="557.1,371.2 555.6,372.1 555.6,353.6 557.1,352.7 "
   id="polygon102" /> </g> <g
   id="g108"> <polygon
   class="st3"
   points="559.5,369.8 558.7,370.2 558.7,351.8 559.5,351.3 "
   id="polygon106" /> </g> </g> <g
   id="g210"> <g
   id="g124"> <g
   id="g114"> <path
   class="st3"
   d="m 572.1,347.3 c -0.1,0.1 -0.3,0.1 -0.4,0.1 -0.1,0 -0.2,0 -0.3,-0.1 -0.2,-0.1 -0.3,-0.3 -0.3,-0.6 0,-0.3 0.1,-0.7 0.3,-1 0.1,-0.2 0.2,-0.3 0.3,-0.4 0.4,-0.4 0.8,-0.5 1.1,-0.4 0.1,0 0.2,0.1 0.2,0.2 0.1,0.1 0.1,0.3 0.1,0.4 0,0.2 0,0.3 -0.1,0.5 -0.1,0.2 -0.1,0.3 -0.2,0.5 -0.1,0.2 -0.2,0.3 -0.3,0.4 -0.2,0.2 -0.3,0.3 -0.4,0.4 z"
   id="path112" /> </g> <g
   id="g118"> <path
   class="st3"
   d="m 629.3,313.1 c 0,-0.7 0.4,-1.4 1,-1.7 v 0 c 0.5,-0.3 1,-0.1 1,0.6 v 0 c 0,0.6 -0.5,1.4 -1,1.7 v 0 c -0.6,0.3 -1,0 -1,-0.6 z m -2,1.1 c 0,-0.7 0.4,-1.4 1,-1.7 v 0 c 0.5,-0.3 1,-0.1 1,0.6 v 0 c 0,0.6 -0.5,1.4 -1,1.7 v 0 c -0.6,0.4 -1,0.1 -1,-0.6 z m -2,1.2 c 0,-0.7 0.5,-1.4 1,-1.7 v 0 c 0.6,-0.3 1,-0.1 1,0.6 v 0 c 0,0.6 -0.5,1.4 -1,1.7 v 0 c -0.6,0.3 -1,0 -1,-0.6 z m -2.1,1.2 c 0,-0.7 0.5,-1.4 1,-1.7 v 0 c 0.6,-0.3 1,-0.1 1,0.6 v 0 c 0,0.6 -0.4,1.4 -1,1.7 v 0 c -0.5,0.3 -1,0 -1,-0.6 z m -2,1.1 c 0,-0.7 0.5,-1.4 1,-1.7 v 0 c 0.6,-0.3 1,-0.1 1,0.6 v 0 c 0,0.6 -0.4,1.4 -1,1.7 v 0 c -0.5,0.3 -1,0.1 -1,-0.6 z m -2,1.2 c 0,-0.7 0.5,-1.4 1,-1.7 v 0 c 0.6,-0.3 1,-0.1 1,0.6 v 0 c 0,0.6 -0.4,1.4 -1,1.7 v 0 c -0.5,0.3 -1,0 -1,-0.6 z m -2,1.1 c 0,-0.7 0.4,-1.4 1,-1.7 v 0 c 0.5,-0.3 1,-0.1 1,0.6 v 0 c 0,0.6 -0.5,1.4 -1,1.7 v 0 c -0.5,0.3 -1,0.1 -1,-0.6 z m -2,1.2 c 0,-0.7 0.4,-1.4 1,-1.7 v 0 c 0.5,-0.3 1,-0.1 1,0.6 v 0 c 0,0.6 -0.5,1.4 -1,1.7 v 0 c -0.5,0.3 -1,0 -1,-0.6 z m -2,1.2 c 0,-0.7 0.5,-1.4 1,-1.7 v 0 c 0.6,-0.3 1,-0.1 1,0.6 v 0 c 0,0.6 -0.5,1.4 -1,1.7 v 0 c -0.5,0.3 -1,0 -1,-0.6 z m -2,1.1 c 0,-0.7 0.5,-1.4 1,-1.7 v 0 c 0.6,-0.3 1,-0.1 1,0.6 v 0 c 0,0.6 -0.4,1.4 -1,1.7 v 0 c -0.5,0.3 -1,0.1 -1,-0.6 z m -2,1.2 c 0,-0.7 0.5,-1.4 1,-1.7 v 0 c 0.6,-0.3 1,-0.1 1,0.6 v 0 c 0,0.6 -0.4,1.4 -1,1.7 v 0 c -0.5,0.3 -1,0 -1,-0.6 z m -2,1.1 c 0,-0.7 0.5,-1.4 1,-1.7 v 0 c 0.6,-0.3 1,-0.1 1,0.6 v 0 c 0,0.6 -0.4,1.4 -1,1.7 v 0 c -0.5,0.3 -1,0.1 -1,-0.6 z m -2,1.2 c 0,-0.7 0.4,-1.4 1,-1.7 v 0 c 0.5,-0.3 1,-0.1 1,0.6 v 0 c 0,0.6 -0.5,1.4 -1,1.7 v 0 c -0.6,0.3 -1,0 -1,-0.6 z m -2,1.2 c 0,-0.7 0.5,-1.4 1,-1.7 v 0 c 0.5,-0.3 1,-0.1 1,0.6 v 0 c 0,0.6 -0.5,1.4 -1,1.7 v 0 c -0.6,0.3 -1,0 -1,-0.6 z m -2,1.1 c 0,-0.7 0.5,-1.4 1,-1.7 v 0 c 0.6,-0.3 1,-0.1 1,0.6 v 0 c 0,0.6 -0.4,1.4 -1,1.7 v 0 c -0.6,0.3 -1,0.1 -1,-0.6 z m -2,1.2 c 0,-0.7 0.5,-1.4 1,-1.7 v 0 c 0.6,-0.3 1,-0.1 1,0.6 v 0 c 0,0.6 -0.4,1.4 -1,1.7 v 0 c -0.6,0.3 -1,0 -1,-0.6 z m -2,1.1 c 0,-0.7 0.5,-1.4 1,-1.7 v 0 c 0.6,-0.3 1,-0.1 1,0.6 v 0 c 0,0.6 -0.4,1.4 -1,1.7 v 0 c -0.6,0.3 -1,0.1 -1,-0.6 z m -2,1.2 c 0,-0.7 0.4,-1.4 1,-1.7 v 0 c 0.5,-0.3 1,-0.1 1,0.6 v 0 c 0,0.6 -0.5,1.4 -1,1.7 v 0 c -0.6,0.3 -1,0 -1,-0.6 z m -2,1.2 c 0,-0.7 0.4,-1.4 1,-1.7 v 0 c 0.5,-0.3 1,-0.1 1,0.6 v 0 c 0,0.6 -0.5,1.4 -1,1.7 v 0 c -0.6,0.3 -1,0 -1,-0.6 z m -2.1,1.1 c 0,-0.7 0.5,-1.4 1,-1.7 v 0 c 0.5,-0.3 1,-0.1 1,0.6 v 0 c 0,0.6 -0.5,1.4 -1,1.7 v 0 c -0.5,0.3 -1,0 -1,-0.6 z m -2,1.2 c 0,-0.7 0.5,-1.4 1,-1.7 v 0 c 0.5,-0.3 1,-0.1 1,0.6 v 0 c 0,0.6 -0.4,1.4 -1,1.7 v 0 c -0.5,0.3 -1,0 -1,-0.6 z m -2,1.1 c 0,-0.7 0.5,-1.4 1,-1.7 v 0 c 0.6,-0.3 1,-0.1 1,0.6 v 0 c 0,0.6 -0.4,1.4 -1,1.7 v 0 c -0.5,0.3 -1,0.1 -1,-0.6 z m -2,1.2 c 0,-0.7 0.5,-1.4 1,-1.7 v 0 c 0.6,-0.3 1,-0.1 1,0.6 v 0 c 0,0.6 -0.4,1.4 -1,1.7 v 0 c -0.5,0.3 -1,0 -1,-0.6 z m -2,1.1 c 0,-0.7 0.4,-1.4 1,-1.7 v 0 c 0.5,-0.3 1,-0.1 1,0.6 v 0 c 0,0.6 -0.5,1.4 -1,1.7 v 0 c -0.5,0.3 -1,0.1 -1,-0.6 z m -2,1.2 c 0,-0.7 0.4,-1.4 1,-1.7 v 0 c 0.5,-0.3 1,-0.1 1,0.6 v 0 c 0,0.6 -0.5,1.4 -1,1.7 v 0 c -0.6,0.3 -1,0 -1,-0.6 z m -2,1.2 c 0,-0.7 0.5,-1.4 1,-1.7 v 0 c 0.5,-0.3 1,-0.1 1,0.6 v 0 c 0,0.6 -0.5,1.4 -1,1.7 v 0 c -0.6,0.3 -1,0 -1,-0.6 z m -2,1.1 c 0,-0.7 0.5,-1.4 1,-1.7 v 0 c 0.5,-0.3 1,-0.1 1,0.6 v 0 c 0,0.6 -0.4,1.4 -1,1.7 v 0 c -0.6,0.3 -1,0.1 -1,-0.6 z m -2,1.2 c 0,-0.7 0.5,-1.4 1,-1.7 v 0 c 0.5,-0.3 1,-0.1 1,0.6 v 0 c 0,0.6 -0.4,1.4 -1,1.7 v 0 c -0.6,0.3 -1,0 -1,-0.6 z m -2,1.1 c 0,-0.7 0.5,-1.4 1,-1.7 v 0 c 0.6,-0.3 1,-0.1 1,0.6 v 0 c 0,0.6 -0.4,1.4 -1,1.7 v 0 c -0.6,0.3 -1,0.1 -1,-0.6 z"
   id="path116" /> </g> <g
   id="g122"> <path
   class="st3"
   d="m 632.3,312.5 c -0.1,0.1 -0.3,0.1 -0.4,0.1 -0.1,0 -0.2,0 -0.3,-0.1 -0.2,-0.1 -0.3,-0.3 -0.3,-0.6 0,-0.3 0.1,-0.7 0.3,-1 0.4,-0.6 1,-1 1.4,-0.8 0.2,0.1 0.3,0.3 0.3,0.6 0,0.3 -0.1,0.7 -0.3,1 -0.2,0.4 -0.5,0.7 -0.7,0.8 z"
   id="path120" /> </g> </g> <g
   id="g138"> <g
   id="g128"> <path
   class="st3"
   d="m 572.1,352.1 c -0.3,0.2 -0.5,0.2 -0.7,0.1 -0.1,0 -0.2,-0.1 -0.2,-0.2 -0.1,-0.1 -0.1,-0.3 -0.1,-0.4 0,-0.3 0.1,-0.7 0.3,-1 0.1,-0.2 0.2,-0.3 0.3,-0.4 0.4,-0.4 0.8,-0.5 1.1,-0.4 0.2,0.1 0.3,0.3 0.3,0.6 0,0.3 -0.1,0.6 -0.3,1 -0.2,0.3 -0.5,0.6 -0.7,0.7 z"
   id="path126" /> </g> <g
   id="g132"> <path
   class="st3"
   d="m 623.1,321.6 c 0,0.6 -0.5,1.4 -1,1.7 v 0 c -0.5,0.3 -1,0.1 -1,-0.5 v 0 c 0,0.6 -0.5,1.3 -1,1.7 v 0 c -0.5,0.3 -1,0.1 -1,-0.6 v 0 c 0,-0.6 0.5,-1.4 1,-1.7 v 0 c 0.5,-0.3 1,-0.1 1,0.5 v 0 c 0,-0.6 0.5,-1.3 1,-1.7 v 0 c 0.5,-0.3 1,-0.1 1,0.5 v 0 c 0,-0.6 0.5,-1.3 1,-1.7 v 0 c 0.5,-0.3 1,-0.1 1,0.6 v 0 c 0,0.7 -0.5,1.4 -1,1.7 v 0 c -0.5,0.3 -0.9,0.1 -1,-0.5 z m -6,3.4 c 0,0.6 -0.5,1.3 -1,1.7 v 0 c -0.5,0.3 -1,0.1 -1,-0.5 v 0 c 0,0.6 -0.5,1.3 -1,1.6 v 0 c -0.5,0.3 -1,0.1 -1,-0.5 v 0 c 0,0.6 -0.5,1.3 -1,1.7 v 0 c -0.5,0.3 -1,0.1 -1,-0.5 v 0 c 0,0.6 -0.5,1.4 -1,1.7 v 0 c -0.5,0.3 -1,0.1 -1,-0.5 v 0 c 0,0.6 -0.5,1.4 -1,1.7 v 0 c -0.5,0.3 -1,0.1 -1,-0.5 v 0 c 0,0.6 -0.5,1.3 -1,1.7 v 0 c -0.5,0.3 -1,0.1 -1,-0.5 v 0 c 0,0.6 -0.5,1.4 -1,1.7 v 0 c -0.5,0.3 -1,0.1 -1,-0.5 v 0 c 0,0.6 -0.5,1.3 -1,1.7 v 0 c -0.5,0.3 -1,0.1 -1,-0.6 v 0 c 0,-0.6 0.5,-1.4 1,-1.7 v 0 c 0.5,-0.3 1,-0.1 1,0.5 v 0 c 0,-0.6 0.5,-1.3 1,-1.7 v 0 c 0.5,-0.3 1,-0.1 1,0.5 v 0 c 0,-0.6 0.5,-1.3 1,-1.7 v 0 c 0.5,-0.3 1,-0.1 1,0.5 v 0 c 0,-0.6 0.5,-1.3 1,-1.7 v 0 c 0.5,-0.3 1,-0.1 1,0.5 v 0 c 0,-0.6 0.5,-1.4 1,-1.7 v 0 c 0.5,-0.3 1,-0.1 1,0.5 v 0 c 0,-0.6 0.5,-1.3 1,-1.7 v 0 c 0.5,-0.3 1,-0.1 1,0.5 v 0 c 0,-0.6 0.5,-1.3 1,-1.7 v 0 c 0.5,-0.3 0.9,-0.1 1,0.5 v 0 c 0,-0.6 0.5,-1.3 1,-1.7 v 0 c 0.5,-0.3 1,-0.1 1,0.5 v 0 c 0.1,-0.6 0.5,-1.3 1,-1.7 v 0 c 0.6,-0.3 1,-0.1 1,0.6 v 0 c 0,0.7 -0.4,1.4 -1,1.7 v 0 c -0.5,0.5 -0.9,0.2 -1,-0.4 z m -18,10.5 c 0,0.6 -0.5,1.3 -1,1.7 v 0 c -0.5,0.3 -0.9,0.1 -1,-0.5 v 0 c 0,0.6 -0.5,1.3 -1,1.6 v 0 c -0.5,0.3 -1,0.1 -1,-0.5 v 0 c 0,0.6 -0.5,1.3 -1,1.7 v 0 c -0.5,0.3 -1,0.1 -1,-0.5 v 0 c 0,0.6 -0.5,1.4 -1,1.7 v 0 c -0.5,0.3 -1,0.1 -1,-0.5 v 0 c 0,0.6 -0.5,1.3 -1,1.7 v 0 c -0.5,0.3 -1,0.1 -1,-0.5 v 0 c 0,0.6 -0.5,1.4 -1,1.7 v 0 c -0.5,0.3 -1,0.1 -1,-0.5 v 0 c 0,0.6 -0.5,1.4 -1,1.7 v 0 c -0.5,0.3 -1,0.1 -1,-0.5 v 0 c 0,0.6 -0.5,1.3 -1,1.7 v 0 c -0.5,0.3 -1,0.1 -1,-0.5 v 0 c 0,0.6 -0.5,1.3 -1,1.7 v 0 c -0.5,0.3 -1,0.1 -1,-0.6 v 0 c 0,-0.6 0.5,-1.4 1,-1.7 v 0 c 0.5,-0.3 1,-0.1 1,0.5 v 0 c 0,-0.6 0.5,-1.3 1,-1.7 v 0 c 0.5,-0.3 1,-0.1 1,0.5 v 0 c 0,-0.6 0.5,-1.3 1,-1.7 v 0 c 0.5,-0.3 1,-0.1 1,0.5 v 0 c 0,-0.6 0.5,-1.3 1,-1.7 v 0 c 0.5,-0.3 1,-0.1 1,0.5 v 0 c 0,-0.6 0.5,-1.3 1,-1.7 v 0 c 0.5,-0.3 1,-0.1 1,0.5 v 0 c 0,-0.6 0.5,-1.4 1,-1.7 v 0 c 0.5,-0.3 1,-0.1 1,0.5 v 0 c 0,-0.6 0.5,-1.3 1,-1.7 v 0 c 0.5,-0.3 1,-0.1 1,0.5 v 0 c 0,-0.6 0.5,-1.4 1,-1.7 v 0 c 0.5,-0.3 0.9,-0.1 1,0.5 v 0 c 0.1,-0.6 0.5,-1.4 1,-1.7 v 0 c 0.5,-0.3 1,-0.1 1,0.5 v 0 c 0.1,-0.6 0.5,-1.3 1,-1.7 v 0 c 0.5,-0.3 1,-0.1 1,0.6 v 0 c 0,0.7 -0.4,1.4 -1,1.7 v 0 c -0.5,0.4 -1,0.1 -1,-0.4 z m -20,11.5 c -0.1,0.6 -0.5,1.4 -1,1.7 v 0 c -0.5,0.3 -1,0.1 -1,-0.6 v 0 c 0,-0.6 0.4,-1.4 1,-1.7 v 0 c 0.5,-0.3 1,-0.1 1,0.5 v 0 c 0,-0.6 0.5,-1.3 1,-1.7 v 0 c 0.5,-0.3 1,-0.1 1,0.6 v 0 c 0,0.7 -0.4,1.4 -1,1.7 v 0 c -0.6,0.3 -1,0.1 -1,-0.5 z m -4,2.3 c 0,0.6 -0.5,1.4 -1,1.7 v 0 c -0.5,0.3 -1,0.1 -1,-0.6 v 0 c 0,-0.6 0.5,-1.4 1,-1.7 v 0 c 0.5,-0.3 1,-0.1 1,0.5 v 0 c 0,-0.6 0.5,-1.3 1,-1.7 v 0 c 0.5,-0.3 1,-0.1 1,0.6 v 0 c 0,0.7 -0.5,1.4 -1,1.7 v 0 c -0.5,0.3 -1,0.1 -1,-0.5 z"
   id="path130" /> </g> <g
   id="g136"> <path
   class="st3"
   d="m 626.1,320.9 c -0.3,0.2 -0.5,0.2 -0.7,0.1 -0.2,-0.1 -0.3,-0.3 -0.3,-0.6 0,-0.2 0,-0.3 0.1,-0.5 0.1,-0.2 0.1,-0.3 0.2,-0.5 0.3,-0.5 0.7,-0.8 1.1,-0.9 0.1,0 0.2,0 0.3,0.1 0.2,0.1 0.3,0.4 0.3,0.7 0,0.3 -0.1,0.7 -0.3,1 -0.1,0.2 -0.2,0.3 -0.3,0.4 -0.1,0 -0.2,0.1 -0.4,0.2 z"
   id="path134" /> </g> </g> <g
   id="g152"> <g
   id="g142"> <path
   class="st3"
   d="m 572.1,357 c -0.3,0.2 -0.5,0.2 -0.7,0.1 -0.1,0 -0.2,-0.1 -0.2,-0.2 -0.1,-0.1 -0.1,-0.3 -0.1,-0.4 0,-0.2 0,-0.3 0.1,-0.5 0.1,-0.2 0.1,-0.3 0.2,-0.5 0.1,-0.2 0.2,-0.3 0.3,-0.4 0.4,-0.4 0.8,-0.5 1.1,-0.4 0.1,0.1 0.2,0.1 0.2,0.3 0.1,0.1 0.1,0.2 0.1,0.4 0,0.3 -0.1,0.6 -0.3,1 -0.2,0.2 -0.5,0.4 -0.7,0.6 z"
   id="path140" /> </g> <g
   id="g146"> <path
   class="st3"
   d="m 627.4,323.9 c 0,-0.6 0.5,-1.4 1,-1.7 v 0 c 0.6,-0.3 1,-0.1 1,0.6 v 0 c 0,0.6 -0.4,1.4 -1,1.7 v 0 c -0.6,0.3 -1,0 -1,-0.6 z m -2,1.2 c 0,-0.6 0.4,-1.4 1,-1.7 v 0 c 0.5,-0.3 1,-0.1 1,0.6 v 0 c 0,0.6 -0.5,1.4 -1,1.7 v 0 c -0.6,0.3 -1,0 -1,-0.6 z m -2.1,1.1 c 0,-0.6 0.5,-1.4 1,-1.7 v 0 c 0.5,-0.3 1,-0.1 1,0.6 v 0 c 0,0.6 -0.4,1.4 -1,1.7 v 0 c -0.5,0.3 -1,0.1 -1,-0.6 z m -2,1.2 c 0,-0.6 0.5,-1.4 1,-1.7 v 0 c 0.6,-0.3 1,-0.1 1,0.6 v 0 c 0,0.6 -0.4,1.4 -1,1.7 v 0 c -0.5,0.3 -1,0 -1,-0.6 z m -2,1.1 c 0,-0.6 0.4,-1.4 1,-1.7 v 0 c 0.5,-0.3 1,-0.1 1,0.6 v 0 c 0,0.6 -0.5,1.4 -1,1.7 v 0 c -0.5,0.3 -1,0.1 -1,-0.6 z m -2,1.2 c 0,-0.6 0.5,-1.4 1,-1.7 v 0 c 0.5,-0.3 1,-0.1 1,0.6 v 0 c 0,0.6 -0.4,1.4 -1,1.7 v 0 c -0.5,0.3 -1,0 -1,-0.6 z m -2,1.2 c 0,-0.6 0.5,-1.4 1,-1.7 v 0 c 0.5,-0.3 1,-0.1 1,0.6 v 0 c 0,0.6 -0.5,1.4 -1,1.7 v 0 c -0.5,0.3 -1,0 -1,-0.6 z m -2,1.1 c 0,-0.6 0.4,-1.4 1,-1.7 v 0 c 0.5,-0.3 1,-0.1 1,0.6 v 0 c 0,0.6 -0.5,1.4 -1,1.7 v 0 c -0.6,0.3 -1,0 -1,-0.6 z m -2,1.2 c 0,-0.6 0.5,-1.4 1,-1.7 v 0 c 0.6,-0.3 1,-0.1 1,0.6 v 0 c 0,0.6 -0.4,1.4 -1,1.7 v 0 c -0.6,0.3 -1,0 -1,-0.6 z m -2,1.1 c 0,-0.6 0.4,-1.4 1,-1.7 v 0 c 0.5,-0.3 1,-0.1 1,0.6 v 0 c 0,0.6 -0.5,1.4 -1,1.7 v 0 c -0.6,0.3 -1,0.1 -1,-0.6 z m -2,1.2 c 0,-0.6 0.4,-1.4 1,-1.7 v 0 c 0.5,-0.3 1,-0.1 1,0.6 v 0 c 0,0.6 -0.5,1.4 -1,1.7 v 0 c -0.6,0.3 -1,0 -1,-0.6 z m -2.1,1.2 c 0,-0.6 0.5,-1.4 1,-1.7 v 0 c 0.6,-0.3 1,-0.1 1,0.6 v 0 c 0,0.6 -0.4,1.4 -1,1.7 v 0 c -0.5,0.3 -1,0 -1,-0.6 z m -2,1.1 c 0,-0.6 0.4,-1.4 1,-1.7 v 0 c 0.5,-0.3 1,-0.1 1,0.6 v 0 c 0,0.6 -0.5,1.4 -1,1.7 v 0 c -0.5,0.3 -1,0.1 -1,-0.6 z m -2,1.2 c 0,-0.6 0.5,-1.4 1,-1.7 v 0 c 0.5,-0.3 1,-0.1 1,0.6 v 0 c 0,0.6 -0.4,1.4 -1,1.7 v 0 c -0.5,0.3 -1,0 -1,-0.6 z m -2,1.2 c 0,-0.6 0.5,-1.4 1,-1.7 v 0 c 0.6,-0.3 1,-0.1 1,0.6 v 0 c 0,0.6 -0.4,1.4 -1,1.7 v 0 c -0.5,0.2 -1,0 -1,-0.6 z m -2,1.1 c 0,-0.6 0.4,-1.4 1,-1.7 v 0 c 0.5,-0.3 1,-0.1 1,0.6 v 0 c 0,0.6 -0.5,1.4 -1,1.7 v 0 c -0.5,0.3 -1,0 -1,-0.6 z m -2,1.2 c 0,-0.6 0.5,-1.4 1,-1.7 v 0 c 0.5,-0.3 1,-0.1 1,0.6 v 0 c 0,0.6 -0.4,1.4 -1,1.7 v 0 c -0.6,0.3 -1,0 -1,-0.6 z m -2,1.1 c 0,-0.6 0.5,-1.4 1,-1.7 v 0 c 0.5,-0.3 1,-0.1 1,0.6 v 0 c 0,0.6 -0.5,1.4 -1,1.7 v 0 c -0.6,0.3 -1,0.1 -1,-0.6 z m -2,1.2 c 0,-0.6 0.4,-1.4 1,-1.7 v 0 c 0.5,-0.3 1,-0.1 1,0.6 v 0 c 0,0.6 -0.5,1.4 -1,1.7 v 0 c -0.6,0.3 -1,0 -1,-0.6 z m -2,1.2 c 0,-0.6 0.5,-1.4 1,-1.7 v 0 c 0.6,-0.3 1,-0.1 1,0.6 v 0 c 0,0.6 -0.4,1.4 -1,1.7 v 0 c -0.6,0.2 -1,0 -1,-0.6 z m -2,1.1 c 0,-0.6 0.4,-1.4 1,-1.7 v 0 c 0.5,-0.3 1,-0.1 1,0.6 v 0 c 0,0.6 -0.5,1.4 -1,1.7 v 0 c -0.6,0.3 -1,0 -1,-0.6 z m -2,1.2 c 0,-0.6 0.4,-1.4 1,-1.7 v 0 c 0.6,-0.3 1,-0.1 1,0.6 v 0 c 0,0.6 -0.5,1.4 -1,1.7 v 0 c -0.6,0.3 -1,0 -1,-0.6 z m -2.1,1.1 c 0,-0.6 0.5,-1.4 1,-1.7 v 0 c 0.6,-0.3 1,-0.1 1,0.6 v 0 c 0,0.6 -0.4,1.4 -1,1.7 v 0 c -0.5,0.3 -1,0.1 -1,-0.6 z m -2,1.2 c 0,-0.6 0.4,-1.4 1,-1.7 v 0 c 0.5,-0.3 1,-0.1 1,0.6 v 0 c 0,0.6 -0.5,1.4 -1,1.7 v 0 c -0.5,0.3 -1,0 -1,-0.6 z m -2,1.2 c 0,-0.6 0.5,-1.4 1,-1.7 v 0 c 0.5,-0.3 1,-0.1 1,0.6 v 0 c 0,0.6 -0.4,1.4 -1,1.7 v 0 c -0.5,0.3 -1,0 -1,-0.6 z m -2,1.1 c 0,-0.6 0.5,-1.4 1,-1.7 v 0 c 0.6,-0.3 1,-0.1 1,0.6 v 0 c 0,0.6 -0.4,1.4 -1,1.7 v 0 c -0.5,0.3 -1,0 -1,-0.6 z m -2,1.2 c 0,-0.6 0.4,-1.4 1,-1.7 v 0 c 0.5,-0.3 1,-0.1 1,0.6 v 0 c 0,0.6 -0.5,1.4 -1,1.7 v 0 c -0.6,0.3 -1,0 -1,-0.6 z m -2,1.1 c 0,-0.6 0.5,-1.4 1,-1.7 v 0 c 0.5,-0.3 1,-0.1 1,0.6 v 0 c 0,0.6 -0.4,1.4 -1,1.7 v 0 c -0.6,0.3 -1,0.1 -1,-0.6 z"
   id="path144" /> </g> <g
   id="g150"> <path
   class="st3"
   d="m 630.4,323.3 c -0.1,0.1 -0.2,0.1 -0.4,0.1 -0.1,0 -0.2,0 -0.3,-0.1 -0.2,-0.1 -0.3,-0.3 -0.3,-0.6 0,-0.2 0,-0.3 0.1,-0.5 0.1,-0.2 0.1,-0.3 0.2,-0.5 0.4,-0.6 1.1,-1 1.4,-0.8 0.1,0.1 0.2,0.2 0.2,0.3 0.1,0.1 0.1,0.2 0.1,0.4 0,0.1 0,0.3 -0.1,0.5 -0.1,0.2 -0.1,0.3 -0.2,0.5 -0.1,0.2 -0.2,0.3 -0.3,0.4 -0.1,0.1 -0.3,0.2 -0.4,0.3 z"
   id="path148" /> </g> </g> <g
   id="g166"> <g
   id="g156"> <path
   class="st3"
   d="m 572.1,361.8 c -0.1,0.1 -0.3,0.1 -0.4,0.1 -0.1,0 -0.2,0 -0.3,-0.1 -0.2,-0.1 -0.3,-0.3 -0.3,-0.6 0,-0.2 0,-0.3 0.1,-0.5 0.1,-0.2 0.1,-0.3 0.2,-0.5 0.1,-0.2 0.2,-0.3 0.3,-0.4 0.4,-0.4 0.8,-0.6 1.1,-0.4 0.1,0.1 0.2,0.1 0.2,0.3 0.1,0.1 0.1,0.2 0.1,0.4 0,0.1 0,0.3 -0.1,0.5 -0.1,0.2 -0.1,0.4 -0.2,0.5 -0.1,0.2 -0.2,0.3 -0.3,0.4 -0.2,0.1 -0.3,0.2 -0.4,0.3 z"
   id="path154" /> </g> <g
   id="g160"> <path
   class="st3"
   d="m 609.2,339.2 c 0,-0.7 0.5,-1.4 1,-1.7 v 0 c 0.6,-0.3 1,-0.1 1,0.6 v 0 c 0,0.6 -0.4,1.4 -1,1.7 v 0 c -0.5,0.3 -1,0.1 -1,-0.6 z m -2,1.2 c 0,-0.7 0.4,-1.4 1,-1.7 v 0 c 0.5,-0.3 1,-0.1 1,0.6 v 0 c 0,0.6 -0.5,1.4 -1,1.7 v 0 c -0.6,0.3 -1,0 -1,-0.6 z m -2,1.2 c 0,-0.7 0.4,-1.4 1,-1.7 v 0 c 0.5,-0.3 1,-0.1 1,0.6 v 0 c 0,0.6 -0.5,1.4 -1,1.7 v 0 c -0.6,0.3 -1,0 -1,-0.6 z m -2,1.1 c 0,-0.7 0.5,-1.4 1,-1.7 v 0 c 0.6,-0.3 1,-0.1 1,0.6 v 0 c 0,0.6 -0.5,1.4 -1,1.7 v 0 c -0.6,0.3 -1,0 -1,-0.6 z m -2,1.2 c 0,-0.7 0.5,-1.4 1,-1.7 v 0 c 0.6,-0.3 1,-0.1 1,0.6 v 0 c 0,0.6 -0.4,1.4 -1,1.7 v 0 c -0.6,0.3 -1,0 -1,-0.6 z m -2,1.1 c 0,-0.7 0.5,-1.4 1,-1.7 v 0 c 0.6,-0.3 1,-0.1 1,0.6 v 0 c 0,0.6 -0.4,1.4 -1,1.7 v 0 c -0.6,0.3 -1,0.1 -1,-0.6 z m -2,1.2 c 0,-0.7 0.5,-1.4 1,-1.7 v 0 c 0.6,-0.3 1,-0.1 1,0.6 v 0 c 0,0.6 -0.4,1.4 -1,1.7 v 0 c -0.6,0.3 -1,0 -1,-0.6 z m -2,1.1 c 0,-0.7 0.4,-1.4 1,-1.7 v 0 c 0.5,-0.3 1,-0.1 1,0.6 v 0 c 0,0.6 -0.5,1.4 -1,1.7 v 0 c -0.6,0.4 -1,0.1 -1,-0.6 z m -2,1.2 c 0,-0.7 0.4,-1.4 1,-1.7 v 0 c 0.5,-0.3 1,-0.1 1,0.6 v 0 c 0,0.6 -0.5,1.4 -1,1.7 v 0 c -0.6,0.3 -1,0 -1,-0.6 z m -2.1,1.2 c 0,-0.7 0.5,-1.4 1,-1.7 v 0 c 0.6,-0.3 1,-0.1 1,0.6 v 0 c 0,0.6 -0.5,1.4 -1,1.7 v 0 c -0.5,0.3 -1,0 -1,-0.6 z m -2,1.1 c 0,-0.7 0.5,-1.4 1,-1.7 v 0 c 0.5,-0.3 1,-0.1 1,0.6 v 0 c 0,0.6 -0.4,1.4 -1,1.7 v 0 c -0.5,0.3 -1,0.1 -1,-0.6 z m -2,1.2 c 0,-0.7 0.5,-1.4 1,-1.7 v 0 c 0.6,-0.3 1,-0.1 1,0.6 v 0 c 0,0.6 -0.4,1.4 -1,1.7 v 0 c -0.5,0.3 -1,0 -1,-0.6 z m -2,1.1 c 0,-0.7 0.5,-1.4 1,-1.7 v 0 c 0.6,-0.3 1,-0.1 1,0.6 v 0 c 0,0.6 -0.4,1.4 -1,1.7 v 0 c -0.5,0.3 -1,0.1 -1,-0.6 z m -2,1.2 c 0,-0.7 0.4,-1.4 1,-1.7 v 0 c 0.5,-0.3 1,-0.1 1,0.6 v 0 c 0,0.6 -0.5,1.4 -1,1.7 v 0 c -0.5,0.3 -1,0 -1,-0.6 z m -2,1.2 c 0,-0.7 0.4,-1.4 1,-1.7 v 0 c 0.5,-0.3 1,-0.1 1,0.6 v 0 c 0,0.6 -0.5,1.4 -1,1.7 v 0 c -0.6,0.3 -1,0 -1,-0.6 z m -2,1.1 c 0,-0.7 0.4,-1.4 1,-1.7 v 0 c 0.5,-0.3 1,-0.1 1,0.6 v 0 c 0,0.6 -0.5,1.4 -1,1.7 v 0 c -0.6,0.3 -1,0 -1,-0.6 z m -2,1.2 c 0,-0.7 0.5,-1.4 1,-1.7 v 0 c 0.5,-0.3 1,-0.1 1,0.6 v 0 c 0,0.6 -0.5,1.4 -1,1.7 v 0 c -0.6,0.3 -1,0 -1,-0.6 z m -2,1.1 c 0,-0.7 0.5,-1.4 1,-1.7 v 0 c 0.6,-0.3 1,-0.1 1,0.6 v 0 c 0,0.6 -0.4,1.4 -1,1.7 v 0 c -0.6,0.3 -1,0.1 -1,-0.6 z m -2,1.2 c 0,-0.7 0.5,-1.4 1,-1.7 v 0 c 0.6,-0.3 1,-0.1 1,0.6 v 0 c 0,0.6 -0.4,1.4 -1,1.7 v 0 c -0.6,0.3 -1,0 -1,-0.6 z"
   id="path158" /> </g> <g
   id="g164"> <path
   class="st3"
   d="m 612.2,338.7 c -0.1,0.1 -0.3,0.1 -0.4,0.1 -0.1,0 -0.2,0 -0.3,-0.1 -0.2,-0.1 -0.3,-0.3 -0.3,-0.6 0,-0.3 0.1,-0.7 0.3,-1 0.4,-0.6 1.1,-1 1.4,-0.8 0.2,0.1 0.3,0.4 0.3,0.7 0,0.1 0,0.3 -0.1,0.5 -0.1,0.2 -0.1,0.3 -0.2,0.5 -0.1,0.2 -0.2,0.3 -0.3,0.4 -0.1,0.1 -0.2,0.2 -0.4,0.3 z"
   id="path162" /> </g> </g> <g
   id="g180"> <g
   id="g170"> <path
   class="st3"
   d="m 572.1,366.7 c -0.1,0.1 -0.3,0.1 -0.4,0.1 -0.1,0 -0.2,0 -0.3,-0.1 -0.1,0 -0.2,-0.1 -0.2,-0.3 -0.1,-0.1 -0.1,-0.2 -0.1,-0.4 0,-0.3 0.1,-0.6 0.3,-1 0.1,-0.2 0.2,-0.3 0.3,-0.4 0.4,-0.4 0.8,-0.6 1.1,-0.4 0.2,0.1 0.3,0.3 0.3,0.6 0,0.3 -0.1,0.7 -0.3,1 -0.1,0.2 -0.2,0.3 -0.3,0.4 -0.2,0.3 -0.3,0.4 -0.4,0.5 z"
   id="path168" /> </g> <g
   id="g174"> <path
   class="st3"
   d="m 628.4,333.2 c -0.1,0.6 -0.5,1.3 -1,1.5 v 0 c -0.5,0.3 -0.9,0.1 -1,-0.4 v 0 c -0.1,0.6 -0.5,1.3 -1,1.6 v 0 c -0.5,0.3 -0.9,0.1 -1,-0.4 v 0 c -0.1,0.6 -0.5,1.3 -1,1.5 v 0 c -0.5,0.3 -0.9,0.1 -1,-0.4 v 0 c -0.1,0.6 -0.5,1.3 -1,1.5 v 0 c -0.5,0.3 -0.9,0.1 -1,-0.4 v 0 c -0.1,0.6 -0.5,1.3 -1,1.5 v 0 c -0.5,0.3 -0.9,0.1 -1,-0.4 v 0 c -0.1,0.6 -0.5,1.3 -1,1.6 v 0 c -0.5,0.3 -0.9,0.1 -1,-0.4 v 0 c -0.1,0.6 -0.5,1.2 -1,1.5 v 0 c -0.5,0.3 -0.9,0.1 -1,-0.4 v 0 c -0.1,0.6 -0.5,1.3 -1,1.6 v 0 c -0.5,0.3 -0.9,0.1 -1,-0.4 v 0 c -0.1,0.6 -0.5,1.3 -1,1.5 v 0 c -0.5,0.3 -0.9,0.1 -1,-0.4 v 0 c -0.1,0.6 -0.5,1.3 -1,1.5 v 0 c -0.5,0.3 -0.9,0.1 -1,-0.4 v 0 c -0.1,0.6 -0.5,1.3 -1,1.5 v 0 c -0.5,0.3 -0.9,0.1 -1,-0.4 v 0 c -0.1,0.6 -0.5,1.3 -1,1.6 v 0 c -0.5,0.3 -0.9,0.1 -1,-0.4 v 0 c -0.1,0.6 -0.5,1.2 -1,1.5 v 0 c -0.5,0.3 -0.9,0.1 -1,-0.4 v 0 c -0.1,0.6 -0.5,1.2 -1,1.5 v 0 c -0.5,0.3 -0.9,0.1 -1,-0.4 v 0 c -0.1,0.6 -0.5,1.3 -1,1.5 v 0 c -0.5,0.3 -0.9,0.1 -1,-0.4 v 0 c -0.1,0.6 -0.5,1.3 -1,1.6 v 0 c -0.5,0.3 -0.9,0.1 -1,-0.4 v 0 c -0.1,0.6 -0.5,1.3 -1,1.5 v 0 c -0.5,0.3 -0.9,0.1 -1,-0.4 v 0 c -0.1,0.6 -0.5,1.3 -1,1.6 v 0 c -0.5,0.3 -0.9,0.1 -1,-0.4 v 0 c -0.1,0.6 -0.5,1.3 -1,1.5 v 0 c -0.5,0.3 -0.9,0.1 -1,-0.4 v 0 c -0.1,0.6 -0.5,1.2 -1,1.5 v 0 c -0.5,0.3 -0.9,0.1 -1,-0.4 v 0 c -0.1,0.6 -0.5,1.3 -1,1.5 v 0 c -0.5,0.3 -0.9,0.1 -1,-0.4 v 0 c -0.1,0.6 -0.5,1.3 -1,1.6 v 0 c -0.5,0.3 -0.9,0.1 -1,-0.4 v 0 c -0.1,0.6 -0.5,1.3 -1,1.5 v 0 c -0.5,0.3 -0.9,0.1 -1,-0.4 v 0 c -0.1,0.6 -0.5,1.3 -1,1.5 v 0 c -0.5,0.3 -0.9,0.1 -1,-0.4 v 0 c -0.1,0.6 -0.5,1.3 -1,1.5 v 0 c -0.5,0.3 -0.9,0.1 -1,-0.4 v 0 c -0.1,0.6 -0.5,1.3 -1,1.6 v 0 c -0.5,0.3 -0.9,0.1 -1,-0.4 v 0 c -0.1,0.6 -0.5,1.2 -1,1.5 v 0 c -0.5,0.3 -0.9,0.1 -1,-0.4 v 0 c -0.1,0.6 -0.5,1.2 -1,1.5 v 0 c -0.5,0.3 -1,0.1 -1,-0.6 v 0 c 0,-0.7 0.5,-1.4 1,-1.8 v 0 c 0.5,-0.3 0.9,-0.1 1,0.4 v 0 c 0.1,-0.6 0.5,-1.2 1,-1.5 v 0 c 0.5,-0.3 0.9,-0.1 1,0.4 v 0 c 0.1,-0.6 0.5,-1.2 1,-1.5 v 0 c 0.5,-0.3 0.9,-0.1 1,0.4 v 0 c 0.1,-0.6 0.5,-1.3 1,-1.5 v 0 c 0.5,-0.3 0.9,-0.1 1,0.4 v 0 c 0.1,-0.6 0.5,-1.3 1,-1.6 v 0 c 0.5,-0.3 0.9,-0.1 1,0.4 v 0 c 0.1,-0.6 0.5,-1.3 1,-1.5 v 0 c 0.5,-0.3 0.9,-0.1 1,0.4 v 0 c 0.1,-0.6 0.5,-1.3 1,-1.5 v 0 c 0.5,-0.3 0.9,-0.1 1,0.4 v 0 c 0.1,-0.6 0.5,-1.3 1,-1.5 v 0 c 0.5,-0.3 0.9,-0.1 1,0.4 v 0 c 0.1,-0.6 0.5,-1.3 1,-1.5 v 0 c 0.5,-0.3 0.9,-0.1 1,0.4 v 0 c 0.1,-0.6 0.5,-1.2 1,-1.5 v 0 c 0.5,-0.3 0.9,-0.1 1,0.4 v 0 c 0.1,-0.6 0.5,-1.3 1,-1.5 v 0 c 0.5,-0.3 0.9,-0.1 1,0.4 v 0 c 0.1,-0.6 0.5,-1.3 1,-1.5 v 0 c 0.5,-0.3 0.9,-0.1 1,0.4 v 0 c 0.1,-0.6 0.5,-1.3 1,-1.5 v 0 c 0.5,-0.3 0.9,-0.1 1,0.4 v 0 c 0.1,-0.6 0.5,-1.3 1,-1.5 v 0 c 0.5,-0.3 0.9,-0.1 1,0.4 v 0 c 0.1,-0.6 0.5,-1.3 1,-1.5 v 0 c 0.5,-0.3 0.9,-0.1 1,0.4 v 0 c 0.1,-0.6 0.5,-1.2 1,-1.5 v 0 c 0.5,-0.3 0.9,-0.1 1,0.4 v 0 c 0.1,-0.6 0.5,-1.2 1,-1.5 v 0 c 0.5,-0.3 0.9,-0.1 1,0.4 v 0 c 0.1,-0.6 0.5,-1.3 1,-1.5 v 0 c 0.5,-0.3 0.9,-0.1 1,0.4 v 0 c 0.1,-0.6 0.5,-1.3 1,-1.6 v 0 c 0.5,-0.3 0.9,-0.1 1,0.4 v 0 c 0.1,-0.6 0.5,-1.3 1,-1.5 v 0 c 0.5,-0.3 0.9,-0.1 1,0.4 v 0 c 0.1,-0.6 0.5,-1.3 1,-1.5 v 0 c 0.5,-0.3 0.9,-0.1 1,0.4 v 0 c 0.1,-0.6 0.5,-1.3 1,-1.5 v 0 c 0.5,-0.3 0.9,-0.1 1,0.4 v 0 c 0.1,-0.6 0.5,-1.2 1,-1.5 v 0 c 0.5,-0.3 0.9,-0.1 1,0.4 v 0 c 0.1,-0.6 0.5,-1.3 1,-1.5 v 0 c 0.5,-0.3 0.9,-0.1 1,0.4 v 0 c 0.1,-0.6 0.5,-1.3 1,-1.6 v 0 c 0.5,-0.3 0.9,-0.1 1,0.4 v 0 c 0.1,-0.6 0.5,-1.3 1,-1.5 v 0 c 0.5,-0.3 0.9,-0.1 1,0.4 v 0 c 0.1,-0.6 0.5,-1.3 1,-1.5 v 0 c 0.5,-0.3 0.9,-0.1 1,0.4 v 0 c 0.1,-0.6 0.5,-1.3 1,-1.5 v 0 c 0.5,-0.3 0.9,-0.1 1,0.4 v 0 c 0.1,-0.6 0.5,-1.3 1,-1.5 v 0 c 0.6,-0.3 1,-0.1 1,0.6 v 0 c 0,0.6 -0.5,1.4 -1,1.7 v 0 c -0.5,-0.1 -0.9,-0.3 -1,-0.8 z"
   id="path172" /> </g> <g
   id="g178"> <path
   class="st3"
   d="m 631.4,332.4 c -0.3,0.2 -0.5,0.2 -0.7,0.1 -0.2,-0.1 -0.3,-0.3 -0.3,-0.6 0,-0.3 0.1,-0.7 0.3,-1 0.4,-0.6 1,-1 1.4,-0.8 0.2,0.1 0.3,0.4 0.3,0.7 0,0.3 -0.1,0.6 -0.3,1 -0.2,0.2 -0.4,0.5 -0.7,0.6 z"
   id="path176" /> </g> </g> <g
   id="g194"> <g
   id="g184"> <path
   class="st3"
   d="m 572.1,371.5 c -0.3,0.2 -0.5,0.2 -0.7,0.1 -0.1,0 -0.2,-0.1 -0.2,-0.3 -0.1,-0.1 -0.1,-0.2 -0.1,-0.4 0,-0.1 0,-0.3 0.1,-0.5 0.1,-0.2 0.1,-0.4 0.2,-0.5 0.1,-0.2 0.2,-0.3 0.3,-0.4 0.4,-0.4 0.8,-0.6 1.1,-0.4 0.1,0 0.2,0.1 0.2,0.3 0.1,0.1 0.1,0.2 0.1,0.4 0,0.3 -0.1,0.7 -0.3,1 -0.2,0.3 -0.5,0.6 -0.7,0.7 z"
   id="path182" /> </g> <g
   id="g188"> <path
   class="st3"
   d="m 621.9,341.6 c 0,-0.6 0.4,-1.4 1,-1.7 v 0 c 0.5,-0.3 1,-0.1 1,0.6 v 0 c 0,0.6 -0.5,1.4 -1,1.8 v 0 c -0.5,0.2 -1,-0.1 -1,-0.7 z m -2,1.1 c 0,-0.6 0.5,-1.4 1,-1.7 v 0 c 0.5,-0.3 1,-0.1 1,0.6 v 0 c 0,0.6 -0.5,1.4 -1,1.8 v 0 c -0.6,0.3 -1,0 -1,-0.7 z m -2,1.2 c 0,-0.6 0.5,-1.4 1,-1.7 v 0 c 0.6,-0.3 1,-0.1 1,0.6 v 0 c 0,0.6 -0.4,1.4 -1,1.8 v 0 c -0.6,0.2 -1,0 -1,-0.7 z m -2.1,1.2 c 0,-0.6 0.5,-1.4 1,-1.7 v 0 c 0.5,-0.3 1,0 1,0.6 v 0 c 0,0.6 -0.5,1.4 -1,1.8 v 0 c -0.5,0.2 -1,0 -1,-0.7 z m -2,1.2 c 0,-0.6 0.4,-1.4 1,-1.7 v 0 c 0.5,-0.3 1,-0.1 1,0.6 v 0 c 0,0.6 -0.5,1.4 -1,1.8 v 0 c -0.6,0.2 -1,-0.1 -1,-0.7 z m -2,1.1 c 0,-0.6 0.5,-1.4 1,-1.7 v 0 c 0.6,-0.3 1,-0.1 1,0.6 v 0 c 0,0.6 -0.4,1.4 -1,1.8 v 0 c -0.6,0.3 -1,0 -1,-0.7 z m -2.1,1.2 c 0,-0.6 0.5,-1.4 1,-1.7 v 0 c 0.6,-0.3 1,-0.1 1,0.6 v 0 c 0,0.6 -0.5,1.4 -1,1.8 v 0 c -0.5,0.2 -1,0 -1,-0.7 z m -2,1.2 c 0,-0.6 0.4,-1.4 1,-1.7 v 0 c 0.5,-0.3 1,0 1,0.6 v 0 c 0,0.6 -0.5,1.4 -1,1.8 v 0 c -0.6,0.2 -1,-0.1 -1,-0.7 z m -2,1.2 c 0,-0.6 0.5,-1.4 1,-1.7 v 0 c 0.5,-0.3 1,0 1,0.6 v 0 c 0,0.6 -0.5,1.4 -1,1.8 v 0 c -0.6,0.2 -1,-0.1 -1,-0.7 z m -2.1,1.1 c 0,-0.6 0.5,-1.4 1,-1.7 v 0 c 0.6,-0.3 1,-0.1 1,0.6 v 0 c 0,0.6 -0.4,1.4 -1,1.8 v 0 c -0.5,0.3 -1,0 -1,-0.7 z m -2,1.2 c 0,-0.6 0.5,-1.4 1,-1.7 v 0 c 0.5,-0.3 1,0 1,0.6 v 0 c 0,0.6 -0.4,1.4 -1,1.7 v 0 c -0.6,0.3 -1,0.1 -1,-0.6 z m -2,1.2 c 0,-0.6 0.4,-1.4 1,-1.7 v 0 c 0.5,-0.3 1,0 1,0.6 v 0 c 0,0.6 -0.5,1.4 -1,1.8 v 0 c -0.6,0.2 -1,-0.1 -1,-0.7 z m -2.1,1.2 c 0,-0.6 0.4,-1.4 1,-1.7 v 0 c 0.6,-0.3 1,0 1,0.6 v 0 c 0,0.6 -0.4,1.4 -1,1.8 v 0 c -0.5,0.2 -1,-0.1 -1,-0.7 z m -2,1.1 c 0,-0.6 0.5,-1.4 1,-1.7 v 0 c 0.6,-0.3 1,-0.1 1,0.6 v 0 c 0,0.6 -0.5,1.4 -1,1.8 v 0 c -0.6,0.3 -1,0 -1,-0.7 z m -2,1.2 c 0,-0.6 0.4,-1.4 1,-1.7 v 0 c 0.5,-0.3 1,-0.1 1,0.6 v 0 c 0,0.6 -0.5,1.4 -1,1.8 v 0 c -0.6,0.2 -1,0 -1,-0.7 z m -2.1,1.2 c 0,-0.6 0.5,-1.4 1,-1.7 v 0 c 0.6,-0.3 1,-0.1 1,0.6 v 0 c 0,0.6 -0.4,1.4 -1,1.8 v 0 c -0.5,0.2 -1,-0.1 -1,-0.7 z m -2,1.2 c 0,-0.6 0.5,-1.4 1,-1.7 v 0 c 0.6,-0.3 1,0 1,0.6 v 0 c 0,0.6 -0.4,1.4 -1,1.8 v 0 c -0.6,0.2 -1,-0.1 -1,-0.7 z m -2,1.1 c 0,-0.6 0.4,-1.4 1,-1.7 v 0 c 0.5,-0.3 1,-0.1 1,0.6 v 0 c 0,0.6 -0.5,1.4 -1,1.8 v 0 c -0.6,0.3 -1,0 -1,-0.7 z m -2.1,1.2 c 0,-0.6 0.4,-1.4 1,-1.7 v 0 c 0.5,-0.3 1,-0.1 1,0.6 v 0 c 0,0.6 -0.5,1.4 -1,1.8 v 0 c -0.5,0.2 -1,0 -1,-0.7 z m -2,1.2 c 0,-0.6 0.5,-1.4 1,-1.7 v 0 c 0.6,-0.3 1,-0.1 1,0.6 v 0 c 0,0.6 -0.4,1.4 -1,1.8 v 0 c -0.6,0.2 -1,-0.1 -1,-0.7 z m -2.1,1.2 c 0,-0.6 0.5,-1.4 1,-1.7 v 0 c 0.5,-0.3 1,0 1,0.6 v 0 c 0,0.6 -0.5,1.4 -1,1.8 v 0 c -0.5,0.2 -1,-0.1 -1,-0.7 z m -2,1.1 c 0,-0.6 0.4,-1.4 1,-1.7 v 0 c 0.5,-0.3 1,-0.1 1,0.6 v 0 c 0,0.6 -0.5,1.4 -1,1.8 v 0 c -0.5,0.3 -1,0 -1,-0.7 z m -2,1.2 c 0,-0.6 0.5,-1.4 1,-1.7 v 0 c 0.6,-0.3 1,-0.1 1,0.6 v 0 c 0,0.6 -0.4,1.4 -1,1.8 v 0 c -0.6,0.2 -1,0 -1,-0.7 z m -2.1,1.2 c 0,-0.6 0.5,-1.4 1,-1.7 v 0 c 0.6,-0.3 1,-0.1 1,0.6 v 0 c 0,0.6 -0.5,1.4 -1,1.8 v 0 c -0.5,0.2 -1,-0.1 -1,-0.7 z m -2,1.2 c 0,-0.6 0.4,-1.4 1,-1.7 v 0 c 0.5,-0.3 1,0 1,0.6 v 0 c 0,0.6 -0.5,1.4 -1,1.8 v 0 c -0.5,0.2 -1,-0.1 -1,-0.7 z"
   id="path186" /> </g> <g
   id="g192"> <path
   class="st3"
   d="m 625,341 c -0.1,0.1 -0.3,0.1 -0.4,0.1 -0.1,0 -0.2,0 -0.3,-0.1 -0.1,-0.1 -0.2,-0.1 -0.2,-0.3 -0.1,-0.1 -0.1,-0.2 -0.1,-0.4 0,-0.2 0,-0.3 0.1,-0.5 0,-0.2 0.1,-0.4 0.2,-0.5 0.4,-0.6 1.1,-1 1.4,-0.8 0.2,0.1 0.3,0.3 0.3,0.7 0,0.3 -0.1,0.6 -0.3,1 -0.1,0.2 -0.2,0.3 -0.3,0.4 -0.2,0.2 -0.3,0.3 -0.4,0.4 z"
   id="path190" /> </g> </g> <g
   id="g208"> <g
   id="g198"> <path
   class="st3"
   d="m 572.1,376.4 c -0.3,0.2 -0.5,0.2 -0.7,0.1 -0.1,-0.1 -0.2,-0.1 -0.2,-0.3 -0.1,-0.1 -0.1,-0.2 -0.1,-0.4 0,-0.1 0,-0.3 0.1,-0.5 0.1,-0.2 0.1,-0.4 0.2,-0.5 0.1,-0.2 0.2,-0.3 0.3,-0.4 0.4,-0.4 0.8,-0.6 1.1,-0.4 0.1,0 0.2,0.1 0.2,0.3 0.1,0.1 0.1,0.2 0.1,0.4 0,0.2 0,0.3 -0.1,0.5 -0.1,0.2 -0.1,0.3 -0.2,0.5 -0.2,0.2 -0.5,0.5 -0.7,0.7 z"
   id="path196" /> </g> <g
   id="g202"> <path
   class="st3"
   d="m 601.4,358.3 c 0,-0.6 0.5,-1.4 1,-1.7 v 0 c 0.5,-0.3 1,-0.1 1,0.6 v 0 c 0,0.6 -0.5,1.4 -1,1.7 v 0 c -0.5,0.3 -1,0 -1,-0.6 z m -2,1.1 c 0,-0.6 0.5,-1.4 1,-1.7 v 0 c 0.6,-0.3 1,-0.1 1,0.6 v 0 c 0,0.6 -0.4,1.4 -1,1.7 v 0 c -0.5,0.3 -1,0.1 -1,-0.6 z m -2,1.2 c 0,-0.6 0.5,-1.4 1,-1.7 v 0 c 0.6,-0.3 1,0 1,0.6 v 0 c 0,0.6 -0.4,1.4 -1,1.7 v 0 c -0.6,0.3 -1,0.1 -1,-0.6 z m -2.1,1.2 c 0,-0.6 0.5,-1.4 1,-1.7 v 0 c 0.6,-0.3 1,-0.1 1,0.6 v 0 c 0,0.6 -0.4,1.4 -1,1.7 v 0 c -0.5,0.3 -1,0 -1,-0.6 z m -2,1.1 c 0,-0.6 0.5,-1.4 1,-1.7 v 0 c 0.5,-0.3 1,0 1,0.6 v 0 c 0,0.6 -0.5,1.4 -1,1.7 v 0 c -0.5,0.3 -1,0.1 -1,-0.6 z m -2,1.2 c 0,-0.6 0.4,-1.4 1,-1.7 v 0 c 0.5,-0.3 1,-0.1 1,0.6 v 0 c 0,0.6 -0.5,1.4 -1,1.7 v 0 c -0.6,0.3 -1,0.1 -1,-0.6 z m -2,1.2 c 0,-0.6 0.4,-1.4 1,-1.7 v 0 c 0.5,-0.3 1,-0.1 1,0.6 v 0 c 0,0.6 -0.5,1.4 -1,1.7 v 0 c -0.6,0.3 -1,0 -1,-0.6 z m -2,1.1 c 0,-0.6 0.4,-1.4 1,-1.7 v 0 c 0.5,-0.3 1,0 1,0.6 v 0 c 0,0.6 -0.5,1.4 -1,1.7 v 0 c -0.6,0.3 -1,0.1 -1,-0.6 z m -2.1,1.2 c 0,-0.6 0.4,-1.4 1,-1.7 v 0 c 0.5,-0.3 1,0 1,0.6 v 0 c 0,0.6 -0.4,1.4 -1,1.7 v 0 c -0.5,0.3 -1,0.1 -1,-0.6 z m -2,1.2 c 0,-0.6 0.5,-1.4 1,-1.7 v 0 c 0.5,-0.3 1,0 1,0.6 v 0 c 0,0.6 -0.5,1.4 -1,1.7 v 0 c -0.5,0.3 -1,0 -1,-0.6 z m -2,1.2 c 0,-0.6 0.5,-1.4 1,-1.7 v 0 c 0.6,-0.3 1,0 1,0.6 v 0 c 0,0.6 -0.4,1.4 -1,1.7 v 0 c -0.6,0.2 -1,0 -1,-0.6 z m -2,1.1 c 0,-0.6 0.5,-1.4 1,-1.7 v 0 c 0.6,-0.3 1,-0.1 1,0.6 v 0 c 0,0.6 -0.4,1.4 -1,1.7 v 0 c -0.6,0.3 -1,0.1 -1,-0.6 z m -2.1,1.2 c 0,-0.6 0.5,-1.4 1,-1.7 v 0 c 0.6,-0.3 1,0 1,0.6 v 0 c 0,0.6 -0.4,1.4 -1,1.7 v 0 c -0.5,0.3 -1,0 -1,-0.6 z m -2,1.2 c 0,-0.6 0.5,-1.4 1,-1.7 v 0 c 0.6,-0.3 1,-0.1 1,0.6 v 0 c 0,0.6 -0.4,1.4 -1,1.7 v 0 c -0.5,0.2 -1,0 -1,-0.6 z m -2,1.1 c 0,-0.6 0.5,-1.4 1,-1.7 v 0 c 0.5,-0.3 1,-0.1 1,0.6 v 0 c 0,0.6 -0.5,1.4 -1,1.7 v 0 c -0.5,0.3 -1,0.1 -1,-0.6 z"
   id="path200" /> </g> <g
   id="g206"> <path
   class="st3"
   d="m 604.5,357.7 c -0.1,0.1 -0.3,0.1 -0.4,0.1 -0.1,0 -0.2,0 -0.3,-0.1 -0.2,-0.1 -0.3,-0.3 -0.3,-0.7 0,-0.3 0.1,-0.7 0.3,-1 0.4,-0.6 1.1,-1 1.4,-0.8 0.2,0.1 0.3,0.3 0.3,0.6 0,0.3 -0.1,0.7 -0.3,1 -0.1,0.2 -0.2,0.3 -0.3,0.4 -0.2,0.3 -0.3,0.4 -0.4,0.5 z"
   id="path204" /> </g> </g> </g> </g> </g> <g
   id="g278"> <polygon
   class="st4"
   points="441.8,646.1 188.7,500 188.7,207.7 441.8,353.8 "
   id="polygon216"
   style="fill:#ebbd8c;fill-opacity:1" /> <g
   id="g276"> <g
   id="g240"> <g
   id="g234"> <g
   id="g224"> <g
   id="g220"> <path
   class="st5"
   d="m 234.6,500.1 c -3.7,-2.2 -6.8,-7.4 -6.8,-11.7 0,-0.8 0.5,-1.1 1.2,-0.7 0.7,0.4 1.2,1.3 1.2,2.1 0,2.8 1.9,6.1 4.3,7.5 2.4,1.4 4.3,0.3 4.3,-2.5 v -38.9 c 0,-0.8 0.5,-1.1 1.2,-0.7 0.7,0.4 1.2,1.3 1.2,2.1 v 38.9 c 0.2,4.3 -2.8,6 -6.6,3.9 z"
   id="path218" /> </g> <path
   class="st5"
   d="m 265.2,485.7 c -0.7,-1.5 -1.9,-2.9 -3.2,-3.7 -1.3,-0.7 -2.4,-0.7 -3.1,-0.1 -0.7,-1.5 -1.9,-2.8 -3.1,-3.5 -1.3,-0.7 -2.4,-0.7 -3.1,-0.1 -0.7,-1.5 -1.9,-2.8 -3.1,-3.5 -1.2,-0.7 -2.4,-0.7 -3.1,-0.1 -0.7,-1.5 -1.9,-2.8 -3.1,-3.5 -1.3,-0.7 -2.4,-0.7 -3.1,-0.1 -0.7,-1.5 -1.9,-2.8 -3.1,-3.5 -1.3,-0.7 -2.4,-0.7 -3.1,-0.1 -0.7,-1.5 -1.9,-2.8 -3.1,-3.5 -1.2,-0.7 -2.4,-0.7 -3.1,-0.1 -0.7,-1.5 -1.9,-2.8 -3.1,-3.5 -1.3,-0.7 -2.4,-0.7 -3.1,-0.1 -0.7,-1.5 -1.9,-2.8 -3.1,-3.5 -1.1,-0.7 -2.2,-0.7 -2.9,-0.2 3.7,-9.6 13.4,-12.4 24.9,-5.8 11.2,6.6 21,20.8 24.6,34.9 z"
   id="path222" /> </g> <g
   id="g232"> <path
   class="st5"
   d="m 255.1,456.2 c -0.7,1 -2.2,0.6 -3.4,-0.9 -1.2,-1.5 -1.6,-3.5 -0.9,-4.5 0.7,-1 4.3,-0.4 4.3,-0.4 0,0 0.7,4.8 0,5.8 z"
   id="path226" /> <path
   class="st5"
   d="m 263.5,466.7 c -0.7,1 -2.2,0.6 -3.4,-0.9 -1.2,-1.5 -1.6,-3.5 -0.9,-4.5 0.7,-1 4.3,-0.4 4.3,-0.4 0,0 0.7,4.8 0,5.8 z"
   id="path228" /> <path
   class="st5"
   d="m 262.7,456.6 c -0.7,1 -2.2,0.6 -3.4,-0.9 -1.2,-1.5 -1.6,-3.5 -0.9,-4.5 0.7,-1 4.3,-0.4 4.3,-0.4 0,0 0.7,4.8 0,5.8 z"
   id="path230" /> </g> </g> <g
   id="g238"> <path
   class="st5"
   d="m 273,528 -65.5,-37.8 c -0.7,-0.4 -1.2,-1.3 -1.2,-2.1 v -75.7 c 0,-0.8 0.5,-1.1 1.2,-0.7 l 65.5,37.8 c 0.7,0.4 1.2,1.3 1.2,2.1 v 75.7 c 0,0.8 -0.5,1.1 -1.2,0.7 z m -64.3,-39.9 63.1,36.4 v -72.9 l -63.1,-36.4 z"
   id="path236" /> </g> </g> <g
   id="g274"> <g
   id="g244"> <path
   class="st5"
   d="M 350.5,572.8 285,535 c -0.7,-0.4 -1.2,-1.3 -1.2,-2.1 v -75.7 c 0,-0.8 0.5,-1.1 1.2,-0.7 l 65.5,37.8 c 0.7,0.4 1.2,1.3 1.2,2.1 v 75.7 c 0,0.8 -0.5,1.1 -1.2,0.7 z m -64.3,-40 63.1,36.4 V 496.3 L 286.2,460 Z"
   id="path242" /> </g> <g
   id="g272"> <g
   id="g248"> <polygon
   class="st5"
   points="338.5,556.9 297,532.9 297,524.5 338.5,548.5 "
   id="polygon246" /> </g> <g
   id="g270"> <g
   id="g258"> <g
   id="g252"> <polygon
   class="st5"
   points="309.8,528.2 303.3,524.4 303.3,496.3 309.8,500.1 "
   id="polygon250" /> </g> <g
   id="g256"> <polygon
   class="st5"
   points="306.6,482.1 296.8,495.9 316.3,507.1 "
   id="polygon254" /> </g> </g> <g
   id="g268"> <g
   id="g262"> <polygon
   class="st5"
   points="332.2,541.1 325.7,537.3 325.7,509.3 332.2,513 "
   id="polygon260" /> </g> <g
   id="g266"> <polygon
   class="st5"
   points="328.9,495 319.2,508.8 338.6,520 "
   id="polygon264" /> </g> </g> </g> </g> </g> </g> </g> <g
   id="g288"> <polygon
   class="st6"
   points="441.8,353.8 188.7,207.7 441.8,61.5 695,207.7 "
   id="polygon280" /> <g
   id="g284"> <path
   class="st7"
   d="m 188.7,207.7 c 10.7,5.8 21.4,11.7 32.1,17.5 l 31.9,17.9 c 21.2,11.9 42.3,24.1 63.5,36.2 21,12.3 42.1,24.5 63.1,36.9 l 31.4,18.7 c 10.4,6.3 20.9,12.6 31.2,19 -10.7,-5.7 -21.4,-11.7 -32.1,-17.5 l -31.9,-17.8 c -21.2,-11.9 -42.3,-24.1 -63.5,-36.2 -21,-12.3 -42.1,-24.5 -63.1,-36.9 L 219.9,226.8 C 209.5,220.3 199,214.1 188.7,207.7 Z"
   id="path282" /> </g> <polygon
   class="st8"
   points="335,292.1 295.5,269.3 548.7,123.2 588.2,146 "
   id="polygon286" /> </g> </g> <polygon
   class="st9"
   points="335,351.3 295.5,328.5 295.5,269.3 335,292.1 "
   id="polygon292"
   transform="translate(-113.7,-61.5)" /> <g
   id="g384"
   transform="translate(-113.7,-61.5)"> <g
   id="g302"
   style="fill:#008080;stroke:#04c835;stroke-width:30;stroke-miterlimit:4;stroke-dasharray:none;stroke-opacity:1"
   transform="matrix(1,0,0,-1,0,721.40513)"> <g
   id="g300"
   style="fill:#0000ff;fill-opacity:1;stroke:#04c835;stroke-width:30;stroke-miterlimit:4;stroke-dasharray:none;stroke-opacity:1"> <line
   class="st10"
   x1="501.79999"
   y1="1.5"
   x2="506.20001"
   y2="4"
   id="line294"
   style="fill:#0000ff;fill-opacity:1;stroke:#04c835;stroke-width:30;stroke-miterlimit:4;stroke-dasharray:none;stroke-opacity:1" /> <line
   class="st11"
   x1="514.59998"
   y1="8.8999996"
   x2="746.40002"
   y2="142.7"
   id="line296"
   style="fill:#0000ff;fill-opacity:1;stroke:#04c835;stroke-width:30;stroke-miterlimit:4;stroke-dasharray:30, 30;stroke-dashoffset:0;stroke-opacity:1" /> <line
   class="st10"
   x1="750.70001"
   y1="145.2"
   x2="755"
   y2="147.7"
   id="line298"
   style="fill:#0000ff;fill-opacity:1;stroke:#04c835;stroke-width:30;stroke-miterlimit:4;stroke-dasharray:none;stroke-opacity:1" /> </g> </g> <g
   id="g312"
   style="stroke:#0480c8;stroke-width:30;stroke-miterlimit:4;stroke-dasharray:none;stroke-opacity:1"
   transform="matrix(1,0,0,-1,0,721.40513)"> <g
   id="g310"
   style="stroke:#0480c8;stroke-width:30;stroke-miterlimit:4;stroke-dasharray:none;stroke-opacity:1"> <line
   class="st10"
   x1="381.79999"
   y1="1.5"
   x2="377.5"
   y2="4"
   id="line304"
   style="stroke:#0480c8;stroke-width:30;stroke-miterlimit:4;stroke-dasharray:none;stroke-opacity:1" /> <line
   class="st12"
   x1="369.10001"
   y1="8.8999996"
   x2="137.2"
   y2="142.7"
   id="line306"
   style="stroke:#0480c8;stroke-width:30;stroke-miterlimit:4;stroke-dasharray:30, 30;stroke-dashoffset:0;stroke-opacity:1" /> <line
   class="st10"
   x1="133"
   y1="145.2"
   x2="128.7"
   y2="147.7"
   id="line308"
   style="stroke:#0480c8;stroke-width:30;stroke-miterlimit:4;stroke-dasharray:none;stroke-opacity:1" /> </g> </g> <g
   id="g322"
   style="stroke-width:30;stroke-miterlimit:4;stroke-dasharray:none"> <g
   id="g320"
   style="stroke-width:30;stroke-miterlimit:4;stroke-dasharray:none"> <line
   class="st10"
   x1="775"
   y1="207.7"
   x2="775"
   y2="212.7"
   id="line314"
   style="stroke-width:30;stroke-miterlimit:4;stroke-dasharray:none" /> <line
   class="st12"
   x1="775"
   y1="222.39999"
   x2="775"
   y2="490.10001"
   id="line316"
   style="stroke-width:30;stroke-miterlimit:4;stroke-dasharray:30, 30;stroke-dashoffset:0" /> <line
   class="st10"
   x1="775"
   y1="495"
   x2="775"
   y2="500"
   id="line318"
   style="stroke-width:30;stroke-miterlimit:4;stroke-dasharray:none" /> </g> </g> <g
   id="g332"
   style="stroke:#0480c8;stroke-width:30;stroke-miterlimit:4;stroke-dasharray:none;stroke-opacity:1"
   transform="matrix(1,0,0,-1,0,721.40513)"> <g
   id="g330"
   style="stroke:#0480c8;stroke-width:30;stroke-miterlimit:4;stroke-dasharray:none;stroke-opacity:1"> <line
   class="st10"
   x1="128.7"
   y1="147.7"
   x2="132.2"
   y2="151.2"
   id="line324"
   style="stroke:#0480c8;stroke-width:30;stroke-miterlimit:4;stroke-dasharray:none;stroke-opacity:1" /> <line
   class="st13"
   x1="138.8"
   y1="157.8"
   x2="161.89999"
   y2="180.8"
   id="line326"
   style="stroke:#0480c8;stroke-width:30;stroke-miterlimit:4;stroke-dasharray:none;stroke-opacity:1" /> <line
   class="st10"
   x1="165.10001"
   y1="184.10001"
   x2="168.7"
   y2="187.7"
   id="line328"
   style="stroke:#0480c8;stroke-width:30;stroke-miterlimit:4;stroke-dasharray:none;stroke-opacity:1" /> </g> </g> <g
   id="g342"
   style="stroke:#0480c8;stroke-width:30;stroke-miterlimit:4;stroke-dasharray:none;stroke-opacity:1"
   transform="matrix(1,0,0,-1,0,721.40513)"> <g
   id="g340"
   style="stroke:#0480c8;stroke-width:30;stroke-miterlimit:4;stroke-dasharray:none;stroke-opacity:1"> <line
   class="st10"
   x1="381.79999"
   y1="1.5"
   x2="385.39999"
   y2="5"
   id="line334"
   style="stroke:#0480c8;stroke-width:30;stroke-miterlimit:4;stroke-dasharray:none;stroke-opacity:1" /> <line
   class="st13"
   x1="392"
   y1="11.6"
   x2="415"
   y2="34.700001"
   id="line336"
   style="stroke:#0480c8;stroke-width:30;stroke-miterlimit:4;stroke-dasharray:none;stroke-opacity:1" /> <line
   class="st10"
   x1="418.29999"
   y1="38"
   x2="421.79999"
   y2="41.5"
   id="line338"
   style="stroke:#0480c8;stroke-width:30;stroke-miterlimit:4;stroke-dasharray:none;stroke-opacity:1" /> </g> </g> <g
   id="g352"
   style="fill:#008080;stroke:#04c835;stroke-width:30;stroke-miterlimit:4;stroke-dasharray:none;stroke-opacity:1"
   transform="matrix(1,0,0,-1,0,721.40513)"> <g
   id="g350"
   style="fill:#008080;stroke:#04c835;stroke-width:30;stroke-miterlimit:4;stroke-dasharray:none;stroke-opacity:1"> <line
   class="st10"
   x1="501.79999"
   y1="1.5"
   x2="498.29999"
   y2="5"
   id="line344"
   style="fill:#008080;stroke:#04c835;stroke-width:30;stroke-miterlimit:4;stroke-dasharray:none;stroke-opacity:1" /> <line
   class="st13"
   x1="491.70001"
   y1="11.6"
   x2="468.70001"
   y2="34.700001"
   id="line346"
   style="fill:#008080;stroke:#04c835;stroke-width:30;stroke-miterlimit:4;stroke-dasharray:none;stroke-opacity:1" /> <line
   class="st10"
   x1="465.39999"
   y1="38"
   x2="461.79999"
   y2="41.5"
   id="line348"
   style="fill:#008080;stroke:#04c835;stroke-width:30;stroke-miterlimit:4;stroke-dasharray:none;stroke-opacity:1" /> </g> </g> <g
   id="g362"
   style="fill:#008080;stroke:#04c835;stroke-width:30;stroke-miterlimit:4;stroke-dasharray:none;stroke-opacity:1"
   transform="matrix(1,0,0,-1,0,721.40513)"> <g
   id="g360"
   style="fill:#008080;stroke:#04c835;stroke-width:30;stroke-miterlimit:4;stroke-dasharray:none;stroke-opacity:1"> <line
   class="st10"
   x1="755"
   y1="147.7"
   x2="751.5"
   y2="151.2"
   id="line354"
   style="fill:#008080;stroke:#04c835;stroke-width:30;stroke-miterlimit:4;stroke-dasharray:none;stroke-opacity:1" /> <line
   class="st13"
   x1="744.90002"
   y1="157.8"
   x2="721.79999"
   y2="180.8"
   id="line356"
   style="fill:#008080;stroke:#04c835;stroke-width:30;stroke-miterlimit:4;stroke-dasharray:none;stroke-opacity:1" /> <line
   class="st10"
   x1="718.5"
   y1="184.10001"
   x2="715"
   y2="187.7"
   id="line358"
   style="fill:#008080;stroke:#04c835;stroke-width:30;stroke-miterlimit:4;stroke-dasharray:none;stroke-opacity:1" /> </g> </g> <g
   id="g372"
   style="stroke-width:30;stroke-miterlimit:4;stroke-dasharray:none"> <g
   id="g370"
   style="stroke-width:30;stroke-miterlimit:4;stroke-dasharray:none"> <line
   class="st10"
   x1="775"
   y1="207.7"
   x2="770"
   y2="207.7"
   id="line364"
   style="stroke-width:30;stroke-miterlimit:4;stroke-dasharray:none" /> <line
   class="st14"
   x1="762"
   y1="207.7"
   x2="734"
   y2="207.7"
   id="line366"
   style="stroke-width:30;stroke-miterlimit:4;stroke-dasharray:none;stroke-dashoffset:0" /> <line
   class="st10"
   x1="730"
   y1="207.7"
   x2="725"
   y2="207.7"
   id="line368"
   style="stroke-width:30;stroke-miterlimit:4;stroke-dasharray:none" /> </g> </g> <g
   id="g382"
   style="stroke-width:30;stroke-miterlimit:4;stroke-dasharray:none"> <g
   id="g380"
   style="stroke-width:30;stroke-miterlimit:4;stroke-dasharray:none"> <line
   class="st10"
   x1="775"
   y1="500"
   x2="770"
   y2="500"
   id="line374"
   style="stroke-width:30;stroke-miterlimit:4;stroke-dasharray:none" /> <line
   class="st14"
   x1="762"
   y1="500"
   x2="734"
   y2="500"
   id="line376"
   style="stroke-width:30;stroke-miterlimit:4;stroke-dasharray:none" /> <line
   class="st10"
   x1="730"
   y1="500"
   x2="725"
   y2="500"
   id="line378"
   style="stroke-width:30;stroke-miterlimit:4;stroke-dasharray:none" /> </g> </g> </g>    <g
   id="g436"
   transform="translate(-113.7,-61.5)"> <polygon
   class="st5"
   points="570,499 570,499.7 566.4,502.1 566.4,496.3 567.1,495.8 567.1,500.9 "
   id="polygon392" /> <path
   class="st5"
   d="m 575.3,493.9 c 0,-0.8 0.2,-1.5 0.6,-2.2 0.3,-0.5 0.8,-1 1.3,-1.4 0.6,-0.4 1,-0.5 1.4,-0.4 0.4,0.1 0.5,0.5 0.5,1.2 0,0.5 -0.1,1 -0.3,1.4 -0.2,0.4 -0.4,0.8 -0.7,1.2 -0.3,0.4 -0.6,0.7 -1,0.9 -0.6,0.4 -1.1,0.5 -1.4,0.4 -0.2,0 -0.4,-0.4 -0.4,-1.1 z m 0.8,-0.5 c 0,0.5 0.1,0.9 0.3,1 0.2,0.1 0.5,0 0.9,-0.2 0.3,-0.2 0.6,-0.6 0.9,-1 0.2,-0.4 0.3,-0.9 0.3,-1.5 0,-0.5 -0.1,-0.8 -0.3,-1 -0.2,-0.1 -0.5,0 -0.9,0.2 -0.3,0.2 -0.7,0.6 -0.9,1 -0.2,0.5 -0.3,1 -0.3,1.5 z"
   id="path394" /> <path
   class="st5"
   d="m 585.3,489.6 0.7,-0.4 c 0,0.2 0.1,0.3 0.2,0.3 0.2,0 0.4,-0.1 0.7,-0.3 0.3,-0.2 0.6,-0.4 0.8,-0.7 0.2,-0.3 0.3,-0.5 0.4,-0.8 0,-0.2 0.1,-0.5 0.1,-1 -0.3,0.6 -0.7,1 -1.2,1.3 -0.6,0.4 -1,0.5 -1.4,0.3 -0.3,-0.2 -0.5,-0.6 -0.5,-1.2 0,-0.4 0.1,-0.8 0.2,-1.3 0.1,-0.4 0.3,-0.8 0.6,-1.2 0.3,-0.4 0.6,-0.7 1,-0.9 0.5,-0.3 0.9,-0.4 1.2,-0.2 V 483 l 0.7,-0.4 v 3.7 c 0,0.7 -0.1,1.2 -0.2,1.5 -0.1,0.4 -0.3,0.7 -0.6,1.1 -0.3,0.4 -0.6,0.7 -1.1,0.9 -0.5,0.3 -0.9,0.5 -1.2,0.5 -0.2,0 -0.4,-0.2 -0.4,-0.7 z m 0.6,-2.9 c 0,0.5 0.1,0.9 0.3,1 0.2,0.1 0.5,0 0.8,-0.2 0.3,-0.2 0.6,-0.5 0.8,-0.9 0.2,-0.4 0.3,-0.8 0.3,-1.4 0,-0.5 -0.1,-0.8 -0.3,-0.9 -0.2,-0.1 -0.5,-0.1 -0.8,0.2 -0.3,0.2 -0.6,0.5 -0.8,0.9 -0.2,0.4 -0.3,0.8 -0.3,1.3 z"
   id="path396" /> <path
   class="st5"
   d="m 595.3,477.7 v -0.8 l 0.7,-0.5 v 0.8 z m 0,5 v -4.2 L 596,478 v 4.2 z"
   id="path398" /> <path
   class="st5"
   d="m 619.9,461.2 v -0.8 l 0.7,-0.5 v 0.8 z m 0,5 V 462 l 0.7,-0.5 v 4.2 z"
   id="path400" /> <path
   class="st5"
   d="M 602.3,476.6 603,476 c 0,0.3 0.1,0.4 0.3,0.4 0.2,0 0.4,-0.1 0.7,-0.3 0.3,-0.2 0.6,-0.4 0.7,-0.7 0.1,-0.2 0.2,-0.4 0.2,-0.6 0,-0.2 -0.1,-0.2 -0.2,-0.2 -0.1,0 -0.3,0.1 -0.7,0.3 -0.5,0.2 -0.9,0.3 -1.1,0.4 -0.2,0 -0.3,0 -0.5,-0.1 -0.1,-0.1 -0.1,-0.2 -0.1,-0.5 0,-0.3 0,-0.4 0.1,-0.6 0.1,-0.2 0.2,-0.4 0.3,-0.6 0.1,-0.2 0.3,-0.3 0.5,-0.5 0.2,-0.2 0.4,-0.4 0.6,-0.5 0.3,-0.2 0.6,-0.3 0.9,-0.4 0.3,-0.1 0.4,-0.1 0.5,0 0.1,0.1 0.2,0.2 0.3,0.5 l -0.7,0.6 c 0,-0.2 -0.1,-0.3 -0.3,-0.3 -0.1,0 -0.4,0.1 -0.6,0.3 -0.3,0.2 -0.5,0.4 -0.7,0.6 -0.2,0.2 -0.2,0.4 -0.2,0.5 0,0.1 0,0.2 0.1,0.2 0.1,0 0.1,0 0.3,0 0.1,0 0.3,-0.1 0.6,-0.3 0.5,-0.2 0.8,-0.3 1.1,-0.4 0.2,0 0.3,0 0.5,0.1 0.1,0.1 0.2,0.3 0.2,0.5 0,0.2 -0.1,0.5 -0.2,0.8 -0.1,0.3 -0.3,0.6 -0.6,0.9 -0.3,0.3 -0.5,0.5 -0.9,0.8 -0.5,0.4 -1,0.5 -1.2,0.5 -0.2,0 -0.5,-0.4 -0.6,-0.8 z"
   id="path402" /> <path
   class="st5"
   d="m 613.7,469.6 0.1,0.6 c -0.2,0.2 -0.4,0.3 -0.5,0.4 -0.3,0.2 -0.5,0.3 -0.6,0.3 -0.1,0 -0.2,0 -0.3,-0.1 -0.1,-0.1 -0.1,-0.3 -0.1,-0.8 v -2.4 l -0.5,0.3 v -0.5 l 0.5,-0.3 v -1 l 0.7,-0.9 v 1.5 l 0.7,-0.5 v 0.5 l -0.7,0.5 v 2.5 c 0,0.2 0,0.3 0,0.4 l 0.1,0.1 c 0.1,0 0.1,0 0.3,-0.1 0.1,-0.3 0.2,-0.3 0.3,-0.5 z"
   id="path404" /> <path
   class="st5"
   d="m 630.3,457.6 0.7,-0.4 c -0.1,0.5 -0.3,1 -0.6,1.5 -0.3,0.5 -0.7,0.9 -1.2,1.2 -0.6,0.4 -1,0.5 -1.4,0.4 -0.3,-0.1 -0.5,-0.6 -0.5,-1.3 0,-0.5 0.1,-0.9 0.2,-1.3 0.1,-0.4 0.4,-0.8 0.7,-1.2 0.3,-0.4 0.6,-0.7 1,-0.9 0.5,-0.3 0.8,-0.4 1.1,-0.4 0.3,0 0.5,0.2 0.5,0.6 l -0.7,0.6 c -0.1,-0.2 -0.2,-0.4 -0.3,-0.4 -0.2,0 -0.4,0 -0.6,0.2 -0.3,0.2 -0.7,0.6 -0.9,1 -0.2,0.4 -0.3,0.9 -0.3,1.4 0,0.5 0.1,0.9 0.3,1 0.2,0.1 0.5,0 0.8,-0.2 0.3,-0.2 0.5,-0.4 0.7,-0.7 0.3,-0.4 0.4,-0.7 0.5,-1.1 z"
   id="path406" /> <path
   class="st5"
   d="m 636.2,453.9 0.7,-0.6 c 0,0.3 0.1,0.4 0.3,0.4 0.2,0 0.4,-0.1 0.7,-0.3 0.3,-0.2 0.6,-0.4 0.7,-0.7 0.1,-0.2 0.2,-0.4 0.2,-0.6 0,-0.2 -0.1,-0.2 -0.2,-0.2 -0.1,0 -0.3,0.1 -0.7,0.3 -0.5,0.2 -0.9,0.3 -1.1,0.4 -0.2,0 -0.3,0 -0.5,-0.1 -0.1,-0.1 -0.1,-0.2 -0.1,-0.5 0,-0.2 0,-0.4 0.1,-0.6 0.1,-0.2 0.2,-0.4 0.3,-0.6 0.1,-0.2 0.3,-0.3 0.5,-0.5 0.2,-0.2 0.4,-0.4 0.6,-0.5 0.3,-0.2 0.6,-0.3 0.9,-0.4 0.3,-0.1 0.4,-0.1 0.5,0 0.1,0.1 0.2,0.2 0.3,0.5 l -0.7,0.6 c 0,-0.2 -0.1,-0.3 -0.3,-0.3 -0.1,0 -0.4,0.1 -0.6,0.3 -0.3,0.2 -0.5,0.4 -0.7,0.6 -0.1,0.2 -0.2,0.4 -0.2,0.5 0,0.1 0,0.2 0.1,0.2 0.1,0 0.1,0 0.3,0 0.1,0 0.3,-0.1 0.6,-0.3 0.5,-0.2 0.8,-0.3 1.1,-0.4 0.2,0 0.3,0 0.5,0.1 0.1,0.1 0.2,0.3 0.2,0.5 0,0.2 -0.1,0.5 -0.2,0.8 -0.1,0.3 -0.3,0.6 -0.6,0.9 -0.3,0.3 -0.5,0.5 -0.9,0.8 -0.5,0.4 -1,0.5 -1.2,0.5 -0.4,-0.2 -0.6,-0.4 -0.6,-0.8 z"
   id="path408" /> <path
   class="st5"
   d="m 527.1,534.5 c -3.7,0.2 -5.3,-3.1 -5.1,-8.5 l -1.6,1 c -0.2,7.7 2.7,11.8 8.5,10.1 8.9,-2.6 21.4,-18 29.7,-35.7 l -3.1,2.1 c -8.9,17.1 -21.2,30.6 -28.4,31 z"
   id="path410" /> <path
   class="st5"
   d="m 554.2,472.5 c 2,-1.3 3.9,-2 5.5,-2.1 3.6,-0.2 5.3,2.9 5.1,8.3 l 1.6,-1 c 0.1,-7.5 -2.8,-11.5 -8.5,-9.8 -8.8,2.6 -21.3,17.8 -29.5,35.3 l 3.1,-2.1 c 6.8,-13.1 15.7,-24.1 22.7,-28.6 z"
   id="path412" /> <path
   class="st5"
   d="m 555.2,476.8 c 3.5,-2.6 6.5,-3 9,-1.2 -1.8,-4.5 -5.5,-4.9 -10.9,-1.2 -6.7,4.5 -12,12.1 -15.9,22.7 l 6.9,-4.6 c 1.9,-7 5.6,-12.3 10.9,-15.7 z"
   id="path414" /> <path
   class="st5"
   d="m 533.9,530.6 c 6.7,-4.5 12,-12.1 15.9,-22.7 l -6.9,4.6 c -2,7.1 -5.6,12.3 -11,15.8 -3.5,2.6 -6.5,3 -9,1.2 1.9,4.5 5.6,4.9 11,1.1 z"
   id="path416" /> <path
   class="st5"
   d="m 507.1,526 c 0,-1.1 0.2,-2.5 0.5,-3.9 0.4,-2 1.1,-3.9 2,-5.8 0.9,-1.9 2.1,-3.6 3.5,-5.3 1.4,-1.6 3,-3.1 4.7,-4.3 2.4,-1.6 4.3,-2.1 5.8,-1.6 1.5,0.5 2.2,2 2.2,4.4 0,2 -0.5,4.3 -1.4,6.8 -1,2.5 -2.2,4.9 -3.9,7 -1.6,2.1 -3.5,3.9 -5.5,5.2 -1.8,1.2 -3.3,1.8 -4.5,1.8 -1.2,0 -2.1,-0.4 -2.6,-1.3 -0.6,-0.7 -0.8,-1.7 -0.8,-3 z m 3.8,-2.7 c 0,1.3 0.4,2.2 1.2,2.5 0.8,0.4 1.9,0.1 3.2,-0.8 1.1,-0.7 2.1,-1.8 3.1,-3.1 1,-1.3 1.8,-3 2.5,-4.8 0.6,-1.8 1,-3.5 1,-4.8 0,-1.5 -0.4,-2.4 -1.2,-2.8 -0.8,-0.3 -1.8,-0.1 -3.1,0.8 -1.9,1.3 -3.5,3.2 -4.7,5.9 -1.3,2.6 -2,5 -2,7.1 z"
   id="path418" /> <path
   class="st5"
   d="m 534.9,509.7 3.7,-1.9 c -0.6,2 -1.5,3.9 -2.7,5.5 -1.2,1.6 -2.5,3 -4.1,4 -1.8,1.2 -3.2,1.6 -4.2,1.2 -1,-0.4 -1.6,-1.5 -1.6,-3.3 0,-1.5 0.3,-3.2 1,-4.9 0.6,-1.8 1.6,-3.5 2.9,-5.1 1.3,-1.6 2.7,-2.9 4.2,-3.9 1.6,-1.1 2.9,-1.5 3.9,-1.3 1,0.2 1.5,1 1.6,2.3 L 536,505 c -0.1,-0.7 -0.3,-1.1 -0.7,-1.2 -0.4,-0.1 -0.9,0.1 -1.5,0.5 -0.7,0.5 -1.4,1.2 -2,2.2 -0.6,1 -1.1,2.1 -1.4,3.4 -0.3,1.3 -0.5,2.5 -0.5,3.4 0,0.8 0.2,1.3 0.6,1.5 0.4,0.2 0.9,0.1 1.5,-0.3 0.6,-0.4 1.2,-1 1.7,-1.8 0.4,-1 0.9,-1.9 1.2,-3 z"
   id="path420" /> <path
   class="st5"
   d="m 552.7,497.1 -9.4,6.3 c 0,0.1 0,0.3 0,0.3 0,0.9 0.3,1.5 0.8,1.7 0.5,0.2 1.2,0 1.9,-0.5 1.2,-0.8 2.2,-2.1 2.9,-3.9 l 3.4,-1.7 c -0.7,1.8 -1.5,3.4 -2.6,4.8 -1.1,1.4 -2.3,2.6 -3.7,3.5 -1.9,1.3 -3.4,1.7 -4.6,1.3 -1.2,-0.4 -1.8,-1.6 -1.8,-3.5 0,-1.9 0.5,-4 1.6,-6.1 1.4,-3 3.5,-5.4 6.2,-7.2 1.7,-1.1 3.1,-1.5 4.1,-1.1 1,0.4 1.5,1.5 1.5,3.4 0,1 -0.1,1.9 -0.3,2.7 z m -3.1,-0.1 c 0,-0.2 0,-0.3 0,-0.4 0,-1 -0.2,-1.7 -0.7,-1.8 -0.5,-0.2 -1.1,0 -1.9,0.5 -0.8,0.5 -1.5,1.3 -2.1,2.3 -0.6,1 -1,2.1 -1.2,3.4 z"
   id="path422" /> <path
   class="st5"
   d="m 558.2,489.3 -3.7,2.1 c 0.4,-1.5 1.2,-3 2.2,-4.4 1,-1.4 2.4,-2.7 4.2,-3.8 1.8,-1.2 3.1,-1.7 4,-1.6 0.9,0.2 1.3,0.7 1.3,1.8 0,0.4 0,0.9 -0.1,1.4 -0.1,0.5 -0.3,1.9 -0.8,4.2 -0.4,1.9 -0.5,3.2 -0.5,3.9 0,0.6 0.1,1.2 0.3,1.8 l -3.7,2.5 c -0.1,-0.4 -0.2,-0.9 -0.3,-1.4 -0.5,1 -1.2,1.9 -1.9,2.7 -0.7,0.8 -1.4,1.5 -2.2,1.9 -1.2,0.8 -2.1,1 -2.9,0.8 -0.7,-0.2 -1.1,-1 -1.1,-2.2 0,-1.3 0.4,-2.7 1.2,-4 0.8,-1.4 2.3,-2.8 4.4,-4.4 1.8,-1.3 3,-2.3 3.6,-2.9 0.1,-0.6 0.2,-1.1 0.2,-1.4 0,-0.4 -0.2,-0.6 -0.5,-0.7 -0.3,-0.1 -0.8,0.1 -1.4,0.6 -0.7,0.4 -1.2,1 -1.6,1.5 -0.3,0.4 -0.5,1 -0.7,1.6 z m 3.6,1.1 c -0.2,0.2 -0.5,0.5 -0.9,0.8 -1.9,1.5 -3.1,2.6 -3.7,3.5 -0.4,0.6 -0.6,1.2 -0.6,1.7 0,0.4 0.1,0.7 0.5,0.8 0.3,0.1 0.7,0 1.2,-0.4 0.6,-0.4 1.1,-0.9 1.6,-1.5 0.5,-0.6 0.9,-1.2 1.1,-1.8 0.3,-0.6 0.5,-1.4 0.7,-2.5 z"
   id="path424" /> <path
   class="st5"
   d="m 569.6,477.7 3.6,-2.4 -0.4,2.1 c 0.9,-1.4 1.7,-2.5 2.5,-3.3 0.8,-0.8 1.6,-1.6 2.5,-2.1 1.2,-0.8 2,-1.1 2.7,-0.8 0.7,0.2 1,0.9 1,1.9 0,0.5 -0.1,1.5 -0.4,3.1 l -1.6,9 -3.7,2.5 1.6,-9 c 0.3,-1.4 0.4,-2.1 0.4,-2.4 0,-0.5 -0.1,-0.8 -0.4,-0.8 -0.3,-0.1 -0.7,0.1 -1.2,0.4 -0.5,0.4 -1.2,1 -1.8,1.9 -0.7,0.9 -1.2,1.9 -1.6,2.9 -0.3,0.7 -0.6,2.1 -1,4 l -1.2,6.5 -3.7,2.5 z"
   id="path426" /> <path
   class="st5"
   d="m 603.2,460.7 2.7,-0.2 c -0.3,0.7 -0.6,1.4 -1,2.2 -0.4,0.8 -0.8,1.5 -1.1,2.1 0.5,0.2 1.1,0.4 1.9,0.5 l -2.4,4.1 c -0.3,0 -0.7,0 -1.1,-0.1 -0.5,-0.1 -0.8,-0.2 -1.2,-0.3 -0.6,0.9 -1.4,1.9 -2.4,2.8 -1,1 -2,1.8 -3.1,2.6 -2,1.3 -3.5,1.9 -4.7,1.6 -1.2,-0.3 -1.7,-1.2 -1.7,-2.7 0,-1 0.2,-2 0.7,-3.2 0.5,-1.1 1,-2.3 1.8,-3.3 0.5,-0.8 1.4,-1.9 2.5,-3.3 -0.6,-0.9 -0.8,-1.7 -0.8,-2.7 0,-1.4 0.5,-2.8 1.5,-4.4 1,-1.6 2.3,-2.9 3.9,-4 1.4,-0.9 2.5,-1.3 3.3,-1.1 0.8,0.2 1.2,0.8 1.2,1.8 0,0.8 -0.3,2 -1,3.4 -0.7,1.4 -1.8,3.1 -3.4,5 0.5,0.5 1.1,1 1.9,1.6 0.4,0.4 0.8,0.6 1.1,0.7 0.3,-0.6 0.8,-1.7 1.4,-3.1 z m -7.7,4.7 c -1.7,2 -2.6,3.7 -2.6,5.2 0,0.8 0.3,1.3 0.8,1.5 0.5,0.2 1.2,0 2,-0.6 1,-0.7 2.1,-1.8 3.2,-3.2 -1.3,-0.9 -2.4,-1.8 -3.4,-2.9 z m 1.8,-5.5 c 1,-1.2 1.8,-2.2 2.2,-3.1 0.3,-0.6 0.4,-1.1 0.4,-1.4 0,-0.3 -0.1,-0.6 -0.3,-0.7 -0.2,-0.1 -0.6,0 -1,0.3 -0.5,0.3 -1,0.8 -1.3,1.4 -0.3,0.6 -0.5,1.2 -0.5,1.8 0,0.6 0.1,1.2 0.5,1.7 z"
   id="path428" /> <path
   class="st5"
   d="m 624.1,450.8 -7.6,5.1 -2.3,5.8 -4.1,2.7 10.9,-26.5 4.4,-2.9 3.1,17.1 -3.7,2.5 z m -0.5,-2.9 -1.1,-7 -4.6,10.8 z"
   id="path430" /> <path
   class="st5"
   d="m 632.6,435.5 3.7,-2.5 -2.9,15.9 -3.7,2.5 z m 1.1,-6.1 3.7,-2.5 -0.7,3.9 -3.7,2.5 z"
   id="path432" /> <path
   class="st5"
   d="m 638.6,431.4 3.5,-2.4 -0.5,3.1 c 1.3,-2.9 2.7,-4.9 4.3,-5.9 0.5,-0.4 1.1,-0.6 1.7,-0.8 l -1.4,4.1 c -0.3,0.1 -0.7,0.3 -1.1,0.6 -0.6,0.4 -1.3,1.1 -2,2 -0.7,0.9 -1.2,1.9 -1.6,3 -0.4,1.1 -0.7,2.6 -1.1,4.6 l -0.9,5 -3.7,2.5 z"
   id="path434" /> </g> <g
   id="g43320"
   style="display:inline"
   transform="matrix(0.71025292,0,0,0.71025292,308.69328,3.418593)"><path
     style="fill:#ffd553;fill-opacity:1;stroke:none;stroke-width:1px;stroke-linecap:butt;stroke-linejoin:miter;stroke-opacity:1"
     d="m 170.44375,122.47239 c -1.00231,-26.925896 14.94782,-54.69471 38.56647,-71.616813 l 79.9164,-44.8909931 c 9.21669,-2.9293692 15.00284,-11.3568709 33.96483,1.3325344 l 57.77387,32.5720847 c 7.90673,5.467273 12.21713,14.287305 13.47092,25.956943 l -0.45226,90.623604 c -3.77431,28.24169 -16.87371,51.43327 -39.81105,69.29702 l -120.74151,68.7082 -63.77389,-37.72076 z"
     id="path1386"
     sodipodi:nodetypes="ccccccccccc" /><path
     style="fill:#292929;fill-opacity:1;stroke:none;stroke-width:1px;stroke-linecap:butt;stroke-linejoin:miter;stroke-opacity:1"
     d="m 233.13142,294.45497 0.67989,-135.92254 c -0.0136,-20.37725 11.892,-50.28454 37.18667,-69.227541 l 85.03903,-48.897287 c 13.49936,-6.60235 36.65564,-3.49831 38.09923,25.418544 l -0.45226,90.623604 c -0.45114,20.31042 -17.38102,54.66944 -39.81105,69.29702 z"
     id="path2466"
     sodipodi:nodetypes="cccccccc" /><path
     id="path2466-6"
     style="fill:#ffca40;fill-opacity:1;stroke:none;stroke-width:1px;stroke-linecap:butt;stroke-linejoin:miter;stroke-opacity:1"
     d="m 367.94336,49.519531 c -3.51231,0.117315 -6.83872,1.543249 -9.72371,3.476735 -26.84275,15.434838 -53.6855,30.869677 -80.52824,46.304515 -12.10337,9.268939 -21.46114,21.990549 -26.99805,36.173829 -0.20775,0.56844 -0.55285,1.43957 -0.79337,2.13337 -1.94718,5.47769 -3.40732,11.16564 -3.90194,16.97014 -0.0331,0.42537 -0.094,1.22506 -0.11372,1.7949 -0.17116,8.22457 -0.0997,16.45316 -0.17966,24.67929 -0.15611,30.90184 -0.31223,61.80367 -0.46834,92.7055 34.26888,-19.51194 68.55459,-38.99652 102.79499,-58.55709 6.27374,-4.33011 11.61398,-10.07356 16.15137,-16.25698 6.21141,-8.58605 11.28154,-18.0538 14.57826,-28.14046 1.46742,-4.70925 2.74682,-9.54505 2.89335,-14.5025 0.0611,-1.41572 0.0766,-3.07082 0.072,-4.5789 0.001,-9.81763 0.0958,-19.63546 0.12666,-29.45325 0.0902,-18.87717 0.18,-37.755282 0.24255,-56.631984 -0.33571,-4.480932 -1.30592,-9.228812 -4.39913,-12.66854 -2.45087,-2.642423 -6.24679,-3.632959 -9.75306,-3.448575 z" /><path
     style="fill:#292929;fill-opacity:1;fill-rule:evenodd;stroke:none;stroke-width:3.79087;stroke-opacity:1"
     id="path2490"
     sodipodi:type="arc"
     sodipodi:cx="370.29913"
     sodipodi:cy="165.53891"
     sodipodi:rx="46.177639"
     sodipodi:ry="69.903793"
     sodipodi:start="0"
     sodipodi:end="6.2831679"
     sodipodi:arc-type="slice"
     transform="matrix(1,0,-0.33868129,0.94090116,0,0)"
     inkscape:transform-center-x="-11.799999"
     inkscape:transform-center-y="6.1033015"
     d="m 416.47677,165.53891 a 46.177639,69.903793 0 0 1 -46.17744,69.90379 46.177639,69.903793 0 0 1 -46.17784,-69.90318 46.177639,69.903793 0 0 1 46.17704,-69.904403 46.177639,69.903793 0 0 1 46.17824,69.902573 l -46.17764,0.001 z" /><rect
     style="fill:#eaeaea;fill-opacity:1;fill-rule:evenodd;stroke:none;stroke-width:3.61852;stroke-opacity:1"
     id="rect2759"
     width="43.244846"
     height="14.198456"
     x="338.56723"
     y="310.33167"
     transform="matrix(0.86377734,-0.50387371,0.01387948,0.99990368,0,0)" /><rect
     style="fill:#eaeaea;fill-opacity:1;fill-rule:evenodd;stroke:none;stroke-width:5.15593;stroke-opacity:1"
     id="rect2759-3"
     width="61.539165"
     height="20.257069"
     x="329.01974"
     y="340.04852"
     transform="matrix(0.86301803,-0.50517312,0.01383161,0.99990434,0,0)" /><path
     style="fill:#292929;fill-opacity:1;stroke:none;stroke-width:1px;stroke-linecap:butt;stroke-linejoin:miter;stroke-opacity:1"
     d="m 196.74639,135.64918 16.98975,9.4842 -0.002,93.64397 -16.86557,-9.3599 z"
     id="path15529" /><path
     style="fill:#4db6d3;fill-opacity:1;stroke:none;stroke-width:0.2;stroke-linecap:butt;stroke-linejoin:miter;stroke-miterlimit:4;stroke-dasharray:none;stroke-opacity:1"
     d="m 193.19967,163.06425 25.71577,14.79752 -0.0844,50.00962 -6.77812,3.564 c -2.44817,1.40644 -4.50788,0.50071 -6.51834,-0.69824 l -23.18499,-13.21267 c -1.29742,-1.3324 -2.63268,-2.63222 -2.40504,-5.17747 l 0.41658,-35.5346 c 1.14017,-8.43872 6.95321,-11.13784 12.83854,-13.74816 z"
     id="path15710"
     sodipodi:nodetypes="ccccccccc" /><path
     style="fill:#36a3c4;fill-opacity:1;stroke:none;stroke-width:0.2;stroke-linecap:butt;stroke-linejoin:miter;stroke-miterlimit:4;stroke-dasharray:none;stroke-opacity:1"
     d="m 218.91544,177.86177 c -3.31442,1.92359 -12.79354,3.34199 -13.38056,15.70768 l 0.3418,35.59473 c 0.34642,1.9622 2.73431,4.07281 6.62568,2.10618 l 6.32868,-3.39897 z"
     id="path18262"
     sodipodi:nodetypes="cccccc" /><path
     style="fill:#403311;fill-opacity:1;stroke:none;stroke-width:1px;stroke-linecap:butt;stroke-linejoin:miter;stroke-opacity:1"
     d="m 173.16482,226.60097 57.14925,32.87688 -0.21035,28.43626 -57.12106,-33.10908 z"
     id="path25785"
     sodipodi:nodetypes="ccccc" /><path
     style="fill:#fffe0d;fill-opacity:1;stroke:none;stroke-width:1px;stroke-linecap:butt;stroke-linejoin:miter;stroke-opacity:1"
     d="M 188.49007,235.42333 0.21481429,344.20572 58.155171,376.64516 229.60118,277.69188 l 0.71289,-18.21403 z"
     id="path25915"
     sodipodi:nodetypes="cccccc" /><g
     id="g28615"><path
       style="fill:#000000;fill-opacity:1;stroke:none;stroke-width:1px;stroke-linecap:butt;stroke-linejoin:miter;stroke-opacity:1"
       d="m 176.24714,251.41814 6.12884,-3.62093 12.74891,7.54395 -6.12717,3.51551 z"
       id="path25917"
       sodipodi:nodetypes="ccccc" /><path
       style="display:inline;fill:#000000;fill-opacity:1;stroke:none;stroke-width:1px;stroke-linecap:butt;stroke-linejoin:miter;stroke-opacity:1"
       d="m 147.23642,267.47074 6.12884,-3.62093 12.74891,7.54395 -6.12717,3.51551 z"
       id="path25917-7"
       sodipodi:nodetypes="ccccc" /><path
       style="display:inline;fill:#000000;fill-opacity:1;stroke:none;stroke-width:1px;stroke-linecap:butt;stroke-linejoin:miter;stroke-opacity:1"
       d="m 132.28763,275.80746 6.12884,-3.62093 12.74891,7.54395 -6.12717,3.51551 z"
       id="path25917-7-5"
       sodipodi:nodetypes="ccccc" /><path
       style="display:inline;fill:#000000;fill-opacity:1;stroke:none;stroke-width:1px;stroke-linecap:butt;stroke-linejoin:miter;stroke-opacity:1"
       d="m 117.75558,284.06839 6.12884,-3.62093 12.74891,7.54395 -6.12717,3.51551 z"
       id="path25917-7-3"
       sodipodi:nodetypes="ccccc" /><path
       style="display:inline;fill:#000000;fill-opacity:1;stroke:none;stroke-width:1px;stroke-linecap:butt;stroke-linejoin:miter;stroke-opacity:1"
       d="m 103.37563,292.70264 6.12884,-3.62093 12.74891,7.54395 -6.12717,3.51551 z"
       id="path25917-7-56"
       sodipodi:nodetypes="ccccc" /><path
       style="display:inline;fill:#000000;fill-opacity:1;stroke:none;stroke-width:1px;stroke-linecap:butt;stroke-linejoin:miter;stroke-opacity:1"
       d="m 76.543579,308.23145 6.12884,-3.62093 12.74891,7.54395 -6.12717,3.51551 z"
       id="path25917-7-2"
       sodipodi:nodetypes="ccccc" /><path
       style="display:inline;fill:#000000;fill-opacity:1;stroke:none;stroke-width:1px;stroke-linecap:butt;stroke-linejoin:miter;stroke-opacity:1"
       d="m 61.677534,316.75269 6.12884,-3.62093 12.748909,7.54395 -6.127169,3.51551 z"
       id="path25917-7-9"
       sodipodi:nodetypes="ccccc" /><path
       style="display:inline;fill:#000000;fill-opacity:1;stroke:none;stroke-width:1px;stroke-linecap:butt;stroke-linejoin:miter;stroke-opacity:1"
       d="m 47.060092,325.07214 6.12884,-3.62093 12.74891,7.54395 -6.12717,3.51551 z"
       id="path25917-7-1"
       sodipodi:nodetypes="ccccc" /><path
       style="display:inline;fill:#000000;fill-opacity:1;stroke:none;stroke-width:1px;stroke-linecap:butt;stroke-linejoin:miter;stroke-opacity:1"
       d="m 90.953133,299.80844 6.128845,-3.62093 22.877822,13.57997 -6.00802,3.38167 z"
       id="path25917-7-0"
       sodipodi:nodetypes="ccccc" /><path
       style="display:inline;fill:#000000;fill-opacity:1;stroke:none;stroke-width:1px;stroke-linecap:butt;stroke-linejoin:miter;stroke-opacity:1"
       d="m 161.6962,258.92233 6.12884,-3.62093 22.87783,13.57997 -6.00802,3.38167 z"
       id="path25917-7-0-9"
       sodipodi:nodetypes="ccccc" /><path
       style="display:inline;fill:#000000;fill-opacity:1;stroke:none;stroke-width:1px;stroke-linecap:butt;stroke-linejoin:miter;stroke-opacity:1"
       d="m 32.201457,333.39694 6.12884,-3.62093 12.74891,7.54395 -6.12717,3.51551 z"
       id="path25917-7-27"
       sodipodi:nodetypes="ccccc" /></g><path
     style="fill:#000000;fill-opacity:0.228379;stroke:none;stroke-width:1px;stroke-linecap:butt;stroke-linejoin:miter;stroke-opacity:1"
     d="m 173.08999,238.1743 57.05447,32.71498 0.16961,-11.41143 -57.14925,-32.87688 z"
     id="path27336"
     sodipodi:nodetypes="ccccc" /><path
     style="fill:#f3ee19;fill-opacity:1;stroke:none;stroke-width:1px;stroke-linecap:butt;stroke-linejoin:miter;stroke-opacity:1"
     d="M 230.14446,270.88928 52.635166,373.70013 58.155171,376.64516 229.60118,277.69188 Z"
     id="path28650" /><path
     style="fill:#dbdbdb;fill-opacity:1;stroke:none;stroke-width:0.2;stroke-linecap:butt;stroke-linejoin:miter;stroke-miterlimit:4;stroke-dasharray:none;stroke-opacity:1"
     d="M 61.543499,381.54039 0.32432542,346.8989 0.15153048,331.68466 c 2.03389082,-2.03423 3.15006362,-4.9364 9.81557842,-2.44594 24.1001251,9.46993 44.3145611,22.51035 51.5429681,37.1584 z"
     id="path36176"
     sodipodi:nodetypes="cccccc" /><path
     id="path36176-3"
     style="display:inline;fill:#cccccc;fill-opacity:1;stroke:none;stroke-width:0.2;stroke-linecap:butt;stroke-linejoin:miter;stroke-miterlimit:4;stroke-dasharray:none;stroke-opacity:1"
     d="M 0.15153048,331.68466 C 9.8219171,347.3137 45.223839,368.28738 61.543499,381.54039 l 2.500375,-1.00973 c 0,0 -0.02126,-9.00871 -0.03742,-15.36156 C 61.369542,357.50967 55.636683,352.42421 49.170512,347.34246 41.705706,341.21576 27.85895,333.30408 16.86303,329.39521 9.2171168,326.00255 5.4491459,324.78184 0.15153048,331.68466 Z"
     sodipodi:nodetypes="ccccccc" /><path
     style="fill:#dbdbdb;fill-opacity:1;stroke:none;stroke-width:0.2;stroke-linecap:butt;stroke-linejoin:miter;stroke-miterlimit:4;stroke-dasharray:none;stroke-opacity:1"
     d="M 61.543499,381.54039 0.32432542,346.8989 0.15153048,331.68466 c 2.03389082,-2.03423 3.15006362,-4.9364 9.81557842,-2.44594 24.1001251,9.46993 44.3145611,22.51035 51.5429681,37.1584 z"
     id="path42826"
     sodipodi:nodetypes="cccccc" /><path
     style="fill:#dbdbdb;fill-opacity:1;stroke:none;stroke-width:0.2;stroke-linecap:butt;stroke-linejoin:miter;stroke-miterlimit:4;stroke-dasharray:none;stroke-opacity:1"
     d="M 61.543499,381.54039 0.32432542,346.8989 0.15153048,331.68466 c 2.03389082,-2.03423 3.15006362,-4.9364 9.81557842,-2.44594 24.1001251,9.46993 44.3145611,22.51035 51.5429681,37.1584 z"
     id="path42828"
     sodipodi:nodetypes="cccccc" /></g></svg>
