<?xml version="1.0" encoding="UTF-8" standalone="no"?>
<svg
   version="1.1"
   id="Layer_1"
   x="0px"
   y="0px"
   viewBox="0 0 676.3 673.40518"
   xml:space="preserve"
   sodipodi:docname="unlock.svg"
   inkscape:version="1.1.2 (0a00cf5339, 2022-02-04)"
   width="676.29999"
   height="673.40515"
   xmlns:inkscape="http://www.inkscape.org/namespaces/inkscape"
   xmlns:sodipodi="http://sodipodi.sourceforge.net/DTD/sodipodi-0.dtd"
   xmlns:xlink="http://www.w3.org/1999/xlink"
   xmlns="http://www.w3.org/2000/svg"
   xmlns:svg="http://www.w3.org/2000/svg"><defs
   id="defs441"><linearGradient
     inkscape:collect="always"
     id="linearGradient5877"><stop
       style="stop-color:#e6e6e6;stop-opacity:1"
       offset="0"
       id="stop5873" /><stop
       style="stop-color:#5f5f5f;stop-opacity:1"
       offset="1"
       id="stop5875" /></linearGradient><linearGradient
     inkscape:collect="always"
     id="linearGradient5871"><stop
       style="stop-color:#e6e6e6;stop-opacity:1"
       offset="0"
       id="stop5867" /><stop
       style="stop-color:#585858;stop-opacity:1"
       offset="1"
       id="stop5869" /></linearGradient><radialGradient
     inkscape:collect="always"
     xlink:href="#linearGradient5871"
     id="radialGradient24424"
     cx="463.76114"
     cy="247.33041"
     fx="463.76114"
     fy="247.33041"
     r="118.90115"
     gradientTransform="matrix(-1.8465119,-2.837927,0.61917458,-0.40284799,1133.6657,2075.7545)"
     gradientUnits="userSpaceOnUse" /><linearGradient
     inkscape:collect="always"
     id="linearGradient5975"><stop
       style="stop-color:#000000;stop-opacity:1"
       offset="0"
       id="stop5971" /><stop
       style="stop-color:#ffffff;stop-opacity:1"
       offset="1"
       id="stop5973" /></linearGradient><radialGradient
     inkscape:collect="always"
     xlink:href="#linearGradient5877"
     id="radialGradient11209-3"
     cx="439.85175"
     cy="627.57629"
     fx="439.85175"
     fy="627.57629"
     r="119.40115"
     gradientTransform="matrix(1.2775412,0.07634789,-0.04709722,0.78808516,-92.431196,74.753846)"
     gradientUnits="userSpaceOnUse" /><radialGradient
     inkscape:collect="always"
     xlink:href="#linearGradient5975"
     id="radialGradient5977"
     cx="668.8277"
     cy="185.60355"
     fx="668.8277"
     fy="185.60355"
     r="93.95369"
     gradientTransform="matrix(0.02458168,1.8197793,-1.2908999,0.01737614,667.78078,-800.85653)"
     gradientUnits="userSpaceOnUse" /><radialGradient
     inkscape:collect="always"
     xlink:href="#linearGradient13547"
     id="radialGradient13549"
     cx="212.24612"
     cy="811.38629"
     fx="212.24612"
     fy="811.38629"
     r="119.99063"
     gradientTransform="matrix(-2.662187,-3.4585495,0.78054357,-0.60061372,328.9532,1881.4337)"
     gradientUnits="userSpaceOnUse" /><linearGradient
     inkscape:collect="always"
     id="linearGradient13547"><stop
       style="stop-color:#eda023;stop-opacity:1;"
       offset="0"
       id="stop13543" /><stop
       style="stop-color:#6e4404;stop-opacity:1"
       offset="1"
       id="stop13545" /></linearGradient></defs><sodipodi:namedview
   id="namedview439"
   pagecolor="#ffffff"
   bordercolor="#666666"
   borderopacity="1.0"
   inkscape:pageshadow="2"
   inkscape:pageopacity="0.0"
   inkscape:pagecheckerboard="0"
   showgrid="false"
   inkscape:zoom="0.44378859"
   inkscape:cx="-337.99877"
   inkscape:cy="491.22488"
   inkscape:window-width="1920"
   inkscape:window-height="997"
   inkscape:window-x="0"
   inkscape:window-y="0"
   inkscape:window-maximized="1"
   inkscape:current-layer="g25493"
   fit-margin-top="0"
   fit-margin-left="0"
   fit-margin-right="0"
   fit-margin-bottom="0" /> <style
   type="text/css"
   id="style2"> .st0{fill:#EBBD8C;} .st1{fill:#FFFFFF;} .st2{fill:#B4B4B4;} .st3{fill:#343434;} .st4{fill:#A6714E;} .st5{fill:#676767;} .st6{fill:#D8AD82;} .st7{fill:#8C633A;} .st8{fill:#F7DEC7;} .st9{fill:#C5A28C;} .st10{fill:none;stroke:#F8AE33;stroke-width:3;stroke-linecap:round;stroke-linejoin:round;} .st11{fill:none;stroke:#F8AE33;stroke-width:3;stroke-linecap:round;stroke-linejoin:round;stroke-dasharray:9.7351,9.7351;} .st12{fill:none;stroke:#F8AE33;stroke-width:3;stroke-linecap:round;stroke-linejoin:round;stroke-dasharray:9.735,9.735;} .st13{fill:none;stroke:#F8AE33;stroke-width:3;stroke-linecap:round;stroke-linejoin:round;stroke-dasharray:9.3137,9.3137;} .st14{fill:none;stroke:#F8AE33;stroke-width:3;stroke-linecap:round;stroke-linejoin:round;stroke-dasharray:8,8;} .st15{font-family:'OpenSans-Bold';} .st16{font-size:40px;} </style> <g
   id="g290"
   transform="translate(-113.7,-61.5)"> <g
   id="g214"> <polygon
   class="st0"
   points="695,500 441.8,646.1 441.8,353.8 695,207.7 "
   id="polygon4"
   style="fill:#a6714e;fill-opacity:1" /> <g
   id="g212"> <polygon
   class="st1"
   points="643.1,349.2 493.7,435.5 493.7,364.5 643.1,278.2 "
   id="polygon6"
   style="fill:#bdbdbd;fill-opacity:1" /> <polygon
   class="st2"
   points="637.3,300.2 500.1,379.4 500.1,367.9 637.3,288.7 "
   id="polygon8" /> <g
   id="g110"> <g
   id="g12"> <polygon
   class="st3"
   points="500.9,403.6 500.1,404.1 500.1,385.6 500.9,385.2 "
   id="polygon10" /> </g> <g
   id="g16"> <polygon
   class="st3"
   points="504.1,401.8 502.6,402.7 502.6,384.2 504.1,383.3 "
   id="polygon14" /> </g> <g
   id="g20"> <polygon
   class="st3"
   points="506.5,400.4 505.7,400.9 505.7,382.4 506.5,382 "
   id="polygon18" /> </g> <g
   id="g24"> <polygon
   class="st3"
   points="510,398.4 507.8,399.7 507.8,381.2 510,379.9 "
   id="polygon22" /> </g> <g
   id="g28"> <polygon
   class="st3"
   points="512.4,397 510.9,397.8 510.9,379.4 512.4,378.5 "
   id="polygon26" /> </g> <g
   id="g32"> <polygon
   class="st3"
   points="515.2,395.4 513.7,396.2 513.7,377.8 515.2,376.9 "
   id="polygon30" /> </g> <g
   id="g36"> <polygon
   class="st3"
   points="517.6,394 516.9,394.4 516.9,376 517.6,375.5 "
   id="polygon34" /> </g> <g
   id="g40"> <polygon
   class="st3"
   points="518.8,393.3 518.5,393.5 518.5,375 518.8,374.8 "
   id="polygon38" /> </g> <g
   id="g44"> <polygon
   class="st3"
   points="527.2,388.5 526.9,388.6 526.9,370.2 527.2,370 "
   id="polygon42" /> </g> <g
   id="g48"> <polygon
   class="st3"
   points="502.1,403 501.8,403.1 501.8,384.7 502.1,384.5 "
   id="polygon46" /> </g> <g
   id="g52"> <polygon
   class="st3"
   points="520.4,392.4 519.7,392.8 519.7,374.3 520.4,373.9 "
   id="polygon50" /> </g> <g
   id="g56"> <polygon
   class="st3"
   points="523.6,390.5 522.1,391.4 522.1,372.9 523.6,372.1 "
   id="polygon54" /> </g> <g
   id="g60"> <polygon
   class="st3"
   points="526,389.1 525.3,389.6 525.3,371.1 526,370.7 "
   id="polygon58" /> </g> <g
   id="g64"> <polygon
   class="st3"
   points="528.8,387.5 528,388 528,369.5 528.8,369.1 "
   id="polygon62" /> </g> <g
   id="g68"> <polygon
   class="st3"
   points="532,385.7 530.5,386.6 530.5,368.1 532,367.2 "
   id="polygon66" /> </g> <g
   id="g72"> <polygon
   class="st3"
   points="534.4,384.3 533.6,384.7 533.6,366.3 534.4,365.8 "
   id="polygon70" /> </g> <g
   id="g76"> <polygon
   class="st3"
   points="537.9,382.3 535.7,383.6 535.7,365.1 537.9,363.8 "
   id="polygon74" /> </g> <g
   id="g80"> <polygon
   class="st3"
   points="540,381.1 539.2,381.5 539.2,363.1 540,362.6 "
   id="polygon78" /> </g> <g
   id="g84"> <polygon
   class="st3"
   points="542.8,379.5 542,379.9 542,361.5 542.8,361 "
   id="polygon82" /> </g> <g
   id="g88"> <polygon
   class="st3"
   points="545.9,377.6 544.4,378.5 544.4,360.1 545.9,359.2 "
   id="polygon86" /> </g> <g
   id="g92"> <polygon
   class="st3"
   points="548.7,376 547.2,376.9 547.2,358.4 548.7,357.6 "
   id="polygon90" /> </g> <g
   id="g96"> <polygon
   class="st3"
   points="551.1,374.6 550.4,375.1 550.4,356.6 551.1,356.2 "
   id="polygon94" /> </g> <g
   id="g100"> <polygon
   class="st3"
   points="554.3,372.8 552.8,373.7 552.8,355.2 554.3,354.3 "
   id="polygon98" /> </g> <g
   id="g104"> <polygon
   class="st3"
   points="557.1,371.2 555.6,372.1 555.6,353.6 557.1,352.7 "
   id="polygon102" /> </g> <g
   id="g108"> <polygon
   class="st3"
   points="559.5,369.8 558.7,370.2 558.7,351.8 559.5,351.3 "
   id="polygon106" /> </g> </g> <g
   id="g210"> <g
   id="g124"> <g
   id="g114"> <path
   class="st3"
   d="m 572.1,347.3 c -0.1,0.1 -0.3,0.1 -0.4,0.1 -0.1,0 -0.2,0 -0.3,-0.1 -0.2,-0.1 -0.3,-0.3 -0.3,-0.6 0,-0.3 0.1,-0.7 0.3,-1 0.1,-0.2 0.2,-0.3 0.3,-0.4 0.4,-0.4 0.8,-0.5 1.1,-0.4 0.1,0 0.2,0.1 0.2,0.2 0.1,0.1 0.1,0.3 0.1,0.4 0,0.2 0,0.3 -0.1,0.5 -0.1,0.2 -0.1,0.3 -0.2,0.5 -0.1,0.2 -0.2,0.3 -0.3,0.4 -0.2,0.2 -0.3,0.3 -0.4,0.4 z"
   id="path112" /> </g> <g
   id="g118"> <path
   class="st3"
   d="m 629.3,313.1 c 0,-0.7 0.4,-1.4 1,-1.7 v 0 c 0.5,-0.3 1,-0.1 1,0.6 v 0 c 0,0.6 -0.5,1.4 -1,1.7 v 0 c -0.6,0.3 -1,0 -1,-0.6 z m -2,1.1 c 0,-0.7 0.4,-1.4 1,-1.7 v 0 c 0.5,-0.3 1,-0.1 1,0.6 v 0 c 0,0.6 -0.5,1.4 -1,1.7 v 0 c -0.6,0.4 -1,0.1 -1,-0.6 z m -2,1.2 c 0,-0.7 0.5,-1.4 1,-1.7 v 0 c 0.6,-0.3 1,-0.1 1,0.6 v 0 c 0,0.6 -0.5,1.4 -1,1.7 v 0 c -0.6,0.3 -1,0 -1,-0.6 z m -2.1,1.2 c 0,-0.7 0.5,-1.4 1,-1.7 v 0 c 0.6,-0.3 1,-0.1 1,0.6 v 0 c 0,0.6 -0.4,1.4 -1,1.7 v 0 c -0.5,0.3 -1,0 -1,-0.6 z m -2,1.1 c 0,-0.7 0.5,-1.4 1,-1.7 v 0 c 0.6,-0.3 1,-0.1 1,0.6 v 0 c 0,0.6 -0.4,1.4 -1,1.7 v 0 c -0.5,0.3 -1,0.1 -1,-0.6 z m -2,1.2 c 0,-0.7 0.5,-1.4 1,-1.7 v 0 c 0.6,-0.3 1,-0.1 1,0.6 v 0 c 0,0.6 -0.4,1.4 -1,1.7 v 0 c -0.5,0.3 -1,0 -1,-0.6 z m -2,1.1 c 0,-0.7 0.4,-1.4 1,-1.7 v 0 c 0.5,-0.3 1,-0.1 1,0.6 v 0 c 0,0.6 -0.5,1.4 -1,1.7 v 0 c -0.5,0.3 -1,0.1 -1,-0.6 z m -2,1.2 c 0,-0.7 0.4,-1.4 1,-1.7 v 0 c 0.5,-0.3 1,-0.1 1,0.6 v 0 c 0,0.6 -0.5,1.4 -1,1.7 v 0 c -0.5,0.3 -1,0 -1,-0.6 z m -2,1.2 c 0,-0.7 0.5,-1.4 1,-1.7 v 0 c 0.6,-0.3 1,-0.1 1,0.6 v 0 c 0,0.6 -0.5,1.4 -1,1.7 v 0 c -0.5,0.3 -1,0 -1,-0.6 z m -2,1.1 c 0,-0.7 0.5,-1.4 1,-1.7 v 0 c 0.6,-0.3 1,-0.1 1,0.6 v 0 c 0,0.6 -0.4,1.4 -1,1.7 v 0 c -0.5,0.3 -1,0.1 -1,-0.6 z m -2,1.2 c 0,-0.7 0.5,-1.4 1,-1.7 v 0 c 0.6,-0.3 1,-0.1 1,0.6 v 0 c 0,0.6 -0.4,1.4 -1,1.7 v 0 c -0.5,0.3 -1,0 -1,-0.6 z m -2,1.1 c 0,-0.7 0.5,-1.4 1,-1.7 v 0 c 0.6,-0.3 1,-0.1 1,0.6 v 0 c 0,0.6 -0.4,1.4 -1,1.7 v 0 c -0.5,0.3 -1,0.1 -1,-0.6 z m -2,1.2 c 0,-0.7 0.4,-1.4 1,-1.7 v 0 c 0.5,-0.3 1,-0.1 1,0.6 v 0 c 0,0.6 -0.5,1.4 -1,1.7 v 0 c -0.6,0.3 -1,0 -1,-0.6 z m -2,1.2 c 0,-0.7 0.5,-1.4 1,-1.7 v 0 c 0.5,-0.3 1,-0.1 1,0.6 v 0 c 0,0.6 -0.5,1.4 -1,1.7 v 0 c -0.6,0.3 -1,0 -1,-0.6 z m -2,1.1 c 0,-0.7 0.5,-1.4 1,-1.7 v 0 c 0.6,-0.3 1,-0.1 1,0.6 v 0 c 0,0.6 -0.4,1.4 -1,1.7 v 0 c -0.6,0.3 -1,0.1 -1,-0.6 z m -2,1.2 c 0,-0.7 0.5,-1.4 1,-1.7 v 0 c 0.6,-0.3 1,-0.1 1,0.6 v 0 c 0,0.6 -0.4,1.4 -1,1.7 v 0 c -0.6,0.3 -1,0 -1,-0.6 z m -2,1.1 c 0,-0.7 0.5,-1.4 1,-1.7 v 0 c 0.6,-0.3 1,-0.1 1,0.6 v 0 c 0,0.6 -0.4,1.4 -1,1.7 v 0 c -0.6,0.3 -1,0.1 -1,-0.6 z m -2,1.2 c 0,-0.7 0.4,-1.4 1,-1.7 v 0 c 0.5,-0.3 1,-0.1 1,0.6 v 0 c 0,0.6 -0.5,1.4 -1,1.7 v 0 c -0.6,0.3 -1,0 -1,-0.6 z m -2,1.2 c 0,-0.7 0.4,-1.4 1,-1.7 v 0 c 0.5,-0.3 1,-0.1 1,0.6 v 0 c 0,0.6 -0.5,1.4 -1,1.7 v 0 c -0.6,0.3 -1,0 -1,-0.6 z m -2.1,1.1 c 0,-0.7 0.5,-1.4 1,-1.7 v 0 c 0.5,-0.3 1,-0.1 1,0.6 v 0 c 0,0.6 -0.5,1.4 -1,1.7 v 0 c -0.5,0.3 -1,0 -1,-0.6 z m -2,1.2 c 0,-0.7 0.5,-1.4 1,-1.7 v 0 c 0.5,-0.3 1,-0.1 1,0.6 v 0 c 0,0.6 -0.4,1.4 -1,1.7 v 0 c -0.5,0.3 -1,0 -1,-0.6 z m -2,1.1 c 0,-0.7 0.5,-1.4 1,-1.7 v 0 c 0.6,-0.3 1,-0.1 1,0.6 v 0 c 0,0.6 -0.4,1.4 -1,1.7 v 0 c -0.5,0.3 -1,0.1 -1,-0.6 z m -2,1.2 c 0,-0.7 0.5,-1.4 1,-1.7 v 0 c 0.6,-0.3 1,-0.1 1,0.6 v 0 c 0,0.6 -0.4,1.4 -1,1.7 v 0 c -0.5,0.3 -1,0 -1,-0.6 z m -2,1.1 c 0,-0.7 0.4,-1.4 1,-1.7 v 0 c 0.5,-0.3 1,-0.1 1,0.6 v 0 c 0,0.6 -0.5,1.4 -1,1.7 v 0 c -0.5,0.3 -1,0.1 -1,-0.6 z m -2,1.2 c 0,-0.7 0.4,-1.4 1,-1.7 v 0 c 0.5,-0.3 1,-0.1 1,0.6 v 0 c 0,0.6 -0.5,1.4 -1,1.7 v 0 c -0.6,0.3 -1,0 -1,-0.6 z m -2,1.2 c 0,-0.7 0.5,-1.4 1,-1.7 v 0 c 0.5,-0.3 1,-0.1 1,0.6 v 0 c 0,0.6 -0.5,1.4 -1,1.7 v 0 c -0.6,0.3 -1,0 -1,-0.6 z m -2,1.1 c 0,-0.7 0.5,-1.4 1,-1.7 v 0 c 0.5,-0.3 1,-0.1 1,0.6 v 0 c 0,0.6 -0.4,1.4 -1,1.7 v 0 c -0.6,0.3 -1,0.1 -1,-0.6 z m -2,1.2 c 0,-0.7 0.5,-1.4 1,-1.7 v 0 c 0.5,-0.3 1,-0.1 1,0.6 v 0 c 0,0.6 -0.4,1.4 -1,1.7 v 0 c -0.6,0.3 -1,0 -1,-0.6 z m -2,1.1 c 0,-0.7 0.5,-1.4 1,-1.7 v 0 c 0.6,-0.3 1,-0.1 1,0.6 v 0 c 0,0.6 -0.4,1.4 -1,1.7 v 0 c -0.6,0.3 -1,0.1 -1,-0.6 z"
   id="path116" /> </g> <g
   id="g122"> <path
   class="st3"
   d="m 632.3,312.5 c -0.1,0.1 -0.3,0.1 -0.4,0.1 -0.1,0 -0.2,0 -0.3,-0.1 -0.2,-0.1 -0.3,-0.3 -0.3,-0.6 0,-0.3 0.1,-0.7 0.3,-1 0.4,-0.6 1,-1 1.4,-0.8 0.2,0.1 0.3,0.3 0.3,0.6 0,0.3 -0.1,0.7 -0.3,1 -0.2,0.4 -0.5,0.7 -0.7,0.8 z"
   id="path120" /> </g> </g> <g
   id="g138"> <g
   id="g128"> <path
   class="st3"
   d="m 572.1,352.1 c -0.3,0.2 -0.5,0.2 -0.7,0.1 -0.1,0 -0.2,-0.1 -0.2,-0.2 -0.1,-0.1 -0.1,-0.3 -0.1,-0.4 0,-0.3 0.1,-0.7 0.3,-1 0.1,-0.2 0.2,-0.3 0.3,-0.4 0.4,-0.4 0.8,-0.5 1.1,-0.4 0.2,0.1 0.3,0.3 0.3,0.6 0,0.3 -0.1,0.6 -0.3,1 -0.2,0.3 -0.5,0.6 -0.7,0.7 z"
   id="path126" /> </g> <g
   id="g132"> <path
   class="st3"
   d="m 623.1,321.6 c 0,0.6 -0.5,1.4 -1,1.7 v 0 c -0.5,0.3 -1,0.1 -1,-0.5 v 0 c 0,0.6 -0.5,1.3 -1,1.7 v 0 c -0.5,0.3 -1,0.1 -1,-0.6 v 0 c 0,-0.6 0.5,-1.4 1,-1.7 v 0 c 0.5,-0.3 1,-0.1 1,0.5 v 0 c 0,-0.6 0.5,-1.3 1,-1.7 v 0 c 0.5,-0.3 1,-0.1 1,0.5 v 0 c 0,-0.6 0.5,-1.3 1,-1.7 v 0 c 0.5,-0.3 1,-0.1 1,0.6 v 0 c 0,0.7 -0.5,1.4 -1,1.7 v 0 c -0.5,0.3 -0.9,0.1 -1,-0.5 z m -6,3.4 c 0,0.6 -0.5,1.3 -1,1.7 v 0 c -0.5,0.3 -1,0.1 -1,-0.5 v 0 c 0,0.6 -0.5,1.3 -1,1.6 v 0 c -0.5,0.3 -1,0.1 -1,-0.5 v 0 c 0,0.6 -0.5,1.3 -1,1.7 v 0 c -0.5,0.3 -1,0.1 -1,-0.5 v 0 c 0,0.6 -0.5,1.4 -1,1.7 v 0 c -0.5,0.3 -1,0.1 -1,-0.5 v 0 c 0,0.6 -0.5,1.4 -1,1.7 v 0 c -0.5,0.3 -1,0.1 -1,-0.5 v 0 c 0,0.6 -0.5,1.3 -1,1.7 v 0 c -0.5,0.3 -1,0.1 -1,-0.5 v 0 c 0,0.6 -0.5,1.4 -1,1.7 v 0 c -0.5,0.3 -1,0.1 -1,-0.5 v 0 c 0,0.6 -0.5,1.3 -1,1.7 v 0 c -0.5,0.3 -1,0.1 -1,-0.6 v 0 c 0,-0.6 0.5,-1.4 1,-1.7 v 0 c 0.5,-0.3 1,-0.1 1,0.5 v 0 c 0,-0.6 0.5,-1.3 1,-1.7 v 0 c 0.5,-0.3 1,-0.1 1,0.5 v 0 c 0,-0.6 0.5,-1.3 1,-1.7 v 0 c 0.5,-0.3 1,-0.1 1,0.5 v 0 c 0,-0.6 0.5,-1.3 1,-1.7 v 0 c 0.5,-0.3 1,-0.1 1,0.5 v 0 c 0,-0.6 0.5,-1.4 1,-1.7 v 0 c 0.5,-0.3 1,-0.1 1,0.5 v 0 c 0,-0.6 0.5,-1.3 1,-1.7 v 0 c 0.5,-0.3 1,-0.1 1,0.5 v 0 c 0,-0.6 0.5,-1.3 1,-1.7 v 0 c 0.5,-0.3 0.9,-0.1 1,0.5 v 0 c 0,-0.6 0.5,-1.3 1,-1.7 v 0 c 0.5,-0.3 1,-0.1 1,0.5 v 0 c 0.1,-0.6 0.5,-1.3 1,-1.7 v 0 c 0.6,-0.3 1,-0.1 1,0.6 v 0 c 0,0.7 -0.4,1.4 -1,1.7 v 0 c -0.5,0.5 -0.9,0.2 -1,-0.4 z m -18,10.5 c 0,0.6 -0.5,1.3 -1,1.7 v 0 c -0.5,0.3 -0.9,0.1 -1,-0.5 v 0 c 0,0.6 -0.5,1.3 -1,1.6 v 0 c -0.5,0.3 -1,0.1 -1,-0.5 v 0 c 0,0.6 -0.5,1.3 -1,1.7 v 0 c -0.5,0.3 -1,0.1 -1,-0.5 v 0 c 0,0.6 -0.5,1.4 -1,1.7 v 0 c -0.5,0.3 -1,0.1 -1,-0.5 v 0 c 0,0.6 -0.5,1.3 -1,1.7 v 0 c -0.5,0.3 -1,0.1 -1,-0.5 v 0 c 0,0.6 -0.5,1.4 -1,1.7 v 0 c -0.5,0.3 -1,0.1 -1,-0.5 v 0 c 0,0.6 -0.5,1.4 -1,1.7 v 0 c -0.5,0.3 -1,0.1 -1,-0.5 v 0 c 0,0.6 -0.5,1.3 -1,1.7 v 0 c -0.5,0.3 -1,0.1 -1,-0.5 v 0 c 0,0.6 -0.5,1.3 -1,1.7 v 0 c -0.5,0.3 -1,0.1 -1,-0.6 v 0 c 0,-0.6 0.5,-1.4 1,-1.7 v 0 c 0.5,-0.3 1,-0.1 1,0.5 v 0 c 0,-0.6 0.5,-1.3 1,-1.7 v 0 c 0.5,-0.3 1,-0.1 1,0.5 v 0 c 0,-0.6 0.5,-1.3 1,-1.7 v 0 c 0.5,-0.3 1,-0.1 1,0.5 v 0 c 0,-0.6 0.5,-1.3 1,-1.7 v 0 c 0.5,-0.3 1,-0.1 1,0.5 v 0 c 0,-0.6 0.5,-1.3 1,-1.7 v 0 c 0.5,-0.3 1,-0.1 1,0.5 v 0 c 0,-0.6 0.5,-1.4 1,-1.7 v 0 c 0.5,-0.3 1,-0.1 1,0.5 v 0 c 0,-0.6 0.5,-1.3 1,-1.7 v 0 c 0.5,-0.3 1,-0.1 1,0.5 v 0 c 0,-0.6 0.5,-1.4 1,-1.7 v 0 c 0.5,-0.3 0.9,-0.1 1,0.5 v 0 c 0.1,-0.6 0.5,-1.4 1,-1.7 v 0 c 0.5,-0.3 1,-0.1 1,0.5 v 0 c 0.1,-0.6 0.5,-1.3 1,-1.7 v 0 c 0.5,-0.3 1,-0.1 1,0.6 v 0 c 0,0.7 -0.4,1.4 -1,1.7 v 0 c -0.5,0.4 -1,0.1 -1,-0.4 z m -20,11.5 c -0.1,0.6 -0.5,1.4 -1,1.7 v 0 c -0.5,0.3 -1,0.1 -1,-0.6 v 0 c 0,-0.6 0.4,-1.4 1,-1.7 v 0 c 0.5,-0.3 1,-0.1 1,0.5 v 0 c 0,-0.6 0.5,-1.3 1,-1.7 v 0 c 0.5,-0.3 1,-0.1 1,0.6 v 0 c 0,0.7 -0.4,1.4 -1,1.7 v 0 c -0.6,0.3 -1,0.1 -1,-0.5 z m -4,2.3 c 0,0.6 -0.5,1.4 -1,1.7 v 0 c -0.5,0.3 -1,0.1 -1,-0.6 v 0 c 0,-0.6 0.5,-1.4 1,-1.7 v 0 c 0.5,-0.3 1,-0.1 1,0.5 v 0 c 0,-0.6 0.5,-1.3 1,-1.7 v 0 c 0.5,-0.3 1,-0.1 1,0.6 v 0 c 0,0.7 -0.5,1.4 -1,1.7 v 0 c -0.5,0.3 -1,0.1 -1,-0.5 z"
   id="path130" /> </g> <g
   id="g136"> <path
   class="st3"
   d="m 626.1,320.9 c -0.3,0.2 -0.5,0.2 -0.7,0.1 -0.2,-0.1 -0.3,-0.3 -0.3,-0.6 0,-0.2 0,-0.3 0.1,-0.5 0.1,-0.2 0.1,-0.3 0.2,-0.5 0.3,-0.5 0.7,-0.8 1.1,-0.9 0.1,0 0.2,0 0.3,0.1 0.2,0.1 0.3,0.4 0.3,0.7 0,0.3 -0.1,0.7 -0.3,1 -0.1,0.2 -0.2,0.3 -0.3,0.4 -0.1,0 -0.2,0.1 -0.4,0.2 z"
   id="path134" /> </g> </g> <g
   id="g152"> <g
   id="g142"> <path
   class="st3"
   d="m 572.1,357 c -0.3,0.2 -0.5,0.2 -0.7,0.1 -0.1,0 -0.2,-0.1 -0.2,-0.2 -0.1,-0.1 -0.1,-0.3 -0.1,-0.4 0,-0.2 0,-0.3 0.1,-0.5 0.1,-0.2 0.1,-0.3 0.2,-0.5 0.1,-0.2 0.2,-0.3 0.3,-0.4 0.4,-0.4 0.8,-0.5 1.1,-0.4 0.1,0.1 0.2,0.1 0.2,0.3 0.1,0.1 0.1,0.2 0.1,0.4 0,0.3 -0.1,0.6 -0.3,1 -0.2,0.2 -0.5,0.4 -0.7,0.6 z"
   id="path140" /> </g> <g
   id="g146"> <path
   class="st3"
   d="m 627.4,323.9 c 0,-0.6 0.5,-1.4 1,-1.7 v 0 c 0.6,-0.3 1,-0.1 1,0.6 v 0 c 0,0.6 -0.4,1.4 -1,1.7 v 0 c -0.6,0.3 -1,0 -1,-0.6 z m -2,1.2 c 0,-0.6 0.4,-1.4 1,-1.7 v 0 c 0.5,-0.3 1,-0.1 1,0.6 v 0 c 0,0.6 -0.5,1.4 -1,1.7 v 0 c -0.6,0.3 -1,0 -1,-0.6 z m -2.1,1.1 c 0,-0.6 0.5,-1.4 1,-1.7 v 0 c 0.5,-0.3 1,-0.1 1,0.6 v 0 c 0,0.6 -0.4,1.4 -1,1.7 v 0 c -0.5,0.3 -1,0.1 -1,-0.6 z m -2,1.2 c 0,-0.6 0.5,-1.4 1,-1.7 v 0 c 0.6,-0.3 1,-0.1 1,0.6 v 0 c 0,0.6 -0.4,1.4 -1,1.7 v 0 c -0.5,0.3 -1,0 -1,-0.6 z m -2,1.1 c 0,-0.6 0.4,-1.4 1,-1.7 v 0 c 0.5,-0.3 1,-0.1 1,0.6 v 0 c 0,0.6 -0.5,1.4 -1,1.7 v 0 c -0.5,0.3 -1,0.1 -1,-0.6 z m -2,1.2 c 0,-0.6 0.5,-1.4 1,-1.7 v 0 c 0.5,-0.3 1,-0.1 1,0.6 v 0 c 0,0.6 -0.4,1.4 -1,1.7 v 0 c -0.5,0.3 -1,0 -1,-0.6 z m -2,1.2 c 0,-0.6 0.5,-1.4 1,-1.7 v 0 c 0.5,-0.3 1,-0.1 1,0.6 v 0 c 0,0.6 -0.5,1.4 -1,1.7 v 0 c -0.5,0.3 -1,0 -1,-0.6 z m -2,1.1 c 0,-0.6 0.4,-1.4 1,-1.7 v 0 c 0.5,-0.3 1,-0.1 1,0.6 v 0 c 0,0.6 -0.5,1.4 -1,1.7 v 0 c -0.6,0.3 -1,0 -1,-0.6 z m -2,1.2 c 0,-0.6 0.5,-1.4 1,-1.7 v 0 c 0.6,-0.3 1,-0.1 1,0.6 v 0 c 0,0.6 -0.4,1.4 -1,1.7 v 0 c -0.6,0.3 -1,0 -1,-0.6 z m -2,1.1 c 0,-0.6 0.4,-1.4 1,-1.7 v 0 c 0.5,-0.3 1,-0.1 1,0.6 v 0 c 0,0.6 -0.5,1.4 -1,1.7 v 0 c -0.6,0.3 -1,0.1 -1,-0.6 z m -2,1.2 c 0,-0.6 0.4,-1.4 1,-1.7 v 0 c 0.5,-0.3 1,-0.1 1,0.6 v 0 c 0,0.6 -0.5,1.4 -1,1.7 v 0 c -0.6,0.3 -1,0 -1,-0.6 z m -2.1,1.2 c 0,-0.6 0.5,-1.4 1,-1.7 v 0 c 0.6,-0.3 1,-0.1 1,0.6 v 0 c 0,0.6 -0.4,1.4 -1,1.7 v 0 c -0.5,0.3 -1,0 -1,-0.6 z m -2,1.1 c 0,-0.6 0.4,-1.4 1,-1.7 v 0 c 0.5,-0.3 1,-0.1 1,0.6 v 0 c 0,0.6 -0.5,1.4 -1,1.7 v 0 c -0.5,0.3 -1,0.1 -1,-0.6 z m -2,1.2 c 0,-0.6 0.5,-1.4 1,-1.7 v 0 c 0.5,-0.3 1,-0.1 1,0.6 v 0 c 0,0.6 -0.4,1.4 -1,1.7 v 0 c -0.5,0.3 -1,0 -1,-0.6 z m -2,1.2 c 0,-0.6 0.5,-1.4 1,-1.7 v 0 c 0.6,-0.3 1,-0.1 1,0.6 v 0 c 0,0.6 -0.4,1.4 -1,1.7 v 0 c -0.5,0.2 -1,0 -1,-0.6 z m -2,1.1 c 0,-0.6 0.4,-1.4 1,-1.7 v 0 c 0.5,-0.3 1,-0.1 1,0.6 v 0 c 0,0.6 -0.5,1.4 -1,1.7 v 0 c -0.5,0.3 -1,0 -1,-0.6 z m -2,1.2 c 0,-0.6 0.5,-1.4 1,-1.7 v 0 c 0.5,-0.3 1,-0.1 1,0.6 v 0 c 0,0.6 -0.4,1.4 -1,1.7 v 0 c -0.6,0.3 -1,0 -1,-0.6 z m -2,1.1 c 0,-0.6 0.5,-1.4 1,-1.7 v 0 c 0.5,-0.3 1,-0.1 1,0.6 v 0 c 0,0.6 -0.5,1.4 -1,1.7 v 0 c -0.6,0.3 -1,0.1 -1,-0.6 z m -2,1.2 c 0,-0.6 0.4,-1.4 1,-1.7 v 0 c 0.5,-0.3 1,-0.1 1,0.6 v 0 c 0,0.6 -0.5,1.4 -1,1.7 v 0 c -0.6,0.3 -1,0 -1,-0.6 z m -2,1.2 c 0,-0.6 0.5,-1.4 1,-1.7 v 0 c 0.6,-0.3 1,-0.1 1,0.6 v 0 c 0,0.6 -0.4,1.4 -1,1.7 v 0 c -0.6,0.2 -1,0 -1,-0.6 z m -2,1.1 c 0,-0.6 0.4,-1.4 1,-1.7 v 0 c 0.5,-0.3 1,-0.1 1,0.6 v 0 c 0,0.6 -0.5,1.4 -1,1.7 v 0 c -0.6,0.3 -1,0 -1,-0.6 z m -2,1.2 c 0,-0.6 0.4,-1.4 1,-1.7 v 0 c 0.6,-0.3 1,-0.1 1,0.6 v 0 c 0,0.6 -0.5,1.4 -1,1.7 v 0 c -0.6,0.3 -1,0 -1,-0.6 z m -2.1,1.1 c 0,-0.6 0.5,-1.4 1,-1.7 v 0 c 0.6,-0.3 1,-0.1 1,0.6 v 0 c 0,0.6 -0.4,1.4 -1,1.7 v 0 c -0.5,0.3 -1,0.1 -1,-0.6 z m -2,1.2 c 0,-0.6 0.4,-1.4 1,-1.7 v 0 c 0.5,-0.3 1,-0.1 1,0.6 v 0 c 0,0.6 -0.5,1.4 -1,1.7 v 0 c -0.5,0.3 -1,0 -1,-0.6 z m -2,1.2 c 0,-0.6 0.5,-1.4 1,-1.7 v 0 c 0.5,-0.3 1,-0.1 1,0.6 v 0 c 0,0.6 -0.4,1.4 -1,1.7 v 0 c -0.5,0.3 -1,0 -1,-0.6 z m -2,1.1 c 0,-0.6 0.5,-1.4 1,-1.7 v 0 c 0.6,-0.3 1,-0.1 1,0.6 v 0 c 0,0.6 -0.4,1.4 -1,1.7 v 0 c -0.5,0.3 -1,0 -1,-0.6 z m -2,1.2 c 0,-0.6 0.4,-1.4 1,-1.7 v 0 c 0.5,-0.3 1,-0.1 1,0.6 v 0 c 0,0.6 -0.5,1.4 -1,1.7 v 0 c -0.6,0.3 -1,0 -1,-0.6 z m -2,1.1 c 0,-0.6 0.5,-1.4 1,-1.7 v 0 c 0.5,-0.3 1,-0.1 1,0.6 v 0 c 0,0.6 -0.4,1.4 -1,1.7 v 0 c -0.6,0.3 -1,0.1 -1,-0.6 z"
   id="path144" /> </g> <g
   id="g150"> <path
   class="st3"
   d="m 630.4,323.3 c -0.1,0.1 -0.2,0.1 -0.4,0.1 -0.1,0 -0.2,0 -0.3,-0.1 -0.2,-0.1 -0.3,-0.3 -0.3,-0.6 0,-0.2 0,-0.3 0.1,-0.5 0.1,-0.2 0.1,-0.3 0.2,-0.5 0.4,-0.6 1.1,-1 1.4,-0.8 0.1,0.1 0.2,0.2 0.2,0.3 0.1,0.1 0.1,0.2 0.1,0.4 0,0.1 0,0.3 -0.1,0.5 -0.1,0.2 -0.1,0.3 -0.2,0.5 -0.1,0.2 -0.2,0.3 -0.3,0.4 -0.1,0.1 -0.3,0.2 -0.4,0.3 z"
   id="path148" /> </g> </g> <g
   id="g166"> <g
   id="g156"> <path
   class="st3"
   d="m 572.1,361.8 c -0.1,0.1 -0.3,0.1 -0.4,0.1 -0.1,0 -0.2,0 -0.3,-0.1 -0.2,-0.1 -0.3,-0.3 -0.3,-0.6 0,-0.2 0,-0.3 0.1,-0.5 0.1,-0.2 0.1,-0.3 0.2,-0.5 0.1,-0.2 0.2,-0.3 0.3,-0.4 0.4,-0.4 0.8,-0.6 1.1,-0.4 0.1,0.1 0.2,0.1 0.2,0.3 0.1,0.1 0.1,0.2 0.1,0.4 0,0.1 0,0.3 -0.1,0.5 -0.1,0.2 -0.1,0.4 -0.2,0.5 -0.1,0.2 -0.2,0.3 -0.3,0.4 -0.2,0.1 -0.3,0.2 -0.4,0.3 z"
   id="path154" /> </g> <g
   id="g160"> <path
   class="st3"
   d="m 609.2,339.2 c 0,-0.7 0.5,-1.4 1,-1.7 v 0 c 0.6,-0.3 1,-0.1 1,0.6 v 0 c 0,0.6 -0.4,1.4 -1,1.7 v 0 c -0.5,0.3 -1,0.1 -1,-0.6 z m -2,1.2 c 0,-0.7 0.4,-1.4 1,-1.7 v 0 c 0.5,-0.3 1,-0.1 1,0.6 v 0 c 0,0.6 -0.5,1.4 -1,1.7 v 0 c -0.6,0.3 -1,0 -1,-0.6 z m -2,1.2 c 0,-0.7 0.4,-1.4 1,-1.7 v 0 c 0.5,-0.3 1,-0.1 1,0.6 v 0 c 0,0.6 -0.5,1.4 -1,1.7 v 0 c -0.6,0.3 -1,0 -1,-0.6 z m -2,1.1 c 0,-0.7 0.5,-1.4 1,-1.7 v 0 c 0.6,-0.3 1,-0.1 1,0.6 v 0 c 0,0.6 -0.5,1.4 -1,1.7 v 0 c -0.6,0.3 -1,0 -1,-0.6 z m -2,1.2 c 0,-0.7 0.5,-1.4 1,-1.7 v 0 c 0.6,-0.3 1,-0.1 1,0.6 v 0 c 0,0.6 -0.4,1.4 -1,1.7 v 0 c -0.6,0.3 -1,0 -1,-0.6 z m -2,1.1 c 0,-0.7 0.5,-1.4 1,-1.7 v 0 c 0.6,-0.3 1,-0.1 1,0.6 v 0 c 0,0.6 -0.4,1.4 -1,1.7 v 0 c -0.6,0.3 -1,0.1 -1,-0.6 z m -2,1.2 c 0,-0.7 0.5,-1.4 1,-1.7 v 0 c 0.6,-0.3 1,-0.1 1,0.6 v 0 c 0,0.6 -0.4,1.4 -1,1.7 v 0 c -0.6,0.3 -1,0 -1,-0.6 z m -2,1.1 c 0,-0.7 0.4,-1.4 1,-1.7 v 0 c 0.5,-0.3 1,-0.1 1,0.6 v 0 c 0,0.6 -0.5,1.4 -1,1.7 v 0 c -0.6,0.4 -1,0.1 -1,-0.6 z m -2,1.2 c 0,-0.7 0.4,-1.4 1,-1.7 v 0 c 0.5,-0.3 1,-0.1 1,0.6 v 0 c 0,0.6 -0.5,1.4 -1,1.7 v 0 c -0.6,0.3 -1,0 -1,-0.6 z m -2.1,1.2 c 0,-0.7 0.5,-1.4 1,-1.7 v 0 c 0.6,-0.3 1,-0.1 1,0.6 v 0 c 0,0.6 -0.5,1.4 -1,1.7 v 0 c -0.5,0.3 -1,0 -1,-0.6 z m -2,1.1 c 0,-0.7 0.5,-1.4 1,-1.7 v 0 c 0.5,-0.3 1,-0.1 1,0.6 v 0 c 0,0.6 -0.4,1.4 -1,1.7 v 0 c -0.5,0.3 -1,0.1 -1,-0.6 z m -2,1.2 c 0,-0.7 0.5,-1.4 1,-1.7 v 0 c 0.6,-0.3 1,-0.1 1,0.6 v 0 c 0,0.6 -0.4,1.4 -1,1.7 v 0 c -0.5,0.3 -1,0 -1,-0.6 z m -2,1.1 c 0,-0.7 0.5,-1.4 1,-1.7 v 0 c 0.6,-0.3 1,-0.1 1,0.6 v 0 c 0,0.6 -0.4,1.4 -1,1.7 v 0 c -0.5,0.3 -1,0.1 -1,-0.6 z m -2,1.2 c 0,-0.7 0.4,-1.4 1,-1.7 v 0 c 0.5,-0.3 1,-0.1 1,0.6 v 0 c 0,0.6 -0.5,1.4 -1,1.7 v 0 c -0.5,0.3 -1,0 -1,-0.6 z m -2,1.2 c 0,-0.7 0.4,-1.4 1,-1.7 v 0 c 0.5,-0.3 1,-0.1 1,0.6 v 0 c 0,0.6 -0.5,1.4 -1,1.7 v 0 c -0.6,0.3 -1,0 -1,-0.6 z m -2,1.1 c 0,-0.7 0.4,-1.4 1,-1.7 v 0 c 0.5,-0.3 1,-0.1 1,0.6 v 0 c 0,0.6 -0.5,1.4 -1,1.7 v 0 c -0.6,0.3 -1,0 -1,-0.6 z m -2,1.2 c 0,-0.7 0.5,-1.4 1,-1.7 v 0 c 0.5,-0.3 1,-0.1 1,0.6 v 0 c 0,0.6 -0.5,1.4 -1,1.7 v 0 c -0.6,0.3 -1,0 -1,-0.6 z m -2,1.1 c 0,-0.7 0.5,-1.4 1,-1.7 v 0 c 0.6,-0.3 1,-0.1 1,0.6 v 0 c 0,0.6 -0.4,1.4 -1,1.7 v 0 c -0.6,0.3 -1,0.1 -1,-0.6 z m -2,1.2 c 0,-0.7 0.5,-1.4 1,-1.7 v 0 c 0.6,-0.3 1,-0.1 1,0.6 v 0 c 0,0.6 -0.4,1.4 -1,1.7 v 0 c -0.6,0.3 -1,0 -1,-0.6 z"
   id="path158" /> </g> <g
   id="g164"> <path
   class="st3"
   d="m 612.2,338.7 c -0.1,0.1 -0.3,0.1 -0.4,0.1 -0.1,0 -0.2,0 -0.3,-0.1 -0.2,-0.1 -0.3,-0.3 -0.3,-0.6 0,-0.3 0.1,-0.7 0.3,-1 0.4,-0.6 1.1,-1 1.4,-0.8 0.2,0.1 0.3,0.4 0.3,0.7 0,0.1 0,0.3 -0.1,0.5 -0.1,0.2 -0.1,0.3 -0.2,0.5 -0.1,0.2 -0.2,0.3 -0.3,0.4 -0.1,0.1 -0.2,0.2 -0.4,0.3 z"
   id="path162" /> </g> </g> <g
   id="g180"> <g
   id="g170"> <path
   class="st3"
   d="m 572.1,366.7 c -0.1,0.1 -0.3,0.1 -0.4,0.1 -0.1,0 -0.2,0 -0.3,-0.1 -0.1,0 -0.2,-0.1 -0.2,-0.3 -0.1,-0.1 -0.1,-0.2 -0.1,-0.4 0,-0.3 0.1,-0.6 0.3,-1 0.1,-0.2 0.2,-0.3 0.3,-0.4 0.4,-0.4 0.8,-0.6 1.1,-0.4 0.2,0.1 0.3,0.3 0.3,0.6 0,0.3 -0.1,0.7 -0.3,1 -0.1,0.2 -0.2,0.3 -0.3,0.4 -0.2,0.3 -0.3,0.4 -0.4,0.5 z"
   id="path168" /> </g> <g
   id="g174"> <path
   class="st3"
   d="m 628.4,333.2 c -0.1,0.6 -0.5,1.3 -1,1.5 v 0 c -0.5,0.3 -0.9,0.1 -1,-0.4 v 0 c -0.1,0.6 -0.5,1.3 -1,1.6 v 0 c -0.5,0.3 -0.9,0.1 -1,-0.4 v 0 c -0.1,0.6 -0.5,1.3 -1,1.5 v 0 c -0.5,0.3 -0.9,0.1 -1,-0.4 v 0 c -0.1,0.6 -0.5,1.3 -1,1.5 v 0 c -0.5,0.3 -0.9,0.1 -1,-0.4 v 0 c -0.1,0.6 -0.5,1.3 -1,1.5 v 0 c -0.5,0.3 -0.9,0.1 -1,-0.4 v 0 c -0.1,0.6 -0.5,1.3 -1,1.6 v 0 c -0.5,0.3 -0.9,0.1 -1,-0.4 v 0 c -0.1,0.6 -0.5,1.2 -1,1.5 v 0 c -0.5,0.3 -0.9,0.1 -1,-0.4 v 0 c -0.1,0.6 -0.5,1.3 -1,1.6 v 0 c -0.5,0.3 -0.9,0.1 -1,-0.4 v 0 c -0.1,0.6 -0.5,1.3 -1,1.5 v 0 c -0.5,0.3 -0.9,0.1 -1,-0.4 v 0 c -0.1,0.6 -0.5,1.3 -1,1.5 v 0 c -0.5,0.3 -0.9,0.1 -1,-0.4 v 0 c -0.1,0.6 -0.5,1.3 -1,1.5 v 0 c -0.5,0.3 -0.9,0.1 -1,-0.4 v 0 c -0.1,0.6 -0.5,1.3 -1,1.6 v 0 c -0.5,0.3 -0.9,0.1 -1,-0.4 v 0 c -0.1,0.6 -0.5,1.2 -1,1.5 v 0 c -0.5,0.3 -0.9,0.1 -1,-0.4 v 0 c -0.1,0.6 -0.5,1.2 -1,1.5 v 0 c -0.5,0.3 -0.9,0.1 -1,-0.4 v 0 c -0.1,0.6 -0.5,1.3 -1,1.5 v 0 c -0.5,0.3 -0.9,0.1 -1,-0.4 v 0 c -0.1,0.6 -0.5,1.3 -1,1.6 v 0 c -0.5,0.3 -0.9,0.1 -1,-0.4 v 0 c -0.1,0.6 -0.5,1.3 -1,1.5 v 0 c -0.5,0.3 -0.9,0.1 -1,-0.4 v 0 c -0.1,0.6 -0.5,1.3 -1,1.6 v 0 c -0.5,0.3 -0.9,0.1 -1,-0.4 v 0 c -0.1,0.6 -0.5,1.3 -1,1.5 v 0 c -0.5,0.3 -0.9,0.1 -1,-0.4 v 0 c -0.1,0.6 -0.5,1.2 -1,1.5 v 0 c -0.5,0.3 -0.9,0.1 -1,-0.4 v 0 c -0.1,0.6 -0.5,1.3 -1,1.5 v 0 c -0.5,0.3 -0.9,0.1 -1,-0.4 v 0 c -0.1,0.6 -0.5,1.3 -1,1.6 v 0 c -0.5,0.3 -0.9,0.1 -1,-0.4 v 0 c -0.1,0.6 -0.5,1.3 -1,1.5 v 0 c -0.5,0.3 -0.9,0.1 -1,-0.4 v 0 c -0.1,0.6 -0.5,1.3 -1,1.5 v 0 c -0.5,0.3 -0.9,0.1 -1,-0.4 v 0 c -0.1,0.6 -0.5,1.3 -1,1.5 v 0 c -0.5,0.3 -0.9,0.1 -1,-0.4 v 0 c -0.1,0.6 -0.5,1.3 -1,1.6 v 0 c -0.5,0.3 -0.9,0.1 -1,-0.4 v 0 c -0.1,0.6 -0.5,1.2 -1,1.5 v 0 c -0.5,0.3 -0.9,0.1 -1,-0.4 v 0 c -0.1,0.6 -0.5,1.2 -1,1.5 v 0 c -0.5,0.3 -1,0.1 -1,-0.6 v 0 c 0,-0.7 0.5,-1.4 1,-1.8 v 0 c 0.5,-0.3 0.9,-0.1 1,0.4 v 0 c 0.1,-0.6 0.5,-1.2 1,-1.5 v 0 c 0.5,-0.3 0.9,-0.1 1,0.4 v 0 c 0.1,-0.6 0.5,-1.2 1,-1.5 v 0 c 0.5,-0.3 0.9,-0.1 1,0.4 v 0 c 0.1,-0.6 0.5,-1.3 1,-1.5 v 0 c 0.5,-0.3 0.9,-0.1 1,0.4 v 0 c 0.1,-0.6 0.5,-1.3 1,-1.6 v 0 c 0.5,-0.3 0.9,-0.1 1,0.4 v 0 c 0.1,-0.6 0.5,-1.3 1,-1.5 v 0 c 0.5,-0.3 0.9,-0.1 1,0.4 v 0 c 0.1,-0.6 0.5,-1.3 1,-1.5 v 0 c 0.5,-0.3 0.9,-0.1 1,0.4 v 0 c 0.1,-0.6 0.5,-1.3 1,-1.5 v 0 c 0.5,-0.3 0.9,-0.1 1,0.4 v 0 c 0.1,-0.6 0.5,-1.3 1,-1.5 v 0 c 0.5,-0.3 0.9,-0.1 1,0.4 v 0 c 0.1,-0.6 0.5,-1.2 1,-1.5 v 0 c 0.5,-0.3 0.9,-0.1 1,0.4 v 0 c 0.1,-0.6 0.5,-1.3 1,-1.5 v 0 c 0.5,-0.3 0.9,-0.1 1,0.4 v 0 c 0.1,-0.6 0.5,-1.3 1,-1.5 v 0 c 0.5,-0.3 0.9,-0.1 1,0.4 v 0 c 0.1,-0.6 0.5,-1.3 1,-1.5 v 0 c 0.5,-0.3 0.9,-0.1 1,0.4 v 0 c 0.1,-0.6 0.5,-1.3 1,-1.5 v 0 c 0.5,-0.3 0.9,-0.1 1,0.4 v 0 c 0.1,-0.6 0.5,-1.3 1,-1.5 v 0 c 0.5,-0.3 0.9,-0.1 1,0.4 v 0 c 0.1,-0.6 0.5,-1.2 1,-1.5 v 0 c 0.5,-0.3 0.9,-0.1 1,0.4 v 0 c 0.1,-0.6 0.5,-1.2 1,-1.5 v 0 c 0.5,-0.3 0.9,-0.1 1,0.4 v 0 c 0.1,-0.6 0.5,-1.3 1,-1.5 v 0 c 0.5,-0.3 0.9,-0.1 1,0.4 v 0 c 0.1,-0.6 0.5,-1.3 1,-1.6 v 0 c 0.5,-0.3 0.9,-0.1 1,0.4 v 0 c 0.1,-0.6 0.5,-1.3 1,-1.5 v 0 c 0.5,-0.3 0.9,-0.1 1,0.4 v 0 c 0.1,-0.6 0.5,-1.3 1,-1.5 v 0 c 0.5,-0.3 0.9,-0.1 1,0.4 v 0 c 0.1,-0.6 0.5,-1.3 1,-1.5 v 0 c 0.5,-0.3 0.9,-0.1 1,0.4 v 0 c 0.1,-0.6 0.5,-1.2 1,-1.5 v 0 c 0.5,-0.3 0.9,-0.1 1,0.4 v 0 c 0.1,-0.6 0.5,-1.3 1,-1.5 v 0 c 0.5,-0.3 0.9,-0.1 1,0.4 v 0 c 0.1,-0.6 0.5,-1.3 1,-1.6 v 0 c 0.5,-0.3 0.9,-0.1 1,0.4 v 0 c 0.1,-0.6 0.5,-1.3 1,-1.5 v 0 c 0.5,-0.3 0.9,-0.1 1,0.4 v 0 c 0.1,-0.6 0.5,-1.3 1,-1.5 v 0 c 0.5,-0.3 0.9,-0.1 1,0.4 v 0 c 0.1,-0.6 0.5,-1.3 1,-1.5 v 0 c 0.5,-0.3 0.9,-0.1 1,0.4 v 0 c 0.1,-0.6 0.5,-1.3 1,-1.5 v 0 c 0.6,-0.3 1,-0.1 1,0.6 v 0 c 0,0.6 -0.5,1.4 -1,1.7 v 0 c -0.5,-0.1 -0.9,-0.3 -1,-0.8 z"
   id="path172" /> </g> <g
   id="g178"> <path
   class="st3"
   d="m 631.4,332.4 c -0.3,0.2 -0.5,0.2 -0.7,0.1 -0.2,-0.1 -0.3,-0.3 -0.3,-0.6 0,-0.3 0.1,-0.7 0.3,-1 0.4,-0.6 1,-1 1.4,-0.8 0.2,0.1 0.3,0.4 0.3,0.7 0,0.3 -0.1,0.6 -0.3,1 -0.2,0.2 -0.4,0.5 -0.7,0.6 z"
   id="path176" /> </g> </g> <g
   id="g194"> <g
   id="g184"> <path
   class="st3"
   d="m 572.1,371.5 c -0.3,0.2 -0.5,0.2 -0.7,0.1 -0.1,0 -0.2,-0.1 -0.2,-0.3 -0.1,-0.1 -0.1,-0.2 -0.1,-0.4 0,-0.1 0,-0.3 0.1,-0.5 0.1,-0.2 0.1,-0.4 0.2,-0.5 0.1,-0.2 0.2,-0.3 0.3,-0.4 0.4,-0.4 0.8,-0.6 1.1,-0.4 0.1,0 0.2,0.1 0.2,0.3 0.1,0.1 0.1,0.2 0.1,0.4 0,0.3 -0.1,0.7 -0.3,1 -0.2,0.3 -0.5,0.6 -0.7,0.7 z"
   id="path182" /> </g> <g
   id="g188"> <path
   class="st3"
   d="m 621.9,341.6 c 0,-0.6 0.4,-1.4 1,-1.7 v 0 c 0.5,-0.3 1,-0.1 1,0.6 v 0 c 0,0.6 -0.5,1.4 -1,1.8 v 0 c -0.5,0.2 -1,-0.1 -1,-0.7 z m -2,1.1 c 0,-0.6 0.5,-1.4 1,-1.7 v 0 c 0.5,-0.3 1,-0.1 1,0.6 v 0 c 0,0.6 -0.5,1.4 -1,1.8 v 0 c -0.6,0.3 -1,0 -1,-0.7 z m -2,1.2 c 0,-0.6 0.5,-1.4 1,-1.7 v 0 c 0.6,-0.3 1,-0.1 1,0.6 v 0 c 0,0.6 -0.4,1.4 -1,1.8 v 0 c -0.6,0.2 -1,0 -1,-0.7 z m -2.1,1.2 c 0,-0.6 0.5,-1.4 1,-1.7 v 0 c 0.5,-0.3 1,0 1,0.6 v 0 c 0,0.6 -0.5,1.4 -1,1.8 v 0 c -0.5,0.2 -1,0 -1,-0.7 z m -2,1.2 c 0,-0.6 0.4,-1.4 1,-1.7 v 0 c 0.5,-0.3 1,-0.1 1,0.6 v 0 c 0,0.6 -0.5,1.4 -1,1.8 v 0 c -0.6,0.2 -1,-0.1 -1,-0.7 z m -2,1.1 c 0,-0.6 0.5,-1.4 1,-1.7 v 0 c 0.6,-0.3 1,-0.1 1,0.6 v 0 c 0,0.6 -0.4,1.4 -1,1.8 v 0 c -0.6,0.3 -1,0 -1,-0.7 z m -2.1,1.2 c 0,-0.6 0.5,-1.4 1,-1.7 v 0 c 0.6,-0.3 1,-0.1 1,0.6 v 0 c 0,0.6 -0.5,1.4 -1,1.8 v 0 c -0.5,0.2 -1,0 -1,-0.7 z m -2,1.2 c 0,-0.6 0.4,-1.4 1,-1.7 v 0 c 0.5,-0.3 1,0 1,0.6 v 0 c 0,0.6 -0.5,1.4 -1,1.8 v 0 c -0.6,0.2 -1,-0.1 -1,-0.7 z m -2,1.2 c 0,-0.6 0.5,-1.4 1,-1.7 v 0 c 0.5,-0.3 1,0 1,0.6 v 0 c 0,0.6 -0.5,1.4 -1,1.8 v 0 c -0.6,0.2 -1,-0.1 -1,-0.7 z m -2.1,1.1 c 0,-0.6 0.5,-1.4 1,-1.7 v 0 c 0.6,-0.3 1,-0.1 1,0.6 v 0 c 0,0.6 -0.4,1.4 -1,1.8 v 0 c -0.5,0.3 -1,0 -1,-0.7 z m -2,1.2 c 0,-0.6 0.5,-1.4 1,-1.7 v 0 c 0.5,-0.3 1,0 1,0.6 v 0 c 0,0.6 -0.4,1.4 -1,1.7 v 0 c -0.6,0.3 -1,0.1 -1,-0.6 z m -2,1.2 c 0,-0.6 0.4,-1.4 1,-1.7 v 0 c 0.5,-0.3 1,0 1,0.6 v 0 c 0,0.6 -0.5,1.4 -1,1.8 v 0 c -0.6,0.2 -1,-0.1 -1,-0.7 z m -2.1,1.2 c 0,-0.6 0.4,-1.4 1,-1.7 v 0 c 0.6,-0.3 1,0 1,0.6 v 0 c 0,0.6 -0.4,1.4 -1,1.8 v 0 c -0.5,0.2 -1,-0.1 -1,-0.7 z m -2,1.1 c 0,-0.6 0.5,-1.4 1,-1.7 v 0 c 0.6,-0.3 1,-0.1 1,0.6 v 0 c 0,0.6 -0.5,1.4 -1,1.8 v 0 c -0.6,0.3 -1,0 -1,-0.7 z m -2,1.2 c 0,-0.6 0.4,-1.4 1,-1.7 v 0 c 0.5,-0.3 1,-0.1 1,0.6 v 0 c 0,0.6 -0.5,1.4 -1,1.8 v 0 c -0.6,0.2 -1,0 -1,-0.7 z m -2.1,1.2 c 0,-0.6 0.5,-1.4 1,-1.7 v 0 c 0.6,-0.3 1,-0.1 1,0.6 v 0 c 0,0.6 -0.4,1.4 -1,1.8 v 0 c -0.5,0.2 -1,-0.1 -1,-0.7 z m -2,1.2 c 0,-0.6 0.5,-1.4 1,-1.7 v 0 c 0.6,-0.3 1,0 1,0.6 v 0 c 0,0.6 -0.4,1.4 -1,1.8 v 0 c -0.6,0.2 -1,-0.1 -1,-0.7 z m -2,1.1 c 0,-0.6 0.4,-1.4 1,-1.7 v 0 c 0.5,-0.3 1,-0.1 1,0.6 v 0 c 0,0.6 -0.5,1.4 -1,1.8 v 0 c -0.6,0.3 -1,0 -1,-0.7 z m -2.1,1.2 c 0,-0.6 0.4,-1.4 1,-1.7 v 0 c 0.5,-0.3 1,-0.1 1,0.6 v 0 c 0,0.6 -0.5,1.4 -1,1.8 v 0 c -0.5,0.2 -1,0 -1,-0.7 z m -2,1.2 c 0,-0.6 0.5,-1.4 1,-1.7 v 0 c 0.6,-0.3 1,-0.1 1,0.6 v 0 c 0,0.6 -0.4,1.4 -1,1.8 v 0 c -0.6,0.2 -1,-0.1 -1,-0.7 z m -2.1,1.2 c 0,-0.6 0.5,-1.4 1,-1.7 v 0 c 0.5,-0.3 1,0 1,0.6 v 0 c 0,0.6 -0.5,1.4 -1,1.8 v 0 c -0.5,0.2 -1,-0.1 -1,-0.7 z m -2,1.1 c 0,-0.6 0.4,-1.4 1,-1.7 v 0 c 0.5,-0.3 1,-0.1 1,0.6 v 0 c 0,0.6 -0.5,1.4 -1,1.8 v 0 c -0.5,0.3 -1,0 -1,-0.7 z m -2,1.2 c 0,-0.6 0.5,-1.4 1,-1.7 v 0 c 0.6,-0.3 1,-0.1 1,0.6 v 0 c 0,0.6 -0.4,1.4 -1,1.8 v 0 c -0.6,0.2 -1,0 -1,-0.7 z m -2.1,1.2 c 0,-0.6 0.5,-1.4 1,-1.7 v 0 c 0.6,-0.3 1,-0.1 1,0.6 v 0 c 0,0.6 -0.5,1.4 -1,1.8 v 0 c -0.5,0.2 -1,-0.1 -1,-0.7 z m -2,1.2 c 0,-0.6 0.4,-1.4 1,-1.7 v 0 c 0.5,-0.3 1,0 1,0.6 v 0 c 0,0.6 -0.5,1.4 -1,1.8 v 0 c -0.5,0.2 -1,-0.1 -1,-0.7 z"
   id="path186" /> </g> <g
   id="g192"> <path
   class="st3"
   d="m 625,341 c -0.1,0.1 -0.3,0.1 -0.4,0.1 -0.1,0 -0.2,0 -0.3,-0.1 -0.1,-0.1 -0.2,-0.1 -0.2,-0.3 -0.1,-0.1 -0.1,-0.2 -0.1,-0.4 0,-0.2 0,-0.3 0.1,-0.5 0,-0.2 0.1,-0.4 0.2,-0.5 0.4,-0.6 1.1,-1 1.4,-0.8 0.2,0.1 0.3,0.3 0.3,0.7 0,0.3 -0.1,0.6 -0.3,1 -0.1,0.2 -0.2,0.3 -0.3,0.4 -0.2,0.2 -0.3,0.3 -0.4,0.4 z"
   id="path190" /> </g> </g> <g
   id="g208"> <g
   id="g198"> <path
   class="st3"
   d="m 572.1,376.4 c -0.3,0.2 -0.5,0.2 -0.7,0.1 -0.1,-0.1 -0.2,-0.1 -0.2,-0.3 -0.1,-0.1 -0.1,-0.2 -0.1,-0.4 0,-0.1 0,-0.3 0.1,-0.5 0.1,-0.2 0.1,-0.4 0.2,-0.5 0.1,-0.2 0.2,-0.3 0.3,-0.4 0.4,-0.4 0.8,-0.6 1.1,-0.4 0.1,0 0.2,0.1 0.2,0.3 0.1,0.1 0.1,0.2 0.1,0.4 0,0.2 0,0.3 -0.1,0.5 -0.1,0.2 -0.1,0.3 -0.2,0.5 -0.2,0.2 -0.5,0.5 -0.7,0.7 z"
   id="path196" /> </g> <g
   id="g202"> <path
   class="st3"
   d="m 601.4,358.3 c 0,-0.6 0.5,-1.4 1,-1.7 v 0 c 0.5,-0.3 1,-0.1 1,0.6 v 0 c 0,0.6 -0.5,1.4 -1,1.7 v 0 c -0.5,0.3 -1,0 -1,-0.6 z m -2,1.1 c 0,-0.6 0.5,-1.4 1,-1.7 v 0 c 0.6,-0.3 1,-0.1 1,0.6 v 0 c 0,0.6 -0.4,1.4 -1,1.7 v 0 c -0.5,0.3 -1,0.1 -1,-0.6 z m -2,1.2 c 0,-0.6 0.5,-1.4 1,-1.7 v 0 c 0.6,-0.3 1,0 1,0.6 v 0 c 0,0.6 -0.4,1.4 -1,1.7 v 0 c -0.6,0.3 -1,0.1 -1,-0.6 z m -2.1,1.2 c 0,-0.6 0.5,-1.4 1,-1.7 v 0 c 0.6,-0.3 1,-0.1 1,0.6 v 0 c 0,0.6 -0.4,1.4 -1,1.7 v 0 c -0.5,0.3 -1,0 -1,-0.6 z m -2,1.1 c 0,-0.6 0.5,-1.4 1,-1.7 v 0 c 0.5,-0.3 1,0 1,0.6 v 0 c 0,0.6 -0.5,1.4 -1,1.7 v 0 c -0.5,0.3 -1,0.1 -1,-0.6 z m -2,1.2 c 0,-0.6 0.4,-1.4 1,-1.7 v 0 c 0.5,-0.3 1,-0.1 1,0.6 v 0 c 0,0.6 -0.5,1.4 -1,1.7 v 0 c -0.6,0.3 -1,0.1 -1,-0.6 z m -2,1.2 c 0,-0.6 0.4,-1.4 1,-1.7 v 0 c 0.5,-0.3 1,-0.1 1,0.6 v 0 c 0,0.6 -0.5,1.4 -1,1.7 v 0 c -0.6,0.3 -1,0 -1,-0.6 z m -2,1.1 c 0,-0.6 0.4,-1.4 1,-1.7 v 0 c 0.5,-0.3 1,0 1,0.6 v 0 c 0,0.6 -0.5,1.4 -1,1.7 v 0 c -0.6,0.3 -1,0.1 -1,-0.6 z m -2.1,1.2 c 0,-0.6 0.4,-1.4 1,-1.7 v 0 c 0.5,-0.3 1,0 1,0.6 v 0 c 0,0.6 -0.4,1.4 -1,1.7 v 0 c -0.5,0.3 -1,0.1 -1,-0.6 z m -2,1.2 c 0,-0.6 0.5,-1.4 1,-1.7 v 0 c 0.5,-0.3 1,0 1,0.6 v 0 c 0,0.6 -0.5,1.4 -1,1.7 v 0 c -0.5,0.3 -1,0 -1,-0.6 z m -2,1.2 c 0,-0.6 0.5,-1.4 1,-1.7 v 0 c 0.6,-0.3 1,0 1,0.6 v 0 c 0,0.6 -0.4,1.4 -1,1.7 v 0 c -0.6,0.2 -1,0 -1,-0.6 z m -2,1.1 c 0,-0.6 0.5,-1.4 1,-1.7 v 0 c 0.6,-0.3 1,-0.1 1,0.6 v 0 c 0,0.6 -0.4,1.4 -1,1.7 v 0 c -0.6,0.3 -1,0.1 -1,-0.6 z m -2.1,1.2 c 0,-0.6 0.5,-1.4 1,-1.7 v 0 c 0.6,-0.3 1,0 1,0.6 v 0 c 0,0.6 -0.4,1.4 -1,1.7 v 0 c -0.5,0.3 -1,0 -1,-0.6 z m -2,1.2 c 0,-0.6 0.5,-1.4 1,-1.7 v 0 c 0.6,-0.3 1,-0.1 1,0.6 v 0 c 0,0.6 -0.4,1.4 -1,1.7 v 0 c -0.5,0.2 -1,0 -1,-0.6 z m -2,1.1 c 0,-0.6 0.5,-1.4 1,-1.7 v 0 c 0.5,-0.3 1,-0.1 1,0.6 v 0 c 0,0.6 -0.5,1.4 -1,1.7 v 0 c -0.5,0.3 -1,0.1 -1,-0.6 z"
   id="path200" /> </g> <g
   id="g206"> <path
   class="st3"
   d="m 604.5,357.7 c -0.1,0.1 -0.3,0.1 -0.4,0.1 -0.1,0 -0.2,0 -0.3,-0.1 -0.2,-0.1 -0.3,-0.3 -0.3,-0.7 0,-0.3 0.1,-0.7 0.3,-1 0.4,-0.6 1.1,-1 1.4,-0.8 0.2,0.1 0.3,0.3 0.3,0.6 0,0.3 -0.1,0.7 -0.3,1 -0.1,0.2 -0.2,0.3 -0.3,0.4 -0.2,0.3 -0.3,0.4 -0.4,0.5 z"
   id="path204" /> </g> </g> </g> </g> </g> <g
   id="g278"> <polygon
   class="st4"
   points="441.8,646.1 188.7,500 188.7,207.7 441.8,353.8 "
   id="polygon216"
   style="fill:#ebbd8c;fill-opacity:1" /> <g
   id="g276"> <g
   id="g240"> <g
   id="g234"> <g
   id="g224"> <g
   id="g220"> <path
   class="st5"
   d="m 234.6,500.1 c -3.7,-2.2 -6.8,-7.4 -6.8,-11.7 0,-0.8 0.5,-1.1 1.2,-0.7 0.7,0.4 1.2,1.3 1.2,2.1 0,2.8 1.9,6.1 4.3,7.5 2.4,1.4 4.3,0.3 4.3,-2.5 v -38.9 c 0,-0.8 0.5,-1.1 1.2,-0.7 0.7,0.4 1.2,1.3 1.2,2.1 v 38.9 c 0.2,4.3 -2.8,6 -6.6,3.9 z"
   id="path218" /> </g> <path
   class="st5"
   d="m 265.2,485.7 c -0.7,-1.5 -1.9,-2.9 -3.2,-3.7 -1.3,-0.7 -2.4,-0.7 -3.1,-0.1 -0.7,-1.5 -1.9,-2.8 -3.1,-3.5 -1.3,-0.7 -2.4,-0.7 -3.1,-0.1 -0.7,-1.5 -1.9,-2.8 -3.1,-3.5 -1.2,-0.7 -2.4,-0.7 -3.1,-0.1 -0.7,-1.5 -1.9,-2.8 -3.1,-3.5 -1.3,-0.7 -2.4,-0.7 -3.1,-0.1 -0.7,-1.5 -1.9,-2.8 -3.1,-3.5 -1.3,-0.7 -2.4,-0.7 -3.1,-0.1 -0.7,-1.5 -1.9,-2.8 -3.1,-3.5 -1.2,-0.7 -2.4,-0.7 -3.1,-0.1 -0.7,-1.5 -1.9,-2.8 -3.1,-3.5 -1.3,-0.7 -2.4,-0.7 -3.1,-0.1 -0.7,-1.5 -1.9,-2.8 -3.1,-3.5 -1.1,-0.7 -2.2,-0.7 -2.9,-0.2 3.7,-9.6 13.4,-12.4 24.9,-5.8 11.2,6.6 21,20.8 24.6,34.9 z"
   id="path222" /> </g> <g
   id="g232"> <path
   class="st5"
   d="m 255.1,456.2 c -0.7,1 -2.2,0.6 -3.4,-0.9 -1.2,-1.5 -1.6,-3.5 -0.9,-4.5 0.7,-1 4.3,-0.4 4.3,-0.4 0,0 0.7,4.8 0,5.8 z"
   id="path226" /> <path
   class="st5"
   d="m 263.5,466.7 c -0.7,1 -2.2,0.6 -3.4,-0.9 -1.2,-1.5 -1.6,-3.5 -0.9,-4.5 0.7,-1 4.3,-0.4 4.3,-0.4 0,0 0.7,4.8 0,5.8 z"
   id="path228" /> <path
   class="st5"
   d="m 262.7,456.6 c -0.7,1 -2.2,0.6 -3.4,-0.9 -1.2,-1.5 -1.6,-3.5 -0.9,-4.5 0.7,-1 4.3,-0.4 4.3,-0.4 0,0 0.7,4.8 0,5.8 z"
   id="path230" /> </g> </g> <g
   id="g238"> <path
   class="st5"
   d="m 273,528 -65.5,-37.8 c -0.7,-0.4 -1.2,-1.3 -1.2,-2.1 v -75.7 c 0,-0.8 0.5,-1.1 1.2,-0.7 l 65.5,37.8 c 0.7,0.4 1.2,1.3 1.2,2.1 v 75.7 c 0,0.8 -0.5,1.1 -1.2,0.7 z m -64.3,-39.9 63.1,36.4 v -72.9 l -63.1,-36.4 z"
   id="path236" /> </g> </g> <g
   id="g274"> <g
   id="g244"> <path
   class="st5"
   d="M 350.5,572.8 285,535 c -0.7,-0.4 -1.2,-1.3 -1.2,-2.1 v -75.7 c 0,-0.8 0.5,-1.1 1.2,-0.7 l 65.5,37.8 c 0.7,0.4 1.2,1.3 1.2,2.1 v 75.7 c 0,0.8 -0.5,1.1 -1.2,0.7 z m -64.3,-40 63.1,36.4 V 496.3 L 286.2,460 Z"
   id="path242" /> </g> <g
   id="g272"> <g
   id="g248"> <polygon
   class="st5"
   points="338.5,556.9 297,532.9 297,524.5 338.5,548.5 "
   id="polygon246" /> </g> <g
   id="g270"> <g
   id="g258"> <g
   id="g252"> <polygon
   class="st5"
   points="309.8,528.2 303.3,524.4 303.3,496.3 309.8,500.1 "
   id="polygon250" /> </g> <g
   id="g256"> <polygon
   class="st5"
   points="306.6,482.1 296.8,495.9 316.3,507.1 "
   id="polygon254" /> </g> </g> <g
   id="g268"> <g
   id="g262"> <polygon
   class="st5"
   points="332.2,541.1 325.7,537.3 325.7,509.3 332.2,513 "
   id="polygon260" /> </g> <g
   id="g266"> <polygon
   class="st5"
   points="328.9,495 319.2,508.8 338.6,520 "
   id="polygon264" /> </g> </g> </g> </g> </g> </g> </g> <g
   id="g288"> <polygon
   class="st6"
   points="441.8,353.8 188.7,207.7 441.8,61.5 695,207.7 "
   id="polygon280" /> <g
   id="g284"> <path
   class="st7"
   d="m 188.7,207.7 c 10.7,5.8 21.4,11.7 32.1,17.5 l 31.9,17.9 c 21.2,11.9 42.3,24.1 63.5,36.2 21,12.3 42.1,24.5 63.1,36.9 l 31.4,18.7 c 10.4,6.3 20.9,12.6 31.2,19 -10.7,-5.7 -21.4,-11.7 -32.1,-17.5 l -31.9,-17.8 c -21.2,-11.9 -42.3,-24.1 -63.5,-36.2 -21,-12.3 -42.1,-24.5 -63.1,-36.9 L 219.9,226.8 C 209.5,220.3 199,214.1 188.7,207.7 Z"
   id="path282" /> </g> <polygon
   class="st8"
   points="335,292.1 295.5,269.3 548.7,123.2 588.2,146 "
   id="polygon286" /> </g> </g> <polygon
   class="st9"
   points="335,351.3 295.5,328.5 295.5,269.3 335,292.1 "
   id="polygon292"
   transform="translate(-113.7,-61.5)" />     <g
   id="g436"
   transform="translate(-113.7,-61.5)"> <polygon
   class="st5"
   points="570,499 570,499.7 566.4,502.1 566.4,496.3 567.1,495.8 567.1,500.9 "
   id="polygon392" /> <path
   class="st5"
   d="m 575.3,493.9 c 0,-0.8 0.2,-1.5 0.6,-2.2 0.3,-0.5 0.8,-1 1.3,-1.4 0.6,-0.4 1,-0.5 1.4,-0.4 0.4,0.1 0.5,0.5 0.5,1.2 0,0.5 -0.1,1 -0.3,1.4 -0.2,0.4 -0.4,0.8 -0.7,1.2 -0.3,0.4 -0.6,0.7 -1,0.9 -0.6,0.4 -1.1,0.5 -1.4,0.4 -0.2,0 -0.4,-0.4 -0.4,-1.1 z m 0.8,-0.5 c 0,0.5 0.1,0.9 0.3,1 0.2,0.1 0.5,0 0.9,-0.2 0.3,-0.2 0.6,-0.6 0.9,-1 0.2,-0.4 0.3,-0.9 0.3,-1.5 0,-0.5 -0.1,-0.8 -0.3,-1 -0.2,-0.1 -0.5,0 -0.9,0.2 -0.3,0.2 -0.7,0.6 -0.9,1 -0.2,0.5 -0.3,1 -0.3,1.5 z"
   id="path394" /> <path
   class="st5"
   d="m 585.3,489.6 0.7,-0.4 c 0,0.2 0.1,0.3 0.2,0.3 0.2,0 0.4,-0.1 0.7,-0.3 0.3,-0.2 0.6,-0.4 0.8,-0.7 0.2,-0.3 0.3,-0.5 0.4,-0.8 0,-0.2 0.1,-0.5 0.1,-1 -0.3,0.6 -0.7,1 -1.2,1.3 -0.6,0.4 -1,0.5 -1.4,0.3 -0.3,-0.2 -0.5,-0.6 -0.5,-1.2 0,-0.4 0.1,-0.8 0.2,-1.3 0.1,-0.4 0.3,-0.8 0.6,-1.2 0.3,-0.4 0.6,-0.7 1,-0.9 0.5,-0.3 0.9,-0.4 1.2,-0.2 V 483 l 0.7,-0.4 v 3.7 c 0,0.7 -0.1,1.2 -0.2,1.5 -0.1,0.4 -0.3,0.7 -0.6,1.1 -0.3,0.4 -0.6,0.7 -1.1,0.9 -0.5,0.3 -0.9,0.5 -1.2,0.5 -0.2,0 -0.4,-0.2 -0.4,-0.7 z m 0.6,-2.9 c 0,0.5 0.1,0.9 0.3,1 0.2,0.1 0.5,0 0.8,-0.2 0.3,-0.2 0.6,-0.5 0.8,-0.9 0.2,-0.4 0.3,-0.8 0.3,-1.4 0,-0.5 -0.1,-0.8 -0.3,-0.9 -0.2,-0.1 -0.5,-0.1 -0.8,0.2 -0.3,0.2 -0.6,0.5 -0.8,0.9 -0.2,0.4 -0.3,0.8 -0.3,1.3 z"
   id="path396" /> <path
   class="st5"
   d="m 595.3,477.7 v -0.8 l 0.7,-0.5 v 0.8 z m 0,5 v -4.2 L 596,478 v 4.2 z"
   id="path398" /> <path
   class="st5"
   d="m 619.9,461.2 v -0.8 l 0.7,-0.5 v 0.8 z m 0,5 V 462 l 0.7,-0.5 v 4.2 z"
   id="path400" /> <path
   class="st5"
   d="M 602.3,476.6 603,476 c 0,0.3 0.1,0.4 0.3,0.4 0.2,0 0.4,-0.1 0.7,-0.3 0.3,-0.2 0.6,-0.4 0.7,-0.7 0.1,-0.2 0.2,-0.4 0.2,-0.6 0,-0.2 -0.1,-0.2 -0.2,-0.2 -0.1,0 -0.3,0.1 -0.7,0.3 -0.5,0.2 -0.9,0.3 -1.1,0.4 -0.2,0 -0.3,0 -0.5,-0.1 -0.1,-0.1 -0.1,-0.2 -0.1,-0.5 0,-0.3 0,-0.4 0.1,-0.6 0.1,-0.2 0.2,-0.4 0.3,-0.6 0.1,-0.2 0.3,-0.3 0.5,-0.5 0.2,-0.2 0.4,-0.4 0.6,-0.5 0.3,-0.2 0.6,-0.3 0.9,-0.4 0.3,-0.1 0.4,-0.1 0.5,0 0.1,0.1 0.2,0.2 0.3,0.5 l -0.7,0.6 c 0,-0.2 -0.1,-0.3 -0.3,-0.3 -0.1,0 -0.4,0.1 -0.6,0.3 -0.3,0.2 -0.5,0.4 -0.7,0.6 -0.2,0.2 -0.2,0.4 -0.2,0.5 0,0.1 0,0.2 0.1,0.2 0.1,0 0.1,0 0.3,0 0.1,0 0.3,-0.1 0.6,-0.3 0.5,-0.2 0.8,-0.3 1.1,-0.4 0.2,0 0.3,0 0.5,0.1 0.1,0.1 0.2,0.3 0.2,0.5 0,0.2 -0.1,0.5 -0.2,0.8 -0.1,0.3 -0.3,0.6 -0.6,0.9 -0.3,0.3 -0.5,0.5 -0.9,0.8 -0.5,0.4 -1,0.5 -1.2,0.5 -0.2,0 -0.5,-0.4 -0.6,-0.8 z"
   id="path402" /> <path
   class="st5"
   d="m 613.7,469.6 0.1,0.6 c -0.2,0.2 -0.4,0.3 -0.5,0.4 -0.3,0.2 -0.5,0.3 -0.6,0.3 -0.1,0 -0.2,0 -0.3,-0.1 -0.1,-0.1 -0.1,-0.3 -0.1,-0.8 v -2.4 l -0.5,0.3 v -0.5 l 0.5,-0.3 v -1 l 0.7,-0.9 v 1.5 l 0.7,-0.5 v 0.5 l -0.7,0.5 v 2.5 c 0,0.2 0,0.3 0,0.4 l 0.1,0.1 c 0.1,0 0.1,0 0.3,-0.1 0.1,-0.3 0.2,-0.3 0.3,-0.5 z"
   id="path404" /> <path
   class="st5"
   d="m 630.3,457.6 0.7,-0.4 c -0.1,0.5 -0.3,1 -0.6,1.5 -0.3,0.5 -0.7,0.9 -1.2,1.2 -0.6,0.4 -1,0.5 -1.4,0.4 -0.3,-0.1 -0.5,-0.6 -0.5,-1.3 0,-0.5 0.1,-0.9 0.2,-1.3 0.1,-0.4 0.4,-0.8 0.7,-1.2 0.3,-0.4 0.6,-0.7 1,-0.9 0.5,-0.3 0.8,-0.4 1.1,-0.4 0.3,0 0.5,0.2 0.5,0.6 l -0.7,0.6 c -0.1,-0.2 -0.2,-0.4 -0.3,-0.4 -0.2,0 -0.4,0 -0.6,0.2 -0.3,0.2 -0.7,0.6 -0.9,1 -0.2,0.4 -0.3,0.9 -0.3,1.4 0,0.5 0.1,0.9 0.3,1 0.2,0.1 0.5,0 0.8,-0.2 0.3,-0.2 0.5,-0.4 0.7,-0.7 0.3,-0.4 0.4,-0.7 0.5,-1.1 z"
   id="path406" /> <path
   class="st5"
   d="m 636.2,453.9 0.7,-0.6 c 0,0.3 0.1,0.4 0.3,0.4 0.2,0 0.4,-0.1 0.7,-0.3 0.3,-0.2 0.6,-0.4 0.7,-0.7 0.1,-0.2 0.2,-0.4 0.2,-0.6 0,-0.2 -0.1,-0.2 -0.2,-0.2 -0.1,0 -0.3,0.1 -0.7,0.3 -0.5,0.2 -0.9,0.3 -1.1,0.4 -0.2,0 -0.3,0 -0.5,-0.1 -0.1,-0.1 -0.1,-0.2 -0.1,-0.5 0,-0.2 0,-0.4 0.1,-0.6 0.1,-0.2 0.2,-0.4 0.3,-0.6 0.1,-0.2 0.3,-0.3 0.5,-0.5 0.2,-0.2 0.4,-0.4 0.6,-0.5 0.3,-0.2 0.6,-0.3 0.9,-0.4 0.3,-0.1 0.4,-0.1 0.5,0 0.1,0.1 0.2,0.2 0.3,0.5 l -0.7,0.6 c 0,-0.2 -0.1,-0.3 -0.3,-0.3 -0.1,0 -0.4,0.1 -0.6,0.3 -0.3,0.2 -0.5,0.4 -0.7,0.6 -0.1,0.2 -0.2,0.4 -0.2,0.5 0,0.1 0,0.2 0.1,0.2 0.1,0 0.1,0 0.3,0 0.1,0 0.3,-0.1 0.6,-0.3 0.5,-0.2 0.8,-0.3 1.1,-0.4 0.2,0 0.3,0 0.5,0.1 0.1,0.1 0.2,0.3 0.2,0.5 0,0.2 -0.1,0.5 -0.2,0.8 -0.1,0.3 -0.3,0.6 -0.6,0.9 -0.3,0.3 -0.5,0.5 -0.9,0.8 -0.5,0.4 -1,0.5 -1.2,0.5 -0.4,-0.2 -0.6,-0.4 -0.6,-0.8 z"
   id="path408" /> <path
   class="st5"
   d="m 527.1,534.5 c -3.7,0.2 -5.3,-3.1 -5.1,-8.5 l -1.6,1 c -0.2,7.7 2.7,11.8 8.5,10.1 8.9,-2.6 21.4,-18 29.7,-35.7 l -3.1,2.1 c -8.9,17.1 -21.2,30.6 -28.4,31 z"
   id="path410" /> <path
   class="st5"
   d="m 554.2,472.5 c 2,-1.3 3.9,-2 5.5,-2.1 3.6,-0.2 5.3,2.9 5.1,8.3 l 1.6,-1 c 0.1,-7.5 -2.8,-11.5 -8.5,-9.8 -8.8,2.6 -21.3,17.8 -29.5,35.3 l 3.1,-2.1 c 6.8,-13.1 15.7,-24.1 22.7,-28.6 z"
   id="path412" /> <path
   class="st5"
   d="m 555.2,476.8 c 3.5,-2.6 6.5,-3 9,-1.2 -1.8,-4.5 -5.5,-4.9 -10.9,-1.2 -6.7,4.5 -12,12.1 -15.9,22.7 l 6.9,-4.6 c 1.9,-7 5.6,-12.3 10.9,-15.7 z"
   id="path414" /> <path
   class="st5"
   d="m 533.9,530.6 c 6.7,-4.5 12,-12.1 15.9,-22.7 l -6.9,4.6 c -2,7.1 -5.6,12.3 -11,15.8 -3.5,2.6 -6.5,3 -9,1.2 1.9,4.5 5.6,4.9 11,1.1 z"
   id="path416" /> <path
   class="st5"
   d="m 507.1,526 c 0,-1.1 0.2,-2.5 0.5,-3.9 0.4,-2 1.1,-3.9 2,-5.8 0.9,-1.9 2.1,-3.6 3.5,-5.3 1.4,-1.6 3,-3.1 4.7,-4.3 2.4,-1.6 4.3,-2.1 5.8,-1.6 1.5,0.5 2.2,2 2.2,4.4 0,2 -0.5,4.3 -1.4,6.8 -1,2.5 -2.2,4.9 -3.9,7 -1.6,2.1 -3.5,3.9 -5.5,5.2 -1.8,1.2 -3.3,1.8 -4.5,1.8 -1.2,0 -2.1,-0.4 -2.6,-1.3 -0.6,-0.7 -0.8,-1.7 -0.8,-3 z m 3.8,-2.7 c 0,1.3 0.4,2.2 1.2,2.5 0.8,0.4 1.9,0.1 3.2,-0.8 1.1,-0.7 2.1,-1.8 3.1,-3.1 1,-1.3 1.8,-3 2.5,-4.8 0.6,-1.8 1,-3.5 1,-4.8 0,-1.5 -0.4,-2.4 -1.2,-2.8 -0.8,-0.3 -1.8,-0.1 -3.1,0.8 -1.9,1.3 -3.5,3.2 -4.7,5.9 -1.3,2.6 -2,5 -2,7.1 z"
   id="path418" /> <path
   class="st5"
   d="m 534.9,509.7 3.7,-1.9 c -0.6,2 -1.5,3.9 -2.7,5.5 -1.2,1.6 -2.5,3 -4.1,4 -1.8,1.2 -3.2,1.6 -4.2,1.2 -1,-0.4 -1.6,-1.5 -1.6,-3.3 0,-1.5 0.3,-3.2 1,-4.9 0.6,-1.8 1.6,-3.5 2.9,-5.1 1.3,-1.6 2.7,-2.9 4.2,-3.9 1.6,-1.1 2.9,-1.5 3.9,-1.3 1,0.2 1.5,1 1.6,2.3 L 536,505 c -0.1,-0.7 -0.3,-1.1 -0.7,-1.2 -0.4,-0.1 -0.9,0.1 -1.5,0.5 -0.7,0.5 -1.4,1.2 -2,2.2 -0.6,1 -1.1,2.1 -1.4,3.4 -0.3,1.3 -0.5,2.5 -0.5,3.4 0,0.8 0.2,1.3 0.6,1.5 0.4,0.2 0.9,0.1 1.5,-0.3 0.6,-0.4 1.2,-1 1.7,-1.8 0.4,-1 0.9,-1.9 1.2,-3 z"
   id="path420" /> <path
   class="st5"
   d="m 552.7,497.1 -9.4,6.3 c 0,0.1 0,0.3 0,0.3 0,0.9 0.3,1.5 0.8,1.7 0.5,0.2 1.2,0 1.9,-0.5 1.2,-0.8 2.2,-2.1 2.9,-3.9 l 3.4,-1.7 c -0.7,1.8 -1.5,3.4 -2.6,4.8 -1.1,1.4 -2.3,2.6 -3.7,3.5 -1.9,1.3 -3.4,1.7 -4.6,1.3 -1.2,-0.4 -1.8,-1.6 -1.8,-3.5 0,-1.9 0.5,-4 1.6,-6.1 1.4,-3 3.5,-5.4 6.2,-7.2 1.7,-1.1 3.1,-1.5 4.1,-1.1 1,0.4 1.5,1.5 1.5,3.4 0,1 -0.1,1.9 -0.3,2.7 z m -3.1,-0.1 c 0,-0.2 0,-0.3 0,-0.4 0,-1 -0.2,-1.7 -0.7,-1.8 -0.5,-0.2 -1.1,0 -1.9,0.5 -0.8,0.5 -1.5,1.3 -2.1,2.3 -0.6,1 -1,2.1 -1.2,3.4 z"
   id="path422" /> <path
   class="st5"
   d="m 558.2,489.3 -3.7,2.1 c 0.4,-1.5 1.2,-3 2.2,-4.4 1,-1.4 2.4,-2.7 4.2,-3.8 1.8,-1.2 3.1,-1.7 4,-1.6 0.9,0.2 1.3,0.7 1.3,1.8 0,0.4 0,0.9 -0.1,1.4 -0.1,0.5 -0.3,1.9 -0.8,4.2 -0.4,1.9 -0.5,3.2 -0.5,3.9 0,0.6 0.1,1.2 0.3,1.8 l -3.7,2.5 c -0.1,-0.4 -0.2,-0.9 -0.3,-1.4 -0.5,1 -1.2,1.9 -1.9,2.7 -0.7,0.8 -1.4,1.5 -2.2,1.9 -1.2,0.8 -2.1,1 -2.9,0.8 -0.7,-0.2 -1.1,-1 -1.1,-2.2 0,-1.3 0.4,-2.7 1.2,-4 0.8,-1.4 2.3,-2.8 4.4,-4.4 1.8,-1.3 3,-2.3 3.6,-2.9 0.1,-0.6 0.2,-1.1 0.2,-1.4 0,-0.4 -0.2,-0.6 -0.5,-0.7 -0.3,-0.1 -0.8,0.1 -1.4,0.6 -0.7,0.4 -1.2,1 -1.6,1.5 -0.3,0.4 -0.5,1 -0.7,1.6 z m 3.6,1.1 c -0.2,0.2 -0.5,0.5 -0.9,0.8 -1.9,1.5 -3.1,2.6 -3.7,3.5 -0.4,0.6 -0.6,1.2 -0.6,1.7 0,0.4 0.1,0.7 0.5,0.8 0.3,0.1 0.7,0 1.2,-0.4 0.6,-0.4 1.1,-0.9 1.6,-1.5 0.5,-0.6 0.9,-1.2 1.1,-1.8 0.3,-0.6 0.5,-1.4 0.7,-2.5 z"
   id="path424" /> <path
   class="st5"
   d="m 569.6,477.7 3.6,-2.4 -0.4,2.1 c 0.9,-1.4 1.7,-2.5 2.5,-3.3 0.8,-0.8 1.6,-1.6 2.5,-2.1 1.2,-0.8 2,-1.1 2.7,-0.8 0.7,0.2 1,0.9 1,1.9 0,0.5 -0.1,1.5 -0.4,3.1 l -1.6,9 -3.7,2.5 1.6,-9 c 0.3,-1.4 0.4,-2.1 0.4,-2.4 0,-0.5 -0.1,-0.8 -0.4,-0.8 -0.3,-0.1 -0.7,0.1 -1.2,0.4 -0.5,0.4 -1.2,1 -1.8,1.9 -0.7,0.9 -1.2,1.9 -1.6,2.9 -0.3,0.7 -0.6,2.1 -1,4 l -1.2,6.5 -3.7,2.5 z"
   id="path426" /> <path
   class="st5"
   d="m 603.2,460.7 2.7,-0.2 c -0.3,0.7 -0.6,1.4 -1,2.2 -0.4,0.8 -0.8,1.5 -1.1,2.1 0.5,0.2 1.1,0.4 1.9,0.5 l -2.4,4.1 c -0.3,0 -0.7,0 -1.1,-0.1 -0.5,-0.1 -0.8,-0.2 -1.2,-0.3 -0.6,0.9 -1.4,1.9 -2.4,2.8 -1,1 -2,1.8 -3.1,2.6 -2,1.3 -3.5,1.9 -4.7,1.6 -1.2,-0.3 -1.7,-1.2 -1.7,-2.7 0,-1 0.2,-2 0.7,-3.2 0.5,-1.1 1,-2.3 1.8,-3.3 0.5,-0.8 1.4,-1.9 2.5,-3.3 -0.6,-0.9 -0.8,-1.7 -0.8,-2.7 0,-1.4 0.5,-2.8 1.5,-4.4 1,-1.6 2.3,-2.9 3.9,-4 1.4,-0.9 2.5,-1.3 3.3,-1.1 0.8,0.2 1.2,0.8 1.2,1.8 0,0.8 -0.3,2 -1,3.4 -0.7,1.4 -1.8,3.1 -3.4,5 0.5,0.5 1.1,1 1.9,1.6 0.4,0.4 0.8,0.6 1.1,0.7 0.3,-0.6 0.8,-1.7 1.4,-3.1 z m -7.7,4.7 c -1.7,2 -2.6,3.7 -2.6,5.2 0,0.8 0.3,1.3 0.8,1.5 0.5,0.2 1.2,0 2,-0.6 1,-0.7 2.1,-1.8 3.2,-3.2 -1.3,-0.9 -2.4,-1.8 -3.4,-2.9 z m 1.8,-5.5 c 1,-1.2 1.8,-2.2 2.2,-3.1 0.3,-0.6 0.4,-1.1 0.4,-1.4 0,-0.3 -0.1,-0.6 -0.3,-0.7 -0.2,-0.1 -0.6,0 -1,0.3 -0.5,0.3 -1,0.8 -1.3,1.4 -0.3,0.6 -0.5,1.2 -0.5,1.8 0,0.6 0.1,1.2 0.5,1.7 z"
   id="path428" /> <path
   class="st5"
   d="m 624.1,450.8 -7.6,5.1 -2.3,5.8 -4.1,2.7 10.9,-26.5 4.4,-2.9 3.1,17.1 -3.7,2.5 z m -0.5,-2.9 -1.1,-7 -4.6,10.8 z"
   id="path430" /> <path
   class="st5"
   d="m 632.6,435.5 3.7,-2.5 -2.9,15.9 -3.7,2.5 z m 1.1,-6.1 3.7,-2.5 -0.7,3.9 -3.7,2.5 z"
   id="path432" /> <path
   class="st5"
   d="m 638.6,431.4 3.5,-2.4 -0.5,3.1 c 1.3,-2.9 2.7,-4.9 4.3,-5.9 0.5,-0.4 1.1,-0.6 1.7,-0.8 l -1.4,4.1 c -0.3,0.1 -0.7,0.3 -1.1,0.6 -0.6,0.4 -1.3,1.1 -2,2 -0.7,0.9 -1.2,1.9 -1.6,3 -0.4,1.1 -0.7,2.6 -1.1,4.6 l -0.9,5 -3.7,2.5 z"
   id="path434" /> </g> <g
   id="g25493"
   style="display:inline"
   transform="translate(117.33562,-9.237708)"><rect
     style="display:inline;fill:url(#radialGradient24424);fill-opacity:1;fill-rule:evenodd;stroke:none;stroke-width:1;stroke-miterlimit:4;stroke-dasharray:none;stroke-opacity:1"
     id="rect883"
     width="237.80231"
     height="175.66231"
     x="320.86438"
     y="504.33771" /><path
     id="rect883-2"
     style="display:inline;fill:url(#radialGradient11209-3);fill-opacity:1;fill-rule:evenodd;stroke:none;stroke-width:1;stroke-miterlimit:4;stroke-dasharray:none;stroke-opacity:1"
     d="m 338.86523,662 c 67.26693,0 134.53386,0 201.80079,0 0,-46.55404 0,-93.10807 0,-139.66211 -67.26693,0 -134.53386,0 -201.80079,0 0,46.55404 0,93.10807 0,139.66211 z" /><path
     id="path1136"
     style="display:inline;fill:url(#radialGradient5977);fill-opacity:1;fill-rule:evenodd;stroke:none;stroke-width:0.991362;stroke-miterlimit:4;stroke-dasharray:none;stroke-opacity:1"
     d="m 440.26365,300.54496 c -48.1936,0.0999 -91.12956,30.63477 -94.32812,69.88867 v 0 134.67774 h 40.48417 l -0.0177,-132.29005 c 0,0 13.4397,-35.23828 56.31898,-35.21925 35.51075,-1.03828 55.45983,35.07937 55.45983,35.07937 l 1.22547,40.51153 14.9335,9.06098 -14.89821,8.57214 0.16022,18.02646 33.24971,-0.82712 v -74.5332 0 c -1.2686,-40.57689 -42.86349,-72.93559 -92.58789,-72.94727 z"
     sodipodi:nodetypes="cccccccccccccccc" /><rect
     style="display:inline;fill:url(#radialGradient13549);fill-opacity:1;fill-rule:evenodd;stroke:none;stroke-width:1.00434;stroke-miterlimit:4;stroke-dasharray:none;stroke-opacity:1"
     id="rect7494"
     width="238.97693"
     height="69.69075"
     x="320.49072"
     y="590.30688" /><path
     style="display:inline;fill:#000000;fill-opacity:1;stroke:none;stroke-width:1px;stroke-linecap:butt;stroke-linejoin:miter;stroke-opacity:1"
     d="m 478.70382,590.32494 45.50109,69.52169 33.20022,0.15103 -47.75864,-69.53532 z"
     id="path9558"
     sodipodi:nodetypes="ccccc" /><path
     style="display:inline;fill:#000000;fill-opacity:1;stroke:none;stroke-width:1px;stroke-linecap:butt;stroke-linejoin:miter;stroke-opacity:1"
     d="m 320.49072,659.99762 c 15.19678,-0.12603 30.39414,-0.0322 45.59116,4e-5 L 320.4907,590.30692 Z"
     id="path9558-3"
     sodipodi:nodetypes="cccc" /><path
     style="display:inline;fill:#1e1e1d;fill-opacity:1;stroke:none;stroke-width:1px;stroke-linecap:butt;stroke-linejoin:miter;stroke-opacity:1"
     d="m 351.76461,590.32494 45.47205,69.71531 33.22926,-0.0426 -47.75864,-69.53532 z"
     id="path9558-6"
     sodipodi:nodetypes="ccccc" /><path
     style="display:inline;fill:#000000;fill-opacity:1;stroke:none;stroke-width:1px;stroke-linecap:butt;stroke-linejoin:miter;stroke-opacity:1"
     d="m 415.99296,590.32494 45.48084,69.61802 33.22047,0.0547 -47.75864,-69.53532 z"
     id="path9558-7"
     sodipodi:nodetypes="ccccc" /><path
     style="fill:#1e1e1d;fill-opacity:1;fill-rule:evenodd;stroke:none;stroke-width:0.419235;stroke-miterlimit:4;stroke-dasharray:none;stroke-opacity:1"
     d="m 443.34155,631.92938 c -10.03021,-15.35939 -20.19464,-30.92601 -22.58764,-34.59249 -2.39299,-3.66648 -4.27955,-6.72541 -4.19235,-6.79762 0.0872,-0.0722 6.97767,-0.0405 15.31216,0.0704 l 15.15362,0.20169 9.36326,13.6757 c 5.1498,7.52164 15.81412,23.06134 23.69849,34.53267 l 14.33523,20.85697 -16.42301,-0.0106 -16.42301,-0.0106 z"
     id="path23817" /><path
     style="fill:#1e1e1d;fill-opacity:1;fill-rule:evenodd;stroke:none;stroke-width:0.419235;stroke-miterlimit:4;stroke-dasharray:none;stroke-opacity:1"
     d="m 512.27908,641.32552 c -6.66435,-10.20314 -16.87841,-25.80403 -22.69791,-34.66864 -5.8195,-8.86462 -10.53907,-16.149 -10.48794,-16.18752 0.0511,-0.0385 6.9789,0.0248 15.39506,0.14076 l 15.30209,0.21078 5.45006,8.00167 c 2.99754,4.40092 13.2921,19.41966 22.8768,33.375 9.58471,13.95533 17.76577,25.89213 18.18015,26.52623 l 0.75342,1.1529 h -16.32737 -16.32736 z"
     id="path23856" /><path
     style="fill:#1e1e1d;fill-opacity:1;fill-rule:evenodd;stroke:none;stroke-width:0.419235;stroke-miterlimit:4;stroke-dasharray:none;stroke-opacity:1"
     d="m 320.50555,625.22056 v -34.65613 l 4.22262,6.46254 c 2.32244,3.5544 11.87108,18.15922 21.21919,32.45515 9.34811,14.29593 17.63301,26.98305 18.41089,28.19359 l 1.41432,2.20099 h -22.63351 -22.63351 z"
     id="path23895" /></g></svg>
